<?xml version="1.0" encoding="utf-8"?>
<!-- Generator: Adobe Illustrator 27.8.1, SVG Export Plug-In . SVG Version: 6.00 Build 0)  -->
<svg version="1.1" id="Layer_1" xmlns="http://www.w3.org/2000/svg" xmlns:xlink="http://www.w3.org/1999/xlink" x="0px" y="0px"
	 viewBox="0 0 1064.81 544.29" style="enable-background:new 0 0 1064.81 544.29;" xml:space="preserve">
<style type="text/css">
	.st0{clip-path:url(#SVGID_00000024680256393042034000000010900815315820527232_);}
	.st1{clip-path:url(#SVGID_00000169525443156065102480000003584377692318185891_);}
	.st2{clip-path:url(#SVGID_00000080886070681437404230000017940796685824259253_);}
	.st3{clip-path:url(#SVGID_00000088109820701376503640000013945333621405767863_);}
	.st4{clip-path:url(#SVGID_00000178202919354239178040000002152066654427219358_);fill:#F89A24;}
	.st5{clip-path:url(#SVGID_00000087377114468528082400000008007259076203090331_);}
	.st6{clip-path:url(#SVGID_00000058575288492254937230000010153925470893331591_);}
	.st7{clip-path:url(#SVGID_00000113354769930897248480000000671914435898819006_);}
	.st8{clip-path:url(#SVGID_00000079462423626740702040000011822233815265230732_);}
	.st9{clip-path:url(#SVGID_00000119824270483186550270000004933704308188853668_);fill:#0053A0;}
	.st10{clip-path:url(#SVGID_00000058552449253709315520000005897521685247984519_);}
	.st11{clip-path:url(#SVGID_00000128457215086693775680000005402755501344335262_);}
	.st12{clip-path:url(#SVGID_00000035499024570364422860000013008424321702789274_);}
	.st13{clip-path:url(#SVGID_00000038374522141478095110000003567314215708372901_);}
	.st14{clip-path:url(#SVGID_00000152226321059829780370000006651372477202122905_);fill:#F89A24;}
	.st15{clip-path:url(#SVGID_00000140708839024303537280000014379909551963180679_);}
	.st16{clip-path:url(#SVGID_00000159453571181923996740000012103258933296879003_);}
	.st17{clip-path:url(#SVGID_00000062177527813767103910000011549021623489838501_);}
	.st18{clip-path:url(#SVGID_00000061452464997572778550000003178145770638867091_);}
	.st19{clip-path:url(#SVGID_00000028314663277037234830000009417162074973017527_);fill:#0053A0;}
	.st20{clip-path:url(#SVGID_00000059276260772173010640000009471483432429685675_);fill:#FFFFFF;}
	.st21{clip-path:url(#SVGID_00000137823968939004065540000009279472421766461626_);}
	.st22{clip-path:url(#SVGID_00000137109412018029465470000013263705433919885443_);}
	.st23{clip-path:url(#SVGID_00000058584139184744605520000009272504507837187255_);}
	.st24{clip-path:url(#SVGID_00000098938924060770435150000005230787700432131200_);}
	.st25{clip-path:url(#SVGID_00000137124756056861081370000003676318350710095500_);fill:#0053A0;}
	.st26{clip-path:url(#SVGID_00000147928236336044296990000015992674997756465042_);fill:none;stroke:#FFFFFF;stroke-width:27.7032;}
	.st27{clip-path:url(#SVGID_00000150073923329080841370000006957001629295237045_);}
	.st28{opacity:0;}
	.st29{clip-path:url(#SVGID_00000181766782484943798280000017674412487311352479_);}
	.st30{clip-path:url(#SVGID_00000173880886736615288720000015172726776743227802_);}
	.st31{clip-path:url(#SVGID_00000153700127707950638810000010475843327659340939_);}
	.st32{clip-path:url(#SVGID_00000022543298819962313110000015605994236539181747_);fill:none;stroke:#FCFCFD;stroke-width:25.3809;}
	.st33{clip-path:url(#SVGID_00000117663086003953559370000000834657859036552866_);}
	.st34{clip-path:url(#SVGID_00000113347827141368387050000018229575673999941273_);}
	.st35{clip-path:url(#SVGID_00000023276705998780944420000005972490363354175650_);}
	.st36{fill:#FFFFFF;}
</style>
<g>
	<g>
		<g>
			<defs>
				<rect id="SVGID_1_" x="-4.37" y="-267.43" width="1051.53" height="1072.56"/>
			</defs>
			<clipPath id="SVGID_00000009554706624243400160000017168902958850356918_">
				<use xlink:href="#SVGID_1_"  style="overflow:visible;"/>
			</clipPath>
			<g style="clip-path:url(#SVGID_00000009554706624243400160000017168902958850356918_);">
				<g>
					<defs>
						
							<rect id="SVGID_00000153677770979782565840000016054951712765127357_" x="-4.37" y="-267.43" width="1051.53" height="1051.53"/>
					</defs>
					<clipPath id="SVGID_00000014635464163708039900000013395823341614287252_">
						<use xlink:href="#SVGID_00000153677770979782565840000016054951712765127357_"  style="overflow:visible;"/>
					</clipPath>
					<g style="clip-path:url(#SVGID_00000014635464163708039900000013395823341614287252_);">
						<g>
							<defs>
								
									<rect id="SVGID_00000059305546544500117670000007272251869067736994_" x="-4.37" y="-267.43" width="1051.53" height="1051.53"/>
							</defs>
							<clipPath id="SVGID_00000178885015250932932970000008497288986819215513_">
								<use xlink:href="#SVGID_00000059305546544500117670000007272251869067736994_"  style="overflow:visible;"/>
							</clipPath>
							<g style="clip-path:url(#SVGID_00000178885015250932932970000008497288986819215513_);">
								<g>
									<defs>
										
											<rect id="SVGID_00000059302851838917896780000016874489648415176836_" x="204.11" y="37.92" transform="matrix(0.9987 -0.0516 0.0516 0.9987 -13.353 18.1849)" width="282.82" height="459.57"/>
									</defs>
									<clipPath id="SVGID_00000075872964710132879320000001649734471972628402_">
										<use xlink:href="#SVGID_00000059302851838917896780000016874489648415176836_"  style="overflow:visible;"/>
									</clipPath>
									<g style="clip-path:url(#SVGID_00000075872964710132879320000001649734471972628402_);">
										<g>
											<defs>
												
													<rect id="SVGID_00000067206039093926235200000017427454361429521067_" x="204.11" y="37.92" transform="matrix(0.9987 -0.0516 0.0516 0.9987 -13.353 18.1849)" width="282.82" height="459.57"/>
											</defs>
											<clipPath id="SVGID_00000168811681884065229850000012842662951373315722_">
												<use xlink:href="#SVGID_00000067206039093926235200000017427454361429521067_"  style="overflow:visible;"/>
											</clipPath>
											<polygon style="clip-path:url(#SVGID_00000168811681884065229850000012842662951373315722_);fill:#F89A24;" points="
												388.91,35.36 474.86,30.92 251.77,502.63 211.11,406.73 											"/>
										</g>
									</g>
								</g>
							</g>
						</g>
					</g>
				</g>
			</g>
		</g>
	</g>
	<g>
		<g>
			<defs>
				
					<rect id="SVGID_00000138570530148943639660000007846121107436918428_" x="-4.37" y="-267.43" width="1051.53" height="1072.56"/>
			</defs>
			<clipPath id="SVGID_00000038391527607328745320000007152444923344246195_">
				<use xlink:href="#SVGID_00000138570530148943639660000007846121107436918428_"  style="overflow:visible;"/>
			</clipPath>
			<g style="clip-path:url(#SVGID_00000038391527607328745320000007152444923344246195_);">
				<g>
					<defs>
						
							<rect id="SVGID_00000138536518813141992250000014443489673495037885_" x="-4.37" y="-267.43" width="1051.53" height="1051.53"/>
					</defs>
					<clipPath id="SVGID_00000052808786596495161630000014022455519788146582_">
						<use xlink:href="#SVGID_00000138536518813141992250000014443489673495037885_"  style="overflow:visible;"/>
					</clipPath>
					<g style="clip-path:url(#SVGID_00000052808786596495161630000014022455519788146582_);">
						<g>
							<defs>
								
									<rect id="SVGID_00000104703388047744386830000014884002038496175248_" x="-4.37" y="-267.43" width="1051.53" height="1051.53"/>
							</defs>
							<clipPath id="SVGID_00000091734964874359567790000007509643276503517599_">
								<use xlink:href="#SVGID_00000104703388047744386830000014884002038496175248_"  style="overflow:visible;"/>
							</clipPath>
							<g style="clip-path:url(#SVGID_00000091734964874359567790000007509643276503517599_);">
								<g>
									<defs>
										
											<rect id="SVGID_00000004541541741624910450000002311391906990191000_" x="411.78" y="38.09" transform="matrix(0.9987 -0.0516 0.0516 0.9987 -13.3187 29.0649)" width="288.96" height="468.8"/>
									</defs>
									<clipPath id="SVGID_00000156554539851619399180000010591586655554617476_">
										<use xlink:href="#SVGID_00000004541541741624910450000002311391906990191000_"  style="overflow:visible;"/>
									</clipPath>
									<g style="clip-path:url(#SVGID_00000156554539851619399180000010591586655554617476_);">
										<g>
											<defs>
												
													<rect id="SVGID_00000151512797361116670660000013795791691145834373_" x="411.78" y="38.09" transform="matrix(0.9987 -0.0516 0.0516 0.9987 -13.3187 29.0649)" width="288.96" height="468.8"/>
											</defs>
											<clipPath id="SVGID_00000037694769607102160710000006677526439856250777_">
												<use xlink:href="#SVGID_00000151512797361116670660000013795791691145834373_"  style="overflow:visible;"/>
											</clipPath>
											<polygon style="clip-path:url(#SVGID_00000037694769607102160710000006677526439856250777_);fill:#0053A0;" points="
												600.61,35.47 688.44,30.93 460.45,512.11 418.91,414.3 											"/>
										</g>
									</g>
								</g>
							</g>
						</g>
					</g>
				</g>
			</g>
		</g>
	</g>
	<g>
		<g>
			<defs>
				
					<rect id="SVGID_00000130618259131063093210000013154655021471669665_" x="-4.37" y="-267.43" width="1051.53" height="1072.56"/>
			</defs>
			<clipPath id="SVGID_00000171689218183852824040000017117190675768052415_">
				<use xlink:href="#SVGID_00000130618259131063093210000013154655021471669665_"  style="overflow:visible;"/>
			</clipPath>
			<g style="clip-path:url(#SVGID_00000171689218183852824040000017117190675768052415_);">
				<g>
					<defs>
						
							<rect id="SVGID_00000065076326260434057900000013180097503455292545_" x="-4.37" y="-267.43" width="1051.53" height="1051.53"/>
					</defs>
					<clipPath id="SVGID_00000080896376660129746420000008299016083838841532_">
						<use xlink:href="#SVGID_00000065076326260434057900000013180097503455292545_"  style="overflow:visible;"/>
					</clipPath>
					<g style="clip-path:url(#SVGID_00000080896376660129746420000008299016083838841532_);">
						<g>
							<defs>
								
									<rect id="SVGID_00000127727676293898743440000001042775357576622224_" x="-4.37" y="-267.43" width="1051.53" height="1051.53"/>
							</defs>
							<clipPath id="SVGID_00000070118772641918038510000004770034961383798938_">
								<use xlink:href="#SVGID_00000127727676293898743440000001042775357576622224_"  style="overflow:visible;"/>
							</clipPath>
							<g style="clip-path:url(#SVGID_00000070118772641918038510000004770034961383798938_);">
								<g>
									<defs>
										
											<rect id="SVGID_00000096051058763164186300000003399267176564743315_" x="-80.92" y="128.82" transform="matrix(0.0582 -0.9983 0.9983 0.0582 -128.2507 409.1161)" width="467.25" height="287.42"/>
									</defs>
									<clipPath id="SVGID_00000044137296887739750650000000685967149584622988_">
										<use xlink:href="#SVGID_00000096051058763164186300000003399267176564743315_"  style="overflow:visible;"/>
									</clipPath>
									<g style="clip-path:url(#SVGID_00000044137296887739750650000000685967149584622988_);">
										<g>
											<defs>
												
													<rect id="SVGID_00000005965674774108520390000008540414063636052129_" x="-80.82" y="128.82" transform="matrix(0.0582 -0.9983 0.9983 0.0582 -128.1576 409.2182)" width="467.25" height="287.42"/>
											</defs>
											<clipPath id="SVGID_00000136404620705210959690000010107470083658912422_">
												<use xlink:href="#SVGID_00000005965674774108520390000008540414063636052129_"  style="overflow:visible;"/>
											</clipPath>
											<polygon style="clip-path:url(#SVGID_00000136404620705210959690000010107470083658912422_);fill:#F89A24;" points="
												110.28,36.05 22.95,30.96 246.49,512.03 288.46,414.8 											"/>
										</g>
									</g>
								</g>
							</g>
						</g>
					</g>
				</g>
			</g>
		</g>
	</g>
	<g>
		<g>
			<defs>
				
					<rect id="SVGID_00000090999935626047994950000002861473654091450558_" x="-4.37" y="-267.43" width="1051.53" height="1072.56"/>
			</defs>
			<clipPath id="SVGID_00000031182913078691057710000012810788598778344077_">
				<use xlink:href="#SVGID_00000090999935626047994950000002861473654091450558_"  style="overflow:visible;"/>
			</clipPath>
			<g style="clip-path:url(#SVGID_00000031182913078691057710000012810788598778344077_);">
				<g>
					<defs>
						
							<rect id="SVGID_00000005239892429410475080000004319251613134121123_" x="-4.37" y="-267.43" width="1051.53" height="1051.53"/>
					</defs>
					<clipPath id="SVGID_00000023978839809209054400000012351796462936797604_">
						<use xlink:href="#SVGID_00000005239892429410475080000004319251613134121123_"  style="overflow:visible;"/>
					</clipPath>
					<g style="clip-path:url(#SVGID_00000023978839809209054400000012351796462936797604_);">
						<g>
							<defs>
								
									<rect id="SVGID_00000084502134924963671290000010723939026824557229_" x="-4.37" y="-267.43" width="1051.53" height="1051.53"/>
							</defs>
							<clipPath id="SVGID_00000127733194412212461120000004841850290007717054_">
								<use xlink:href="#SVGID_00000084502134924963671290000010723939026824557229_"  style="overflow:visible;"/>
							</clipPath>
							<g style="clip-path:url(#SVGID_00000127733194412212461120000004841850290007717054_);">
								<g>
									<defs>
										
											<rect id="SVGID_00000175311914354285281870000008678862795611705258_" x="324.69" y="34.8" transform="matrix(0.9987 -0.0516 0.0516 0.9987 -4.4729 20.8481)" width="153.7" height="124.5"/>
									</defs>
									<clipPath id="SVGID_00000126299201791080304500000011744380739059769780_">
										<use xlink:href="#SVGID_00000175311914354285281870000008678862795611705258_"  style="overflow:visible;"/>
									</clipPath>
									<g style="clip-path:url(#SVGID_00000126299201791080304500000011744380739059769780_);">
										<g>
											<defs>
												
													<rect id="SVGID_00000171706661037139994150000016031350646705163405_" x="203.97" y="37.93" transform="matrix(0.9987 -0.0516 0.0516 0.9987 -13.3537 18.1777)" width="282.82" height="459.57"/>
											</defs>
											<clipPath id="SVGID_00000002352979797682416630000001091742319929003696_">
												<use xlink:href="#SVGID_00000171706661037139994150000016031350646705163405_"  style="overflow:visible;"/>
											</clipPath>
											<polygon style="clip-path:url(#SVGID_00000002352979797682416630000001091742319929003696_);fill:#0053A0;" points="
												388.77,35.37 474.73,30.93 251.63,502.63 210.97,406.73 											"/>
										</g>
									</g>
								</g>
							</g>
						</g>
					</g>
				</g>
			</g>
		</g>
	</g>
	<g>
		<g>
			<defs>
				<polygon id="SVGID_00000112605386770008703550000011981112364490081190_" points="300.67,130.69 438.97,140.26 442.24,234.22 
					265.65,234.22 				"/>
			</defs>
			<clipPath id="SVGID_00000170964986908068505280000004973796484671819167_">
				<use xlink:href="#SVGID_00000112605386770008703550000011981112364490081190_"  style="overflow:visible;"/>
			</clipPath>
			
				<rect x="265.65" y="128.41" style="clip-path:url(#SVGID_00000170964986908068505280000004973796484671819167_);fill:#FFFFFF;" width="176.56" height="106.49"/>
		</g>
	</g>
	<g>
		<g>
			<defs>
				
					<rect id="SVGID_00000060751642146598132340000000596577865365113738_" x="-4.37" y="-267.43" width="1051.53" height="1072.56"/>
			</defs>
			<clipPath id="SVGID_00000088834770815164413850000012658686633699842478_">
				<use xlink:href="#SVGID_00000060751642146598132340000000596577865365113738_"  style="overflow:visible;"/>
			</clipPath>
			<g style="clip-path:url(#SVGID_00000088834770815164413850000012658686633699842478_);">
				<g>
					<defs>
						
							<rect id="SVGID_00000049210506481437659830000000428437123585249963_" x="-4.37" y="-267.43" width="1051.53" height="1051.53"/>
					</defs>
					<clipPath id="SVGID_00000165221198952942410860000009083611884958883001_">
						<use xlink:href="#SVGID_00000049210506481437659830000000428437123585249963_"  style="overflow:visible;"/>
					</clipPath>
					<g style="clip-path:url(#SVGID_00000165221198952942410860000009083611884958883001_);">
						<g>
							<defs>
								
									<rect id="SVGID_00000039092892357602362770000012403350205039873695_" x="-4.37" y="-267.43" width="1051.53" height="1051.53"/>
							</defs>
							<clipPath id="SVGID_00000116941178926737162930000008775799616598721700_">
								<use xlink:href="#SVGID_00000039092892357602362770000012403350205039873695_"  style="overflow:visible;"/>
							</clipPath>
							<g style="clip-path:url(#SVGID_00000116941178926737162930000008775799616598721700_);">
								<g>
									<defs>
										
											<rect id="SVGID_00000062872271227028610270000015064019638116733583_" x="325.61" y="34.9" transform="matrix(0.9986 -0.052 0.052 0.9986 -4.546 21.1014)" width="155.23" height="126.02"/>
									</defs>
									<clipPath id="SVGID_00000083771079223464684200000000789678990027871877_">
										<use xlink:href="#SVGID_00000062872271227028610270000015064019638116733583_"  style="overflow:visible;"/>
									</clipPath>
									<g style="clip-path:url(#SVGID_00000083771079223464684200000000789678990027871877_);">
										<g>
											<defs>
												
													<rect id="SVGID_00000072248077519185775440000003488449910268437176_" x="203.37" y="38.09" transform="matrix(0.9986 -0.052 0.052 0.9986 -13.6206 18.3754)" width="285.87" height="465.69"/>
											</defs>
											<clipPath id="SVGID_00000043445307379285389230000002144814020216340927_">
												<use xlink:href="#SVGID_00000072248077519185775440000003488449910268437176_"  style="overflow:visible;"/>
											</clipPath>
											<polygon style="clip-path:url(#SVGID_00000043445307379285389230000002144814020216340927_);fill:#0053A0;" points="
												390.08,35.49 476.97,30.97 251.7,509.03 210.54,411.86 											"/>
										</g>
									</g>
								</g>
							</g>
						</g>
					</g>
				</g>
			</g>
		</g>
	</g>
	<g>
		<g>
			<defs>
				
					<rect id="SVGID_00000096767745479637148390000001472621486994111674_" x="-4.37" y="-267.43" width="1051.53" height="1051.53"/>
			</defs>
			<clipPath id="SVGID_00000086653119299897903250000010526439399559120820_">
				<use xlink:href="#SVGID_00000096767745479637148390000001472621486994111674_"  style="overflow:visible;"/>
			</clipPath>
			
				<path style="clip-path:url(#SVGID_00000086653119299897903250000010526439399559120820_);fill:none;stroke:#FFFFFF;stroke-width:27.7032;" d="
				M1029.76,321.24h-42.63v-98.37c0-5.57-0.96-10.58-2.87-15c-1.91-4.43-4.51-8.23-7.79-11.39c-3.28-3.17-7.13-5.6-11.56-7.3
				c-4.43-1.69-9.21-2.54-14.35-2.54h-74.6v134.61h-42.63V165.16c0-2.95,0.55-5.71,1.64-8.28c1.09-2.57,2.62-4.81,4.59-6.72
				c1.97-1.91,4.26-3.42,6.89-4.51c2.62-1.09,5.41-1.64,8.36-1.64h96.08c5.36,0,11.01,0.6,16.97,1.8c5.96,1.2,11.86,3.14,17.71,5.82
				c5.85,2.68,11.42,6.07,16.72,10.17c5.3,4.1,10,9.07,14.1,14.92c4.1,5.85,7.35,12.6,9.76,20.25c2.4,7.65,3.61,16.29,3.61,25.9
				V321.24z M754.49,204.01c0-5.9-1.48-10.27-4.43-13.12c-2.95-2.84-7.21-4.26-12.79-4.26H660.7c-5.68,0-10,1.45-12.95,4.34
				c-2.95,2.9-4.43,7.13-4.43,12.71v57.71c0,5.57,1.48,9.84,4.43,12.79s7.27,4.43,12.95,4.43h76.57c5.79,0,10.11-1.48,12.95-4.43
				c2.84-2.95,4.26-7.21,4.26-12.79L754.49,204.01L754.49,204.01z M797.12,261.4c0,7.32-0.93,13.91-2.79,19.76
				s-4.32,10.99-7.38,15.41c-3.06,4.43-6.61,8.2-10.66,11.31c-4.04,3.12-8.28,5.66-12.71,7.62c-4.43,1.97-8.91,3.42-13.44,4.34
				c-4.54,0.93-8.83,1.39-12.87,1.39h-76.89c-5.9,0-12.35-1.04-19.35-3.12s-13.47-5.49-19.43-10.25s-10.93-10.93-14.92-18.53
				s-5.98-16.91-5.98-27.95v-57.71c0-10.93,1.99-20.19,5.98-27.79s8.96-13.77,14.92-18.53c5.96-4.75,12.43-8.17,19.43-10.25
				s13.44-3.12,19.35-3.12h76.89c10.93,0,20.22,1.97,27.87,5.9s13.83,8.88,18.53,14.84c4.7,5.96,8.12,12.43,10.25,19.43
				s3.2,13.5,3.2,19.51L797.12,261.4L797.12,261.4z M569.06,321.24H453.47c-5.9,0-12.35-1.04-19.35-3.12s-13.47-5.49-19.43-10.25
				c-5.96-4.75-10.93-10.93-14.92-18.53c-3.99-7.6-5.98-16.91-5.98-27.95v-57.71c0-4.04,0.46-8.31,1.39-12.79
				c0.93-4.48,2.38-8.94,4.34-13.36c1.97-4.43,4.51-8.66,7.62-12.71c3.12-4.04,6.89-7.6,11.31-10.66c4.43-3.06,9.54-5.52,15.33-7.38
				s12.35-2.79,19.67-2.79h115.59v42.63H453.47c-5.57,0-9.81,1.42-12.71,4.26s-4.34,7.21-4.34,13.12v57.38
				c0,5.57,1.48,9.84,4.43,12.79c2.95,2.95,7.27,4.43,12.95,4.43h115.26V321.24z"/>
		</g>
		<g>
			<defs>
				
					<rect id="SVGID_00000168110179936879718760000011049558030044212870_" x="-4.37" y="-267.43" width="1051.53" height="1051.53"/>
			</defs>
			<clipPath id="SVGID_00000095324762378423758320000003384736405156088486_">
				<use xlink:href="#SVGID_00000168110179936879718760000011049558030044212870_"  style="overflow:visible;"/>
			</clipPath>
			<g style="clip-path:url(#SVGID_00000095324762378423758320000003384736405156088486_);">
				<g class="st28">
					<path d="M569.06,321.24H453.47c-5.9,0-12.35-1.04-19.35-3.12c-7-2.07-13.47-5.49-19.43-10.25
						c-5.96-4.75-10.93-10.93-14.92-18.53c-3.99-7.6-5.98-16.91-5.98-27.95v-57.71c0-4.04,0.46-8.31,1.39-12.79
						c0.93-4.48,2.38-8.94,4.35-13.36c1.97-4.43,4.51-8.66,7.62-12.71c3.11-4.04,6.89-7.6,11.31-10.66
						c4.43-3.06,9.54-5.52,15.33-7.38c5.79-1.86,12.35-2.79,19.67-2.79h115.59v42.63H453.47c-5.57,0-9.81,1.42-12.71,4.26
						s-4.34,7.21-4.34,13.12v57.39c0,5.57,1.47,9.84,4.43,12.79c2.95,2.95,7.27,4.43,12.95,4.43h115.26V321.24z"/>
				</g>
				<g class="st28">
					<path d="M797.12,261.4c0,7.32-0.93,13.91-2.78,19.76c-1.86,5.85-4.32,10.98-7.38,15.41s-6.61,8.2-10.66,11.31
						c-4.05,3.12-8.28,5.66-12.71,7.62c-4.43,1.97-8.91,3.42-13.44,4.35c-4.54,0.93-8.83,1.39-12.87,1.39h-76.9
						c-5.9,0-12.35-1.04-19.35-3.12c-7-2.07-13.47-5.49-19.43-10.25c-5.96-4.75-10.93-10.93-14.92-18.53s-5.99-16.91-5.99-27.95
						v-57.71c0-10.93,1.99-20.19,5.99-27.79c3.99-7.6,8.96-13.77,14.92-18.53c5.96-4.75,12.43-8.17,19.43-10.25
						c6.99-2.07,13.45-3.11,19.35-3.11h76.9c10.93,0,20.22,1.97,27.87,5.9c7.65,3.94,13.83,8.88,18.53,14.84
						c4.7,5.96,8.12,12.43,10.25,19.43s3.2,13.5,3.2,19.51v57.72H797.12z M754.49,204.01c0-5.9-1.47-10.27-4.43-13.12
						c-2.95-2.84-7.22-4.26-12.79-4.26H660.7c-5.68,0-10,1.45-12.95,4.34c-2.95,2.9-4.43,7.13-4.43,12.71v57.71
						c0,5.57,1.48,9.84,4.43,12.79s7.27,4.43,12.95,4.43h76.57c5.79,0,10.11-1.48,12.95-4.43c2.84-2.95,4.26-7.21,4.26-12.79
						L754.49,204.01L754.49,204.01z"/>
				</g>
				<g class="st28">
					<path d="M1029.76,321.24h-42.63v-98.37c0-5.57-0.96-10.58-2.87-15c-1.91-4.43-4.51-8.22-7.79-11.39
						c-3.28-3.17-7.13-5.6-11.56-7.3c-4.43-1.69-9.21-2.54-14.35-2.54h-74.6v134.61h-42.63V165.16c0-2.95,0.54-5.71,1.64-8.28
						c1.09-2.57,2.62-4.81,4.59-6.72c1.97-1.91,4.26-3.42,6.88-4.51s5.41-1.64,8.36-1.64h96.08c5.35,0,11.01,0.6,16.97,1.8
						c5.96,1.2,11.86,3.14,17.71,5.82c5.85,2.68,11.42,6.07,16.72,10.17c5.3,4.1,10,9.07,14.1,14.92c4.1,5.85,7.35,12.6,9.75,20.25
						c2.4,7.65,3.61,16.29,3.61,25.9v98.37H1029.76z"/>
				</g>
			</g>
		</g>
		<g>
			<defs>
				
					<rect id="SVGID_00000031919448080390411540000017650802251265164194_" x="-4.37" y="-267.43" width="1051.53" height="1051.53"/>
			</defs>
			<clipPath id="SVGID_00000029766096960762472390000011975543365576046015_">
				<use xlink:href="#SVGID_00000031919448080390411540000017650802251265164194_"  style="overflow:visible;"/>
			</clipPath>
			<g style="clip-path:url(#SVGID_00000029766096960762472390000011975543365576046015_);">
				<path d="M569.06,321.24H453.47c-5.9,0-12.35-1.04-19.35-3.12c-7-2.07-13.47-5.49-19.43-10.25
					c-5.96-4.75-10.93-10.93-14.92-18.53c-3.99-7.6-5.98-16.91-5.98-27.95v-57.71c0-4.04,0.46-8.31,1.39-12.79
					c0.93-4.48,2.38-8.94,4.35-13.36c1.97-4.43,4.51-8.66,7.62-12.71c3.11-4.04,6.89-7.6,11.31-10.66
					c4.43-3.06,9.54-5.52,15.33-7.38c5.79-1.86,12.35-2.79,19.67-2.79h115.59v42.63H453.47c-5.57,0-9.81,1.42-12.71,4.26
					s-4.34,7.21-4.34,13.12v57.39c0,5.57,1.47,9.84,4.43,12.79c2.95,2.95,7.27,4.43,12.95,4.43h115.26V321.24z"/>
			</g>
		</g>
		<g>
			<defs>
				
					<rect id="SVGID_00000073701408353566570460000009285444909551986104_" x="-4.37" y="-267.43" width="1051.53" height="1051.53"/>
			</defs>
			<clipPath id="SVGID_00000044881826789593328210000005836250864601453956_">
				<use xlink:href="#SVGID_00000073701408353566570460000009285444909551986104_"  style="overflow:visible;"/>
			</clipPath>
			<g style="clip-path:url(#SVGID_00000044881826789593328210000005836250864601453956_);">
				<path d="M797.12,261.4c0,7.32-0.93,13.91-2.78,19.76c-1.86,5.85-4.32,10.98-7.38,15.41s-6.61,8.2-10.66,11.31
					c-4.05,3.12-8.28,5.66-12.71,7.62c-4.43,1.97-8.91,3.42-13.44,4.35c-4.54,0.93-8.83,1.39-12.87,1.39h-76.9
					c-5.9,0-12.35-1.04-19.35-3.12c-7-2.07-13.47-5.49-19.43-10.25c-5.96-4.75-10.93-10.93-14.92-18.53s-5.99-16.91-5.99-27.95
					v-57.71c0-10.93,1.99-20.19,5.99-27.79c3.99-7.6,8.96-13.77,14.92-18.53c5.96-4.75,12.43-8.17,19.43-10.25
					c6.99-2.07,13.45-3.11,19.35-3.11h76.9c10.93,0,20.22,1.97,27.87,5.9c7.65,3.94,13.83,8.88,18.53,14.84
					c4.7,5.96,8.12,12.43,10.25,19.43s3.2,13.5,3.2,19.51v57.72H797.12z M754.49,204.01c0-5.9-1.47-10.27-4.43-13.12
					c-2.95-2.84-7.22-4.26-12.79-4.26H660.7c-5.68,0-10,1.45-12.95,4.34c-2.95,2.9-4.43,7.13-4.43,12.71v57.71
					c0,5.57,1.48,9.84,4.43,12.79s7.27,4.43,12.95,4.43h76.57c5.79,0,10.11-1.48,12.95-4.43c2.84-2.95,4.26-7.21,4.26-12.79
					L754.49,204.01L754.49,204.01z"/>
			</g>
		</g>
		<g>
			<defs>
				
					<rect id="SVGID_00000039826032311242896640000011234869552243956405_" x="-4.37" y="-267.43" width="1051.53" height="1051.53"/>
			</defs>
			<clipPath id="SVGID_00000009572168904065983180000008291054831046634410_">
				<use xlink:href="#SVGID_00000039826032311242896640000011234869552243956405_"  style="overflow:visible;"/>
			</clipPath>
			<g style="clip-path:url(#SVGID_00000009572168904065983180000008291054831046634410_);">
				<path d="M1029.76,321.24h-42.63v-98.37c0-5.57-0.96-10.58-2.87-15c-1.91-4.43-4.51-8.22-7.79-11.39
					c-3.28-3.17-7.13-5.6-11.56-7.3c-4.43-1.69-9.21-2.54-14.35-2.54h-74.6v134.61h-42.63V165.16c0-2.95,0.54-5.71,1.64-8.28
					c1.09-2.57,2.62-4.81,4.59-6.72c1.97-1.91,4.26-3.42,6.88-4.51s5.41-1.64,8.36-1.64h96.08c5.35,0,11.01,0.6,16.97,1.8
					c5.96,1.2,11.86,3.14,17.71,5.82c5.85,2.68,11.42,6.07,16.72,10.17c5.3,4.1,10,9.07,14.1,14.92c4.1,5.85,7.35,12.6,9.75,20.25
					c2.4,7.65,3.61,16.29,3.61,25.9v98.37H1029.76z"/>
			</g>
		</g>
		<g>
			<defs>
				
					<rect id="SVGID_00000008109737560109488410000007834601314166062991_" x="-4.37" y="-267.43" width="1051.53" height="1051.53"/>
			</defs>
			<clipPath id="SVGID_00000125597216454656814290000017751234574847055767_">
				<use xlink:href="#SVGID_00000008109737560109488410000007834601314166062991_"  style="overflow:visible;"/>
			</clipPath>
			
				<path style="clip-path:url(#SVGID_00000125597216454656814290000017751234574847055767_);fill:none;stroke:#FCFCFD;stroke-width:25.3809;" d="
				M378.01,92.9l-112.2,228.53c-1.76,3.53-4.38,6.36-7.85,8.51c-3.47,2.15-7.3,3.22-11.48,3.22c-4.08,0-7.85-1.07-11.32-3.22
				c-3.47-2.15-6.14-4.98-8.01-8.51L115.11,92.9h48.08l83.28,170.69L330.09,92.9H378.01z"/>
		</g>
		<g>
			<defs>
				
					<rect id="SVGID_00000029033517210421725620000013884337782018163631_" x="-4.37" y="-267.43" width="1051.53" height="1051.53"/>
			</defs>
			<clipPath id="SVGID_00000179647379111207584130000017829164738242981561_">
				<use xlink:href="#SVGID_00000029033517210421725620000013884337782018163631_"  style="overflow:visible;"/>
			</clipPath>
			<g style="clip-path:url(#SVGID_00000179647379111207584130000017829164738242981561_);">
				<g class="st28">
					<path d="M378.01,92.9l-112.2,228.53c-1.76,3.52-4.38,6.36-7.85,8.51c-3.47,2.15-7.3,3.22-11.48,3.22
						c-4.08,0-7.85-1.07-11.32-3.22c-3.47-2.15-6.14-4.98-8.01-8.51L115.11,92.9h48.08l83.28,170.69L330.09,92.9H378.01z"/>
				</g>
			</g>
		</g>
		<g>
			<defs>
				
					<rect id="SVGID_00000170261256250984348270000008083492496560130479_" x="-4.37" y="-267.43" width="1051.53" height="1051.53"/>
			</defs>
			<clipPath id="SVGID_00000117635374386999985420000005802392448170158229_">
				<use xlink:href="#SVGID_00000170261256250984348270000008083492496560130479_"  style="overflow:visible;"/>
			</clipPath>
			<g style="clip-path:url(#SVGID_00000117635374386999985420000005802392448170158229_);">
				<path d="M378.01,92.9l-112.2,228.53c-1.76,3.52-4.38,6.36-7.85,8.51c-3.47,2.15-7.3,3.22-11.48,3.22
					c-4.08,0-7.85-1.07-11.32-3.22c-3.47-2.15-6.14-4.98-8.01-8.51L115.11,92.9h48.08l83.28,170.69L330.09,92.9H378.01z"/>
			</g>
		</g>
		<g>
			<defs>
				
					<rect id="SVGID_00000153663308784474815040000016253825374108805038_" x="-4.37" y="-267.43" width="1051.53" height="1051.53"/>
			</defs>
			<clipPath id="SVGID_00000111176230411562804810000016798024897131687335_">
				<use xlink:href="#SVGID_00000153663308784474815040000016253825374108805038_"  style="overflow:visible;"/>
			</clipPath>
			<g style="clip-path:url(#SVGID_00000111176230411562804810000016798024897131687335_);">
				<path class="st36" d="M569.49,452.34c-0.32,0-0.54,0.06-0.67,0.19c-0.12,0.12-0.19,0.35-0.19,0.67v3.41
					c0,0.37,0.08,0.62,0.25,0.77s0.51,0.28,1.02,0.39h8.37c2.17-0.03,3.79,0.54,4.87,1.7s1.61,2.75,1.61,4.76v7.1
					c0,4.15-2.07,6.22-6.22,6.22h-16.37v-6.31h14.26c0.57,0,0.85-0.28,0.85-0.86v-4.83c0-0.36-0.09-0.62-0.27-0.77s-0.51-0.28-1-0.4
					h-8.37c-2.21-0.15-3.84-0.76-4.9-1.83c-1.05-1.08-1.58-2.62-1.58-4.63v-5.67c0-4.14,2.07-6.22,6.22-6.22h16.17v6.3
					L569.49,452.34L569.49,452.34z"/>
				<path class="st36" d="M590.1,446.03h21.69v6.48h-14.21v5.71h11.38v6.39h-11.38v6.44h14.21v6.48H590.1V446.03z"/>
				<path class="st36" d="M641.77,477.54h-7.78l-5.27-12.96h-4.37v12.96h-7.47v-31.5h17.56c4.14,0,6.22,2.07,6.22,6.22V458
					c0,3.49-1.44,5.5-4.33,6.04L641.77,477.54z M624.35,458.38h7.98c0.32,0,0.54-0.06,0.67-0.19s0.19-0.35,0.19-0.67v-4.29
					c0-0.32-0.06-0.54-0.19-0.67c-0.12-0.13-0.35-0.19-0.67-0.19h-7.98V458.38z"/>
				<path class="st36" d="M671.41,446.03l-9.62,31.5h-8.59l-9.65-31.5h8.11l5.93,23.55l5.96-23.55H671.41z"/>
				<path class="st36" d="M675.06,477.54v-31.5h7.47v31.5H675.06z"/>
				<path class="st36" d="M696.59,452.51c-0.34,0-0.56,0.06-0.68,0.19c-0.12,0.12-0.18,0.35-0.18,0.67v16.83
					c0,0.57,0.28,0.86,0.85,0.86h13.16v6.48h-6.88v2.97c0,1.6-0.34,2.7-1.01,3.32c-0.67,0.61-1.74,0.92-3.21,0.92h-6.22v-3.69h4.42
					c0.32,0,0.55-0.07,0.69-0.21c0.14-0.14,0.21-0.37,0.21-0.69v-2.62h-3.3c-4.13,0-6.19-2.07-6.19-6.22v-19.07
					c0-4.14,2.08-6.22,6.24-6.22h15.25v6.48L696.59,452.51L696.59,452.51z"/>
				<path class="st36" d="M732.69,477.54h-12.11c-4.13,0-6.19-2.07-6.19-6.22v-19.07c0-4.14,2.06-6.22,6.19-6.22h12.11
					c2.11,0,3.67,0.51,4.69,1.54s1.53,2.58,1.53,4.68v19.07C738.9,475.46,736.83,477.54,732.69,477.54z M721.86,453.37v16.83
					c0,0.57,0.28,0.86,0.85,0.86h7.87c0.34,0,0.56-0.06,0.68-0.18c0.11-0.12,0.18-0.35,0.18-0.68v-16.83c0-0.32-0.06-0.55-0.18-0.67
					c-0.12-0.13-0.35-0.19-0.68-0.19h-7.87c-0.34,0-0.56,0.06-0.68,0.19C721.91,452.82,721.86,453.05,721.86,453.37z"/>
				<path class="st36" d="M752.09,452.34c-0.32,0-0.54,0.06-0.67,0.19c-0.12,0.12-0.19,0.35-0.19,0.67v3.41
					c0,0.37,0.08,0.62,0.25,0.77s0.51,0.28,1.02,0.39h8.37c2.17-0.03,3.79,0.54,4.87,1.7s1.61,2.75,1.61,4.76v7.1
					c0,4.15-2.07,6.22-6.22,6.22h-16.37v-6.31h14.26c0.57,0,0.85-0.28,0.85-0.86v-4.83c0-0.36-0.09-0.62-0.27-0.77s-0.51-0.28-1-0.4
					h-8.37c-2.21-0.15-3.84-0.76-4.9-1.83c-1.05-1.08-1.58-2.62-1.58-4.63v-5.67c0-4.14,2.07-6.22,6.22-6.22h16.17v6.3
					L752.09,452.34L752.09,452.34z"/>
				<path class="st36" d="M801.76,477.54c-4.13,0-6.19-2.07-6.19-6.22v-19.07c0-4.14,2.08-6.22,6.24-6.22h15.4v6.48h-13.32
					c-0.34,0-0.56,0.06-0.68,0.19c-0.12,0.12-0.18,0.35-0.18,0.67v16.83c0,0.57,0.28,0.86,0.85,0.86h13.32v6.48H801.76z"/>
				<path class="st36" d="M840.3,477.54h-12.11c-4.13,0-6.19-2.07-6.19-6.22v-19.07c0-4.14,2.06-6.22,6.19-6.22h12.11
					c2.11,0,3.67,0.51,4.69,1.54s1.53,2.58,1.53,4.68v19.07C846.52,475.46,844.44,477.54,840.3,477.54z M829.47,453.37v16.83
					c0,0.57,0.28,0.86,0.85,0.86h7.87c0.34,0,0.56-0.06,0.68-0.18c0.11-0.12,0.18-0.35,0.18-0.68v-16.83c0-0.32-0.06-0.55-0.18-0.67
					c-0.12-0.13-0.35-0.19-0.68-0.19h-7.87c-0.34,0-0.56,0.06-0.68,0.19C829.52,452.82,829.47,453.05,829.47,453.37z"/>
				<path class="st36" d="M870.95,446.03h7.25v31.5h-6.92L859.48,458v19.53h-7.25v-31.5h7.6l11.12,18.5L870.95,446.03L870.95,446.03
					z"/>
				<path class="st36" d="M906.16,452.56h-8.17v24.98h-7.47v-24.98h-8.24v-6.53h23.88L906.16,452.56L906.16,452.56z"/>
				<path class="st36" d="M927.15,470.88h-10.02l-1.8,6.66h-7.76l9.56-31.5h10.3l9.58,31.5h-8.06L927.15,470.88z M924.4,443.07
					h-5.89l4.04-6.48h8.92L924.4,443.07z M925.43,464.53l-3.27-12.33l-3.34,12.33H925.43z"/>
				<path class="st36" d="M940.55,477.54v-31.5h17.56c4.14,0,6.22,2.07,6.22,6.22v6.11c0,1.16-0.9,2.15-2.7,2.99
					c1.8,0.84,2.7,1.83,2.7,2.99v7.01c0,4.13-2.07,6.2-6.22,6.2h-17.56V477.54z M948.02,452.47v5.65H956c0.32,0,0.54-0.06,0.67-0.18
					c0.13-0.11,0.19-0.34,0.19-0.68v-3.94c0-0.32-0.06-0.54-0.19-0.67c-0.12-0.13-0.35-0.19-0.67-0.19h-7.98V452.47z M948.02,464.55
					v6.55H956c0.32,0,0.54-0.06,0.67-0.18s0.19-0.35,0.19-0.68v-4.83c0-0.32-0.06-0.54-0.19-0.67c-0.12-0.12-0.35-0.19-0.67-0.19
					H948.02z"/>
				<path class="st36" d="M968.89,446.03h21.69v6.48h-14.21v5.71h11.38v6.39h-11.38v6.44h14.21v6.48h-21.69V446.03z"/>
				<path class="st36" d="M995.67,477.54v-31.5h7.47v31.5H995.67z"/>
				<path class="st36" d="M1016.92,452.34c-0.32,0-0.54,0.06-0.67,0.19c-0.12,0.12-0.19,0.35-0.19,0.67v3.41
					c0,0.37,0.08,0.62,0.25,0.77s0.51,0.28,1.02,0.39h8.37c2.17-0.03,3.79,0.54,4.87,1.7s1.61,2.75,1.61,4.76v7.1
					c0,4.15-2.07,6.22-6.22,6.22h-16.37v-6.31h14.26c0.57,0,0.85-0.28,0.85-0.86v-4.83c0-0.36-0.09-0.62-0.27-0.77s-0.51-0.28-1-0.4
					h-8.37c-2.21-0.15-3.84-0.76-4.9-1.83s-1.58-2.62-1.58-4.63v-5.67c0-4.14,2.07-6.22,6.22-6.22h16.17v6.3L1016.92,452.34
					L1016.92,452.34z"/>
			</g>
		</g>
	</g>
</g>
</svg>
