<?xml version="1.0" encoding="utf-8"?>
<!-- Generator: Adobe Illustrator 27.9.0, SVG Export Plug-In . SVG Version: 6.00 Build 0)  -->
<svg version="1.1" id="Camada_1" xmlns="http://www.w3.org/2000/svg" xmlns:xlink="http://www.w3.org/1999/xlink" x="0px" y="0px"
	 viewBox="0 0 1544 1080" style="enable-background:new 0 0 1544 1080;" xml:space="preserve">
<style type="text/css">
	.st0{fill:#000302;}
	.st1{fill:#010303;}
	.st2{fill:#010302;}
	.st3{fill:#0A0505;}
	.st4{fill:#0C0903;}
	.st5{fill:#0B0803;}
	.st6{fill:#110B04;}
	.st7{fill:#151008;}
	.st8{fill:#060204;}
	.st9{fill:#191205;}
	.st10{fill:#020304;}
	.st11{fill:#020403;}
	.st12{fill:#080603;}
	.st13{fill:#0D0804;}
	.st14{fill:#0E0804;}
	.st15{fill:#0B0703;}
	.st16{fill:#0C0704;}
	.st17{fill:#0B0602;}
</style>
<g>
	<g>
		<path class="st0" d="M675.8,292.4c-30.9-27.9-55.1-58.4-70.1-95.8c-1.1-2.6-1.1-5.2-0.1-8c19.2-56.9,46.9-108.3,96.4-144.9
			C758.1,2.3,826.7,5,880.3,49.6c35.7,29.7,60.7,67.1,77.5,109.8c42.5,108.1,45,217.8,9.6,328.3c-9.6,30.2-23.5,58.5-41.4,84.7
			c-1.9,2.8-4.2,5.4-7.4,9.5c-2-13.5-3.5-25.4-5.6-37.3c-4-22.8-10.7-44.7-21.2-65.3c-3.9-7.6-4.2-14.8-2.8-22.8
			c16.7-100.8,14.4-200.9-13.4-299.6c-9-31.9-21.7-62.3-43.4-87.9c-27-31.9-59.8-32.4-88-1.7c-4.8,5.3-9.2,11.1-13.2,17
			c-19,28.7-29.8,60.9-38,93.9c-8,32-13,64.5-15.2,97.4C677.3,280.7,676.5,285.7,675.8,292.4z"/>
		<path class="st1" d="M907.5,619.7c-5.2-11.7-9.9-23.4-16.7-34.1c-18.6-29.2-46-46.4-77.6-58.1c-37.8-14-77.6-20.2-116.2-31
			c-30.2-8.5-59.6-18.8-84.2-39.4c-53.2-44.6-77.5-135.2-53.2-199.4c0.5-1.2,1.3-2.3,3.5-6.1c-3.1,21.3-3.7,39.8,1,57.9
			c19.2,74,69.7,116.5,140.4,137.9c16.4,4.9,33.5,7.2,50.1,11.4c47,12,90.4,30.4,122,69.8c-4.6-18.9-16.5-33.1-29.7-46.3
			c-26.7-26.7-59.3-45.3-91.1-65c-35.3-21.8-70.8-43.3-102.3-70.7c-45.3-39.5-77.7-87-87.5-147.3c-8.2-50.1,2.6-96.6,30.6-139.1
			c-2.7,15.1-7.3,29.9-9.6,45.1c-9.3,62.3,8.3,116.6,48.4,164.3c34.3,40.6,77.4,70.5,121,99.8c21.9,14.7,43.7,29.6,65.5,44.5
			c38.5,26.2,60.1,64.2,74,107.2C906.4,553.1,911.4,585.9,907.5,619.7z"/>
		<path class="st2" d="M600.7,462.2c26.2,24.1,57.7,36.1,90.6,45.1c4.9,1.3,6.2,4.5,7.5,8.6c9.2,29.2,19.8,57.7,39,82.2
			c2.1,2.7,4.3,5.4,6.6,7.9c27.6,29.1,57.9,29.1,85.4-0.1c9.7-10.3,17.2-22.2,23.6-34.8c2.7-5.3,4.8-5.5,8.9-1.7
			c10.8,10.2,20,21.5,27.5,34.4c3.2,5.6,2.2,8.7-2.4,13c-55,51.6-131,55.1-190.4,8.3c-42.6-33.6-68.4-78.7-87-128.6
			c-3.7-9.9-6.7-20.2-9.9-30.3C599.9,465.3,600.4,464.2,600.7,462.2z"/>
	</g>
	<path class="st3" d="M465.7,1039.5c0,6.5-0.1,13,0,19.4c0.1,3.8-1.5,5.7-5.4,5.8c-4.1,0-5.3-2.1-5.3-5.8c0.1-11.6,0-23.3,0-34.9
		c0-2.7-0.4-5.8,3.2-6.7c3.3-0.9,5.9,0.1,8.1,2.9c6.3,7.9,12.9,15.6,21.5,22.8c0-6.3,0-12.7,0-19c0-3.7,0.4-6.9,5.3-7.1
		c4.9-0.1,5.4,2.9,5.4,6.7c-0.1,11.3,0,22.6-0.1,33.9c0,2.7,0.6,5.8-2.9,6.9c-3.6,1.1-6.5,0-9-3.1c-6.1-7.7-12.5-15.2-18.8-22.7
		C467.1,1038.9,466.4,1039.2,465.7,1039.5z"/>
	<path class="st4" d="M1223.6,1040.3c0-23.8,0-23.8,23.9-23.6c2.1,0,4.1,0,6.2,0.1c3,0.1,5.4,0.9,5.5,4.6c0,3.8-2.3,4.5-5.4,4.5
		c-4.8,0-9.6,0.1-14.4,0.1c-3.3,0-5,1.4-5,4.9c0,3.4,1.4,5.2,4.8,5.2c4.5,0.1,8.9,0.1,13.4,0.2c2.2,0.1,4,0.9,4.1,3.6
		c0.1,2.9-1,4.7-4,4.8c-4.1,0.1-8.2,0.2-12.4,0.1c-3.6-0.1-5.9,0.9-5.8,5.2c0,3.9,1.6,5.7,5.5,5.6c4.8,0,9.6,0.1,14.4,0.1
		c3.4,0,6.3,0.5,6.1,4.9c-0.2,3.7-2.8,4.3-5.7,4.3c-2.1,0-4.1,0-6.2,0C1223.6,1064.9,1223.6,1064.9,1223.6,1040.3z"/>
	<path class="st5" d="M309.5,1065.5c-12.8,0.1-22.1-5.7-25.8-14.8c-4-9.8-1.5-21.7,6.1-28.4c7.9-7,20.7-8.6,29.8-3.5
		c2.6,1.5,7.5,2.6,5.2,7.2c-2,3.8-5.1,3.8-9.5,1.7c-10.1-4.8-18.8-1.1-21.7,8.1c-2.6,8.4,1.9,17.1,10.2,19.6c4.6,1.4,9,0.4,12.7-2.2
		c3.5-2.5,5.7-1.1,7.8,1.6c3.2,4-0.9,5.5-3.1,7C317.2,1064.7,312.5,1065.8,309.5,1065.5z"/>
	<path class="st6" d="M557,1016.8c5.1,0,10.3-0.1,15.4,0c3.2,0.1,5,1.7,4.8,5.2c-0.2,3.2-2.4,4.2-4.9,3.8
		c-9.9-1.4-10.2,4.6-9.8,11.8c0.4,6.8,0,13.7,0.1,20.5c0,3.8-0.4,6.6-5.4,6.7c-5.5,0.1-5.9-2.9-5.8-7.2c0.2-6.5-0.5-13-0.2-19.5
		c0.3-7.5,0.2-14-10.3-12.4c-2.7,0.4-4.5-1.2-4.5-4.2c0-3,1.5-4.6,4.3-4.7C546,1016.7,551.5,1016.8,557,1016.8
		C557,1016.8,557,1016.8,557,1016.8z"/>
	<path class="st7" d="M836.6,1040.7c0-6.1,0.1-12.3,0-18.4c-0.1-3.8,1.5-5.7,5.4-5.6c3.8,0.1,5.5,1.9,5.5,5.7
		c-0.1,7.5,0.5,15.1-0.1,22.5c-0.7,8.6,2.5,11.5,11,11c4.3-0.2,12.3-3.5,12.5,4c0.3,8.9-8.2,4.8-12.7,4.9
		C836.6,1065.3,836.6,1065,836.6,1040.7z"/>
	<path class="st8" d="M792.7,1040.8c0,6.1,0,12.3,0,18.4c0,3.8-1.7,5.6-5.6,5.5c-3.8,0-5.6-1.6-5.6-5.5c0.1-12.3,0.1-24.6,0-36.8
		c0-3.9,1.9-5.5,5.6-5.5c3.8,0,5.6,1.7,5.6,5.5C792.7,1028.5,792.7,1034.6,792.7,1040.8z"/>
	<path class="st9" d="M920.8,1041.4c0,5.8-0.1,11.6,0,17.4c0.1,4.3-1.7,6.2-6.1,6.2c-4-0.1-5.4-2.1-5.4-5.8c0-12.3,0-24.5,0-36.8
		c0-3.8,1.8-5.6,5.6-5.7c4.4-0.1,6,2.2,6,6.3C920.8,1029.1,920.8,1035.2,920.8,1041.4z"/>
	<g>
		<path class="st10" d="M1228.8,958.1c-27.1,0-54.2,0.1-81.3-0.1c-3.1,0-8.3,1.9-8.7-2.7c-0.5-5.4,4.9-3.2,7.8-3.5
			c18.8-1.6,25.2-7.5,25.4-26.6c0.4-57,0.4-113.9-0.1-170.9c-0.2-20.2-5.1-24.3-26.1-26.3c-2.7-0.3-7.3,1.4-7.2-3.3
			c0.1-4.6,4.6-3,7.4-3c55.6-0.1,111.2,0,166.8-0.1c4.4,0,8,0,8.1,6.2c0.2,12.7,1.2,25.4,1.8,38c0.1,2.5,1.2,6.1-2.5,6.9
			c-4.3,0.9-4.6-2.8-5.4-5.9c-1.8-7.3-3.3-14.8-8.1-20.9c-4.9-6.2-11.5-9.5-19.4-10.2c-25-2.3-50.1-1-75.1-1.3
			c-4.8-0.1-6.7,1.8-6.7,6.7c0.2,26.8,0.1,53.5,0.1,80.3c0,3.7,0.3,7,5.3,6.9c19.5-0.3,39.2,0.4,58.6-1.2
			c15.8-1.2,21.4-8.5,24.5-25.6c0.5-2.8-0.5-7.3,4-7c4.3,0.4,2.8,4.8,2.9,7.6c0.1,22,0.1,43.9,0,65.9c0,2.5,1.1,6.3-2.6,6.9
			c-4.9,0.8-3.7-3.8-4.3-6.4c-5-21.8-11.7-27.4-33.9-27.6c-15.1-0.1-30.2,0.2-45.3-0.2c-6.3-0.1-9.3,1.2-9.2,8.4
			c0.4,26.8,0.2,53.5,0.5,80.3c0.1,10.8,4.2,15.3,14.9,15.6c20.6,0.5,41.1,0.8,61.7-0.6c18.4-1.2,30.1-11.8,39.7-26
			c3.6-5.4,6.8-11.1,10.2-16.6c1.1-1.8,2.9-3.3,5.1-2.6c2.8,0.9,1.9,3.3,1.3,5.1c-5.5,16.2-11.3,32.3-16.7,48.6
			c-1.8,5.4-5.7,5-9.8,5C1284.4,958.1,1256.6,958.2,1228.8,958.1z"/>
		<path class="st11" d="M1373.7,923.3c0-10.3-0.2-20.6,0.1-30.9c0.1-3.3-2.3-8.7,3.1-9.3c4.8-0.5,3.4,5,4.5,7.9
			c1.2,3.2,1.7,6.6,2.7,9.9c10.4,36.4,46.1,56.7,82.7,46.9c14.6-3.9,25-12.8,29-27.7c4-15.1-1.5-27.6-12.5-37.9
			c-11.4-10.7-25.6-17.1-38.8-25c-15.4-9.1-31.2-17.3-45.4-28.2c-24.3-18.6-33-43-24.6-68.6c8.3-25.5,32.7-42.6,61.4-43.6
			c16.2-0.6,31.2,3.3,45.9,9.6c13.6,5.9,15.1,5.2,24.1-6.9c1.1-1.5,2.2-2.6,4.1-2.3c2.1,0.3,2.5,2.2,2.5,3.9c0,24,0,48,0,72.1
			c0,2,0,4.3-3,4.4c-2.8,0.1-3.2-2-3.8-4c-2.2-8.6-3.7-17.4-7.3-25.7c-11-25.8-39.8-41.8-67.1-36.4c-15.7,3.1-27,12.2-31.2,27.9
			c-3.9,14.8,3.1,26,14.4,34.8c21.7,17,47,28.2,70.4,42.3c10.3,6.2,20.4,12.8,28.3,22c30.6,35.9,11.4,91-35.6,101.9
			c-18.3,4.3-36.6,4.4-54.8-1.7c-7.1-2.4-14.4-4.4-21.7-6.4c-9-2.5-18-4.9-20.8,8.3c-0.4,2-2,2.7-3.9,2.4c-2.7-0.5-2.7-2.8-2.7-4.8
			C1373.7,946.6,1373.7,934.9,1373.7,923.3z"/>
		<path class="st11" d="M462.4,818.5c0-21.3,0.3-42.6-0.1-63.8c-0.3-19.1-6-24.7-25.2-26.6c-2.9-0.3-8.1,1.8-7.6-3.7
			c0.4-4.2,5-2.5,7.7-2.5c22.3-0.1,44.6-0.1,66.9,0c2.7,0,7.2-1.3,7,3.5c-0.2,3.9-4.2,2.5-6.6,2.8c-18.6,2.5-25.7,10.2-25.8,29.3
			c-0.3,34-0.2,67.9-0.1,101.9c0,12-0.7,24-2.2,35.9c-4.4,34.9-25.7,58.2-60.2,65.5c-22.2,4.7-44.4,4.2-66.2-1.4
			c-29.1-7.6-49.7-31.6-52.9-61.5c-4.3-40.7-1.4-81.6-2.2-122.4c-0.2-7.9,0.3-15.8-0.6-23.6c-1.8-17.3-7.6-22.3-25.1-23.6
			c-3-0.2-8.2,1.7-8.2-3.2c0-5,5.3-3.1,8.3-3.1c28.5-0.2,57-0.2,85.4,0c2.7,0,7.2-1.5,7.4,3c0.2,4.8-4.4,3-7.1,3.3
			c-19.8,2.3-26.3,7.8-26.4,27c-0.1,45.6-2.5,91.3,1.5,136.8c2.7,31.6,14.7,48.3,40.1,54.4c25.2,6.1,49.2,1.9,70.4-13.7
			c16.8-12.4,20.9-30.8,21.4-50.2c0.6-21.3,0.1-42.5,0.1-63.8C462.1,818.5,462.2,818.5,462.4,818.5z"/>
		<path class="st11" d="M1014.8,909.9c9-22,17-41.5,25-61.1c11.9-29.6,24.2-59,35.5-88.8c7.2-19,3.8-24.6-16-30.3
			c-2.8-0.8-5.6-1.4-5.2-5c0.3-3.4,3.3-2.9,5.6-2.9c20.2,0,40.5-0.1,60.7,0c2.2,0,5.2-0.7,5.8,2.6c0.6,2.9-1.2,4.3-4,4.9
			c-16.1,3.4-23.4,15.9-29.2,29.4c-11,25.8-21.5,51.9-32.2,77.9c-16,39-31.8,78.1-48,117.1c-1.5,3.7-1.6,9.7-7.8,9.3
			c-5.3-0.3-5.4-5.7-6.9-9.2c-28.2-64.7-56.4-129.4-84.3-194.3c-6.6-15.4-13.9-29.4-33.4-30.4c-2.3-0.1-3.9-1.2-4-3.8
			c-0.2-3.6,2.5-3.5,4.9-3.5c28.8,0,57.6,0,86.4,0.1c2,0,4.3-0.1,4.6,2.9c0.2,2.7-1.7,3.5-3.7,4.1c-1,0.3-2,0.4-3,0.6
			c-19.1,4.3-23.2,10.4-15.7,29c15.9,39,33,77.6,49.7,116.3C1004.3,885.7,1009.1,896.6,1014.8,909.9z"/>
		<path class="st11" d="M812.8,958.1c-14.4,0-28.8,0-43.2,0c-2.5,0-6.3,0.7-5.9-3.5c0.3-3.4,3.6-2.3,5.8-2.6
			c22.5-2.5,27.3-7.1,27.5-29.7c0.3-54.5,0.3-109.1,0-163.6c-0.2-23.8-4.2-27.7-27.6-30.5c-2.2-0.3-5.5,0.5-5.7-2.8
			c-0.4-4.3,3.4-3.5,5.9-3.5c29.5-0.1,59-0.1,88.5,0c2.2,0,5.4-0.6,5.5,2.9c0.1,3.4-2.9,3.2-5.2,3.4c-3.4,0.4-6.9,0.5-10.2,1.2
			c-9.2,2-15.5,7-16.5,17c-0.5,4.4-1,8.9-1,13.3c-0.1,53.8-0.1,107.7,0,161.5c0.1,23.5,4,27.7,27.5,30.7c2.2,0.3,5.5-0.5,5.4,3
			c-0.2,4.1-3.9,3.1-6.4,3.1c-7.5,0.2-15.1,0.1-22.6,0.1C827.2,958.2,820,958.2,812.8,958.1C812.8,958.1,812.8,958.1,812.8,958.1z"
			/>
		<path class="st10" d="M722.5,951.9c-17.2-1.6-23.9-6.8-24.5-24.1c-1.8-58-1.7-116-0.1-174c0.6-20.2,5.6-23.7,25.9-25.7
			c2.8-0.3,7.3,1.2,7-3.5c-0.3-4.4-4.8-2.8-7.6-2.8c-16.5-0.2-33-0.1-49.4-0.1c0,0,0,0.1,0,0.1c-12.7,0-25.4-0.3-38.1,0.1
			c-17.5,0.6-35,1.1-51.6,7.7c-29.6,11.8-44.6,44-33.5,73.4c8,21.1,25.1,32,45.9,37.6c7.2,1.9,8.2,3.7,3.6,9.9
			c-15.3,20.7-30,41.8-45.1,62.6c-13.3,18.3-27.8,35.2-52.6,37.7c-2.5,0.2-6,0.8-5.4,4.7c0.6,3.2,3.7,2.5,5.9,2.5
			c15.8,0.1,31.6-0.2,47.4,0.2c6.6,0.2,10.8-2.1,14.5-7.5c21.5-30.2,43.7-59.8,64.7-90.3c6.9-10,14.2-14.2,26.2-12.9
			c6,0.7,8.4,1.7,8.3,8.2c-0.4,23,0.1,46-0.3,69c-0.3,19.9-5.8,25.4-25.6,27.2c-2.7,0.2-7.4-1.4-7.1,3.3c0.3,4.2,4.9,2.8,7.7,2.8
			c27.8,0.1,55.6,0.2,83.4,0c3.1,0,8.3,1.8,8.5-2.9C730.8,950.1,725.4,952.2,722.5,951.9z M663.8,787.7
			C663.8,787.7,663.8,787.7,663.8,787.7c0,14,0,28.1-0.1,42.1c0,3.4,0.5,7-4.9,7c-19.8,0.2-39.1-1.2-55.4-14.4
			c-16-13-21.6-35.2-14.4-56c6.6-18.8,23-30.4,44-30.9c30.7-0.8,30.7-0.8,30.7,29.6C663.8,772.6,663.8,780.1,663.8,787.7z"/>
		<path class="st2" d="M244.6,835.2c-0.4-5-0.5-10.8-1.4-16.6c-6.7-43.7-29.8-76.4-70.4-93.3c-41.5-17.3-81.7-10.7-116.6,18.5
			C19.1,774.9,8.9,816.1,15,862.5c9,68.6,72.1,112.9,139.5,98.1C208,948.9,247.1,894.8,244.6,835.2z M191.6,911.9
			c-13.2,24.9-33.8,38.7-62.9,39.1c-28.4,0.4-47.2-13.8-60-37.7c-6-11.3-10.1-23.3-12.1-35.9c-5.4-33.3-5.6-66.4,5.9-98.6
			c17.7-49.9,74.9-66.5,112-32.4c17.3,15.9,23.7,37.3,27.5,59.6c2.1,12.5,2.7,25.2,2.5,35.4C204.8,867.4,202.9,890.7,191.6,911.9z"
			/>
	</g>
	<path class="st12" d="M741,1052.4c-1.9-8.7-5-16.8-2.6-25.9c0.7-2.7-2.4-5.5-5.4-6.8c-10.5-4.6-22.2-5.2-32-1.4
		c-6.3,2.4-1.7,13.1-2.7,19.9c-0.1,0.7,0,1.4,0,2.1c0,0,0.1,0,0.1,0c0,6.2,0,12.3,0,18.5c0,3.5,0.9,6.1,5,6c9.2-0.2,18.5,1,27.6-1.2
		C737,1062.1,742.2,1058.1,741,1052.4z M708.9,1030.5c0.4-6.8,5.6-4.4,9.1-4.6c3.9-0.2,9.5-0.7,9.3,4.8c-0.3,7-7,4.3-10.4,5.3
		C712.2,1036.3,708.6,1036.1,708.9,1030.5z M719.3,1055.9c-4.6-0.8-10.2,1.9-10.4-5.6c-0.2-7.5,5.4-5.6,9.3-5.5
		c4.7,0.1,11.8-1.8,11.7,5.9C729.7,1057.9,722.6,1054.4,719.3,1055.9z"/>
	<path class="st13" d="M1182.9,1035.9c-2.2-14.5-16.5-21.7-40.2-19c-14.1,1.6-4.1,13.2-7,19.6c-0.5,1.1-0.1,2.7-0.1,4.1
		c0,5.8,0.1,11.7,0,17.5c-0.1,3.9,0.8,6.8,5.5,6.8c7.9-0.1,15.8,0.8,23.6-1.1C1178.5,1060.3,1185.1,1050.1,1182.9,1035.9z
		 M1156.2,1055.8c-13.9,0.8-7.4-9.7-9.3-15.5c1.8-5.4-4.4-14.9,8.3-14.4c11,0.4,17,5,17.1,14.4
		C1172.4,1050.3,1166.9,1055.2,1156.2,1055.8z"/>
	<path class="st14" d="M1011,1037.1c-2.4-15.3-16.9-22.9-40.2-20.2c-13.9,1.6-4.4,13.1-7.2,19.6c-0.5,1.2-0.1,2.7-0.1,4.1
		c0,5.8,0,11.6,0,17.4c0,3.8,0.6,6.9,5.4,6.8c7.8-0.1,15.7,1,23.5-1C1005.4,1060.3,1013,1049.6,1011,1037.1z M983.3,1055.8
		c-13.5,0.9-7.2-9.1-9.1-14.9c2.3-5.4-4.8-15.6,8.7-15.1c11.4,0.5,16.8,4.8,16.8,14.7C999.7,1050.7,994.4,1055.1,983.3,1055.8z"/>
	<path class="st15" d="M389.3,1016c-14.6-0.1-26,10.6-26.2,24.6c-0.2,14.1,11,25,25.6,25c15,0,25.9-10.2,26-24.5
		C414.9,1026.8,404,1016,389.3,1016z M389.3,1055.8c-8.8,0.2-14.7-5.8-14.8-14.8c-0.1-9.2,5.5-15.2,14.3-15.1c8.7,0,14.9,6,15,14.8
		C404,1049.3,397.9,1055.6,389.3,1055.8z"/>
	<path class="st16" d="M656.9,1056.9c-4.7-11.4-9.9-22.5-14.9-33.8c-1.6-3.6-3.3-6.5-8.1-6.3c-4.6,0.2-6.6,3-8.2,6.6
		c-5.3,11.9-10.5,23.8-15.9,35.6c-2.2,4.7-0.8,6.3,4,5.9c2.6,0,4.5-0.8,6.1-3.1c7.8-11.3,19.8-11.3,28.1,0.2
		c2.6,3.5,6.1,3.7,9.1,2.6C661.9,1062.5,657.8,1059.1,656.9,1056.9z M638.5,1044.3c-1.4,2.2-8.1,2.2-9.2,0.1
		c-3-5.4,1.7-9.7,5.3-16.4C636.3,1035.4,641.6,1039.4,638.5,1044.3z"/>
	<path class="st17" d="M1096,1060.1c-5.3-11.9-10.8-24.4-16.3-36.9c-1.6-3.7-3.3-6.5-8-6.5c-4.7,0-6.5,2.6-8.2,6.3
		c-4.9,11.3-10.2,22.4-15,33.8c-1,2.3-4.5,5.8,0.4,7.6c3.2,1.2,6.7,0.7,8.6-3.4c1.3-2.9,1.6-7.4,6.3-6.9c7.9,0.8,18.4-5.1,22.1,8
		c1.1,3.8,5,2.8,8,2.5C1096,1064.3,1096.7,1062.8,1096,1060.1z M1076.4,1044.1c-1.2,2.5-7.7,2.4-9.3,0.3c-3.6-4.9,2-8.8,3.6-15.9
		C1074.6,1035,1078.8,1039.2,1076.4,1044.1z"/>
</g>
</svg>
