<?xml version="1.0" encoding="utf-8"?>
<!-- Generator: Adobe Illustrator 27.9.0, SVG Export Plug-In . SVG Version: 6.00 Build 0)  -->
<svg version="1.1" id="Layer_1" xmlns="http://www.w3.org/2000/svg" xmlns:xlink="http://www.w3.org/1999/xlink" x="0px" y="0px"
	 viewBox="0 0 5442.5 3546.5" style="enable-background:new 0 0 5442.5 3546.5;" xml:space="preserve">
<style type="text/css">
	.st0{fill:#FFFFFF;}
	.st1{fill:#AD853A;}
	.st2{fill:#D1AE4A;}
	.st3{fill:#CC9C40;}
	.st4{fill:#D6B15A;}
	.st5{fill:#D7B962;}
	.st6{fill:#C19748;}
	.st7{fill:#E4D39F;}
	.st8{fill:#BA9B61;}
	.st9{fill:#DBC376;}
	.st10{fill:#CCB285;}
	.st11{fill:#EEE2C1;}
	.st12{fill:#111111;}
	.st13{fill:url(#SVGID_1_);}
	.st14{fill:url(#SVGID_00000084526373654898457860000000791821241897044377_);}
	.st15{font-family:'Montserrat-ExtraBold';}
	.st16{font-size:262.1841px;}
</style>
<g>
	<path class="st0" d="M3322.4,732.7c-5.4-18.8,11-26.9,20.1-37.3c46.4-53.4,102.7-94.4,165.1-127.6c38.8-20.6,79-38.8,114.5-65.1
		c12-8.9,23.5-18.6,20.7-35.8c-3-18.6-17.7-25.7-33.6-29c-19.8-4.1-40.1-8.1-60.2-8.3c-329.2-2.8-653.4,30.4-966.4,139.8
		c-93,32.5-181.4,74.9-258.9,136.9c-31.1,24.8-58.7,53-77.1,88.8c-41.4,80.6-14.4,151.2,70.8,181.2
		c108.5,38.3,220.6,64.4,331.5,94.5c217.2,58.8,428,134,624.2,246c60.9,34.8,118.2,74.8,169.4,123.2
		c120.8,114.4,149,250.5,92.2,404.7c-58.5,158.9-175.6,265.1-320,344.1c-138.2,75.6-290.2,110.8-442.8,141.2
		c-278.1,55.4-558.9,77-842.2,55.7c-118.4-8.9-235.5-25.4-347.7-67.3c-36.2-13.5-70.2-31-98.6-57.7c-38.1-35.8-51.8-79.3-34.7-129.1
		c26.6-77.5,65.2-148.8,121.3-209.1c73.3-78.9,170-92.8,269.5-97.8c1.1,2.7,2.2,5.5,3.2,8.2c-21.1,8.1-42.2,16.3-63.4,24.3
		c-16.8,6.4-34.4,11.6-48.6,23.2c-25.7,21.2-21.9,51.2,8.9,64c34.9,14.5,72.6,17.4,109.6,19.2c311.8,14.8,623.3,14.7,932.8-32.4
		c200.3-30.5,385.5-100.7,547.4-225.9c37.1-28.7,38.1-30.7,10.9-70c-79.6-115.2-194.4-182.2-321.1-232.6
		c-119.4-47.5-246.1-64.2-371.2-88.1c-205.4-39.1-399.6-110.2-581.3-213.7c-57.6-32.8-91.7-85.2-90.6-152.5
		c2.6-158.1,40.8-307.7,115.9-447.4c62-115.2,160.6-190.5,274.5-247.8c223.1-112.2,461.1-174.4,707.9-205
		c197.8-24.5,396.3-29.3,595.1-14.2c78.9,6,157.2,16.6,232.2,43.4c80.9,29,97.4,55.3,93.3,141c-2.1,43.1-7.3,85.7-22.4,126.1
		c-24.5,65.6-61.7,119.8-132,144.7c-43.5,15.4-85.3,35.6-128.8,51c-120.8,42.5-234.6,98.7-342.2,167.8
		c-14.9,9.5-28.4,22.3-47.3,24.2L3322.4,732.7z"/>
	<path class="st0" d="M434.8,2821.5c0,8.7-0.2,17.4,0,26c0.8,37.1,18.3,63.3,50.5,71c28.9,6.9,56.5,4.5,75.2-23.4
		c17.7-26.3,14.3-54.5-12-86.1c-16.5-19.9-35.3-38-52.9-57c-36.9-40.1-43.2-77-19.4-112.5c23.3-34.7,69.3-48.5,114.7-32.6
		c23.4,8.2,45.7,20.6,70.2-11.3c-5.2,44.5-14.2,79.2-25.3,115.3c-12.3-10.3-6-21.3-7.4-30.7c-6.5-43.3-44.3-68.5-86.5-56.7
		c-34.5,9.6-47.8,48-24.4,78.3c19.2,24.8,43,46.1,64.3,69.3c40.2,43.6,46.7,80.6,22.1,121.8c-23.8,39.8-73.7,57.5-124.5,43.9
		c-6.5-1.7-13.2-3.3-19.2-6.1c-21.1-9.6-40.7-12.1-57.5,10.9C406.2,2899.4,415.9,2860.1,434.8,2821.5z"/>
	<path class="st0" d="M954.2,3036.1c-45.7,0-82.2,0-118.6,0c39-8.5,41.4-41.8,49.8-71c17.9-62.6,35.2-125.4,54.6-187.6
		c8.6-27.6,6.6-44.2-29.5-43.4c24-12.5,49.7-17.2,73.6-15.2c20.5,1.8-1.6,21.5,6.2,32.8c15.2-9.7,30-21.8,46.9-29.2
		c41.4-18.4,78.2,4.5,82.1,49.2c5.9,67.4-61,155.2-127.5,167.2c-5.5,1-11.2,0.7-16.8,1.6c-14.5,2.3-33.9-15.7-40.2-4.5
		c-12.2,22-18.5,48.5-21.6,73.8C910.5,3029.9,934,3024.6,954.2,3036.1z M1075.1,2783.1c-0.3-15.4,0.4-32-16.1-41.1
		c-18.2-10.1-32.6,0.8-46,11c-15.5,11.7-26.4,27.5-35.7,44.5c-14.7,26.9-21.5,56.5-29.8,85.6c-8.2,28.9,1.7,41.6,31.9,40.5
		c19.2-0.7,34-10.4,46.7-24.1C1056.2,2866.7,1071.3,2827.6,1075.1,2783.1z"/>
	<path class="st0" d="M4275.8,2611.5c26.6-12.3,52.4-15.6,82.6-17.6c-30.4,105.6-60.2,209-89.8,311.8c18,6.3,21.2-12.8,38.9-9.7
		c-14.1,23.1-30.6,43.2-55.5,42.9c-31.9-0.4-15.5-33.2-24.9-51.7c-15.8,14.1-29.4,29.1-45.6,40.2c-37.3,25.5-74.8,7-79.8-38.1
		c-6.9-62.8,54.5-153.6,116.2-170.3c21.2-5.8,42.4-4.6,61,16.9c9.1-30.8,15.7-57.6,25-83.5
		C4313.5,2625.9,4309.6,2610.9,4275.8,2611.5z M4267.8,2770.5c0-33.5-21.4-47.6-47.8-35.9c-39.8,17.7-85.3,108.6-75,149.8
		c5.8,23.3,24,32.3,42.9,17.5C4232,2867.4,4259.2,2821.8,4267.8,2770.5z"/>
	<path class="st0" d="M4769.5,2734.4c7.6-25.9,13.6-49.8,21.6-72.9c8.1-23.3,14.1-44.7-27.2-56.4c34.1-4.9,57.6-8.4,85-12.4
		c-31.1,107.6-60.8,210.4-90.8,314.4c25.4,2.6,28.1-22.5,48.9-26.8c-10.6,27.2-28.6,43.9-51.4,55.1c-20.5,10.1-35.5-0.6-34.9-23.4
		c0.3-9.9,6.8-19.3-0.1-38.4c-16.3,18.8-28.1,36.8-44.1,49.9c-38.1,31.2-78.4,14.1-85.3-34.7c-8.6-61,60-157.9,120.9-170.8
		C4733.2,2713.5,4752.3,2718.1,4769.5,2734.4z M4634.2,2867.4c0.6,13.7-0.9,30.2,14.5,38c16.8,8.6,30.5-1.4,41.9-13.2
		c30.2-31.1,53.8-66.3,64.8-108.9c4.6-18.1,6.9-37-12-48.4c-18.3-11-35.5-3.2-49,10.1C4660.4,2778.4,4638.6,2818.2,4634.2,2867.4z"
		/>
	<path class="st0" d="M2507.3,2895.7c-19.9,35.8-76.3,54.4-130.1,42.9c-81.9-17.5-121.5-93.2-94.9-181.5
		c34.9-115.6,138.6-174.2,257.5-143.2c18.9,4.9,28.6-8.4,43.2-12.1c-0.2,30.4-10.8,77.5-23.2,104.2c-6.7-1.9-6.9-7.6-7.6-13
		c-8.7-68.1-48.3-92-113.6-66c-62.7,24.9-89,79.2-105.9,139.6c-2.1,7.6-3.5,15.4-4.3,23.2c-4.6,42.1-1.1,82.5,36.9,109.2
		c38.9,27.3,80.2,24.3,121.1,2.5C2492.7,2898.3,2498.1,2889.6,2507.3,2895.7z"/>
	<path class="st0" d="M3501.4,2603.9c20-2.9,40.1-5.3,60-8.8c15.1-2.7,21,0.2,15.8,17.1c-12.5,40.8-23.9,81.9-35.9,123.4
		c11.4,7.4,19.1-3.9,28.4-8.7c24.4-12.5,49.6-16.8,73.8-1.3c25,16,29.1,41.4,25.5,68.7c-8.4,62.9-41.1,108.3-98.8,135.1
		c-17.5,8.1-35.9,13-55.7,9.7c-57-9.6-65.2-22-49.5-76c18.8-64.7,38.4-129.2,56.5-194.2C3528.3,2644.6,3554.5,2611.9,3501.4,2603.9z
		 M3628.3,2795.5c0.3-20.6,1.2-42-22.2-51.6c-23-9.4-41.5,2.4-58.1,16.6c-15.1,12.8-22.4,30.8-28.1,49.1
		c-7.7,24.6-14.5,49.5-21.4,74.4c-8.9,31.8,4.6,47,38.4,42.1c23.1-3.4,42.3-15.1,56.3-34C3614.3,2863.4,3626.8,2831.4,3628.3,2795.5
		z"/>
	<path class="st0" d="M782.1,2866.5c-19.4,21.3-34.2,47.4-60.1,61.9c-14.7,8.3-29.6,17.9-47,5.9c-16.5-11.3-13.1-28.2-9.7-43.1
		c9.2-39.4,20.1-78.3,30.6-117.4c2.3-8.7,5.9-17.1,1.9-27.6c-19.6-3.2-21.3,20.4-35.5,24.6c3.2-25.5,31.5-53.5,55.3-54.3
		c21.9-0.7,28.3,12.3,23.6,30.8c-10.4,41.4-22.9,82.2-33,123.7c-2.7,11-12.8,26.3-0.3,34.2c13.2,8.3,26.1-4.1,35.1-13.6
		c36.8-38.8,66.2-82.4,80.8-134.7c2.1-7.6,5-14.9,7-22.6c4.5-17.5,18.8-14.6,30.2-12.8c17.7,2.7,7.6,16.2,5.5,23.7
		c-14.9,53.9-30.9,107.4-47,162.7c26.1,4.8,27-23.9,49.1-27.8c-11.2,26.8-27.4,43.2-49,54.9c-9.4,5.1-19,7.6-28.3-0.2
		c-8.8-7.4-10-16.8-7.3-27.6c3.1-12.6,5.5-25.3,8.1-38C788.6,2868.4,785.4,2867.5,782.1,2866.5z M788.8,2855.3
		c-1.3,3.2-2.6,6.2-3.9,9.3c1.9,0.8,5.2,2.4,5.4,2.2c1.6-2.6,2.9-5.5,3.6-8.5C794,2857.7,790.8,2856.4,788.8,2855.3z"/>
	<path class="st0" d="M4568.4,2718.1c-16.5,58.2-32.1,112.1-46.7,166.4c-2.1,7.8-11.2,18.8-1.3,24.6c11.2,6.6,16-7.5,23.1-13.3
		c5.1-4.1,7-12.1,15-12c-5.1,26.6-36.7,57.6-59.7,56.3c-29-1.6-21.4-26.5-26-46.1c-15.9,12.2-29.7,25-45.5,34.6
		c-41.2,25-77.6,4.5-78.8-43.2c-1.6-60,49-138.8,104.6-162.6c7.1-3,15-4.4,22.6-6.1c20-4.6,32,9.4,45.5,19.9
		C4530.4,2715.9,4547.8,2716.8,4568.4,2718.1z M4510.4,2774.6c-0.8-16.1,2-32.6-14.1-40.6c-17.6-8.7-33.3-1.2-46.2,11
		c-34.9,33-54.5,74-60.4,121.4c-1.9,15.2-0.2,30.7,14.2,38.9c14.4,8.2,29.2,2.3,40.8-7.5C4482.9,2865,4507.3,2824.5,4510.4,2774.6z"
		/>
	<path class="st0" d="M3028.9,2897.7c-8.6,13.6-19.9,24.9-33.4,33.1c-10.1,6.1-21.2,14.6-34.1,5c-12.1-9-10.8-20.8-7.2-33.5
		c10.4-36.8,20.3-73.7,30.4-110.6c1.8-6.5,4.8-12.9,5.2-19.5c0.5-8.3,6.4-19.1-4.3-24.3c-9.3-4.5-17.3,2.7-24,8.3
		c-45.5,38.2-71.6,89-91.4,143.6c-3.1,8.4-4.9,17.3-8.1,25.7c-5.9,15.4-19.5,8.8-29.2,8c-16.9-1.5-6.2-14.4-4.6-20.4
		c12.2-44.5,24.9-88.8,38.9-132.7c8.3-26,10.7-46.3-36.8-42.5c35-16.9,62.3-14.6,92.4-23.6c-8.2,30.5-14.9,55.7-21.7,80.9
		c1.6,0.9,3.1,1.9,4.7,2.8c12.2-14.9,23.9-30.2,36.8-44.4c9-9.9,19-19.4,29.9-27.1c14.4-10.1,31.1-15.3,47.5-5.5
		c17,10.2,13.9,28.1,10.3,42.9c-9.4,38.2-21.4,75.7-31.4,113.8c-2.4,9.2-11.4,21.8-3.1,28c12.6,9.5,16.8-10.4,26.8-13.2
		C3024.7,2894.2,3026.8,2896,3028.9,2897.7z"/>
	<path class="st0" d="M3374.6,2912c22-2.4,25-23.2,39.9-28.8c-2.7,25.3-35.4,58.5-58.5,56.5c-38.1-3.3-14.7-34.8-22.2-53.4
		c-17.6,14.9-31.4,33.2-51.5,44c-40.6,21.8-76.8,1.9-75.7-44.1c1.7-72.4,38.3-125,99.2-161.9c9.9-6,23.1-12.1,32-7.2
		c28.1,15.2,55,13,87.1-6.2C3411.7,2784,3382.6,2844.8,3374.6,2912z M3246.4,2866.6c-0.6,15.3-0.5,30.8,14.6,38.8
		c16,8.4,30.5,1,43-9.8c36.2-31.4,58.6-70.4,63.9-118.3c1.8-16.7,2.4-35.6-16.2-44.1c-17.5-8.1-32.9,0.9-45.7,12.9
		C3271.2,2778.8,3253.1,2820,3246.4,2866.6z"/>
	<path class="st0" d="M2053.8,2912c22.2-0.8,26.1-22.6,42.6-30.4c-8.8,32.5-44.1,63.4-65.6,58.1c-28.8-7.1-12.6-31.6-17.8-50.2
		c-17.3,13.8-33,29.3-51.3,40.1c-40,23.5-74.7,3-76.2-43.3c-1.9-60.1,48.8-139.5,103.6-163.4c9.6-4.2,19.5-4.7,29.4-6.6
		c18.9-3.6,37.4,22.1,40.2,17.4c11.1-18.1,25.7-15,44.1-16.3C2092.1,2784,2062.4,2845,2053.8,2912z M2047.8,2781
		c0.7-25.2-0.7-40.4-16.1-47.7c-14.7-6.9-28.6-1.8-40.4,8.4c-39.2,34-59.3,77.8-65.4,128.6c-1.7,14.3,1.7,27.8,14.6,35.2
		c13,7.4,26.8,3.2,37.8-5.6C2019.6,2866.8,2043.7,2824.1,2047.8,2781z"/>
	<path class="st0" d="M1717,2835.4c-10.3,27.2-22,54-30.5,81.8c-6.1,20.1-20.5,19.8-34.2,16.2c-18.9-5-4.1-19.1-2.3-26.6
		c11.2-44.6,24.8-88.6,37.2-132.9c2.4-8.4,6-19.8-1.9-25.2c-9.8-6.7-19.3,1.7-26.6,8.6c-32.3,30.7-55.7,67.5-71.1,109.3
		c-6.6,17.9-12.9,36-17.7,54.4c-4.8,18-18.6,14.1-29.8,12.9c-19.5-2-7.2-16.5-5.4-23c11.8-44.4,24.8-88.6,38.4-132.5
		c7.6-24.5,15-47.4-30.3-40.1c28.2-18,55.9-15,85.7-23.4c-7.7,26.6-13.8,47.8-20,69.1c1.8,0.9,3.5,1.8,5.3,2.7
		c13.6-15.5,26.5-31.8,41.1-46.4c17.2-17.1,38.2-34.1,62.4-19c24.6,15.3,11.2,40.1,5.7,61.4c-1.4,5.2-4.3,10.1-6.5,15.1
		C1707.7,2810.4,1709.2,2823,1717,2835.4z"/>
	<path class="st0" d="M2723.8,2716.4c40.6,0.5,67.6,25.2,71.5,65.6c7.3,74.9-55.8,151-131,157.9c-39,3.6-74.8-23.6-80.6-61.3
		C2571.7,2801.5,2645.9,2715.6,2723.8,2716.4z M2753.7,2784.6c1.6-21.3,0.4-42.6-22.7-51.4c-22.7-8.6-42,1.4-57.2,18.6
		c-30,34-46.4,73.9-49.7,119.1c-1.5,21.1,0.8,41.2,23.7,50.9c23.8,10.2,42.4-1.3,56.9-17.9C2734.5,2870,2751.6,2830.1,2753.7,2784.6
		z"/>
	<path class="st0" d="M5017.4,2876.5c-25.3,37.8-59.1,61.7-103.9,63.5c-39.2,1.5-69.9-30.1-72-70.2c-3.9-74.8,74.6-155,150.2-153.6
		c18.9,0.4,37.3,3.4,44.8,23.2c7,18.5,0,35.4-12.9,49.7c-28.8,31.9-67.1,44-107.8,50.5c-30.5,4.9-39.1,25.2-21.2,50.9
		c16.5,23.7,46.2,28.9,78.8,12.5C4988.6,2895.3,5002.7,2885.4,5017.4,2876.5z M4978.6,2730.6c-32.4-1.1-84,51.7-85,86
		c-0.3,10.2,3.9,10,11.7,10.2c32,0.8,81.3-29.7,93.4-58.6C5008.4,2745.1,5001.1,2731.3,4978.6,2730.6z"/>
	<path class="st0" d="M1492.2,2876.4c-21.7,35.5-53.2,57.4-93.6,63.2c-42.8,6.1-79.4-26.6-81.2-70.8c-3-75.4,75.5-154.7,151.1-152.7
		c17.8,0.5,34.9,3.7,42.9,21.1c8.3,18.2,2.1,35.2-10.5,50c-28.1,32.9-66.7,44.1-106.9,52.4c-11,2.2-27.4-4.2-30.7,13.3
		c-3.2,17.2,0.1,33.5,14.6,46c23.4,20.2,48,15.6,72.4,3.2C1464.9,2894.8,1478.3,2885.1,1492.2,2876.4z M1453.6,2730.6
		c-32.3-0.2-82.1,51.2-84,85.7c-0.5,9.6,2.8,10.3,11,10.7c32.1,1.3,83.4-30.6,94.8-60.1C1484.2,2744.3,1476.1,2730.8,1453.6,2730.6z
		"/>
	<path class="st0" d="M3882.2,2611.4c28.7-11.6,54.8-17,85.2-16.5c-27.8,96-55,189.7-81.9,283.4c-4.8,16.8-11.8,35.7,19.7,30.7
		c-3.9,15.8-14.6,20.6-24.4,25.1c-9.9,4.5-20.8,10.2-31.7,1.2c-11.1-9.2-11.7-19.9-7.8-33.3c22.7-77.6,44.6-155.4,66.8-233.1
		c0.9-3.2,2.1-6.4,3.2-9.6C3920.2,2633.9,3927.2,2609.7,3882.2,2611.4z"/>
	<path class="st0" d="M3089.2,2727.1c42.8-8.7,67.7-39.7,89.8-76.8c10.1,18.1,1.4,26.7-0.3,36.1c-3.1,17.3-18.8,39.2,18.4,35.1
		c3.6-0.4,9.4,3.2,6.4,8.7c-1.8,3.3-7.1,7.7-9.9,7.1c-33.7-6.8-34.7,18.8-40.6,39.9c-9.7,34.5-20.5,68.8-29.4,103.6
		c-3.1,12-19.9,29.9,10.7,34.4c10,1.5,2.2,10.9-3,13.9c-12.5,7-25,16.1-40.5,6.7c-16-9.6-14.5-24.7-10.8-38.9
		c10.9-41.2,23-82.1,34.6-123.1c3.1-10.8,6.2-21.5,9.8-34.1c-11.4-1.3-21.8-2.5-32.2-3.6C3091.2,2733.2,3090.2,2730.2,3089.2,2727.1
		z"/>
	<path class="st1" d="M4215.1,1349.4c39.7,212.9,9.5,417.5-72.6,616.1c-7.4,3.6-9.9,14.8-20.5,13.3c45.1-122,80.2-246.3,91-376.7
		c6.8-82.6,4.4-164.6-7.8-246.4C4208.5,1353.6,4211.8,1351.5,4215.1,1349.4z"/>
	<path class="st0" d="M1737.4,2785.6c12.4-23.1,29.1-42.7,50-58.4c13.3-9.9,29.1-15.5,44.3-7.9c17.3,8.6,15.9,27,12.5,42.1
		c-8.4,37.2-18.8,73.9-28.9,110.7c-2.9,10.7-7.6,20.9-5.4,33.1c20.2,2.9,22.5-22.8,44.4-25.1c-12.4,24-28.1,40.4-47.5,52.6
		c-8.8,5.6-19.7,12.1-31.2,2.7c-10.4-8.4-10.8-18.4-7.6-30.4c10.6-39,20.7-78.1,31.2-117.2c3.6-13.6,14-31.6-1.1-39.1
		c-13.9-6.9-24.5,11.4-34.6,21.4c-7.1,7.1-13.5,14.9-20.2,22.4C1741.3,2790.4,1739.3,2788,1737.4,2785.6z"/>
	<path class="st2" d="M3556,1193.8c110.9,58,139.4,375.7,45.6,541.5c-4.4-16.6-0.8-27.9,3.3-40c58.9-172.8,46.7-338.7-49.6-496.1
		C3554.6,1198,3555.7,1195.6,3556,1193.8z"/>
	<path class="st0" d="M3712.6,2735.6c25.2-14.4,50.9-16.3,75.6-17.2c15.6-0.6,5.7,12.8,3.8,19.8c-12.3,45.5-25.1,90.8-37.5,136.2
		c-3,11.1-14.4,26.3-1.4,32.8c11.9,5.9,19.3-11.5,27.8-19.9c3-2.9,6.4-5.4,11.1-9.4c-4.6,27.1-39.6,62.6-61.3,61.9
		c-21.9-0.7-29.2-14-23.5-34.6c11.6-42.1,22.2-84.6,35.6-126.1C3751.8,2751.4,3753.2,2732.2,3712.6,2735.6z"/>
	<path class="st0" d="M4017.3,2909.1c23.6,0.2,27.1-17.8,50-24.4c-18.6,30.3-36.2,51.5-64.7,54.4c-25.7,2.6-27.6-18.7-22.5-37.9
		c10.5-40.2,22.5-79.9,33.7-119.9c11.1-39.5,11.1-39.6-30.2-48c29.4-12.1,56.6-12.5,86.8-17.2
		C4052,2782.6,4034.9,2844.8,4017.3,2909.1z"/>
	<path class="st1" d="M2449.2,1537.7c132.8,41.5,255.9,16.6,372.3-54.4c5.5-3.3,11-8.7,18.2-3.1c-60,102.5-256.3,131.2-411.1,60.1
		C2435.5,1539.4,2442.3,1538.5,2449.2,1537.7z"/>
	<path class="st0" d="M1228.8,2811.1c-17.3,30.2-35.8,60.2-42.1,94.9c-5.1,28.1-19.7,34.4-46,24.7c15.2-50.5,30.8-100.8,45.3-151.4
		c10.6-37.1,10-37.3-31-46.8c29.5-10,55.1-13.5,81-14.9c4.8,22.5-16.1,39.7-8.3,61.1l0.2-0.4c-7.4,5.8-15.5,11.4-6.8,22.1
		C1223.8,2803.9,1226.3,2807.5,1228.8,2811.1z"/>
	<path class="st3" d="M2929.5,1071.5c4.1-32.4,28.8-50.2,52.1-66c87.7-59.3,181.3-49.3,276.2-19c-118.6-5.8-233,2.9-328.7,84.4
		L2929.5,1071.5z"/>
	<path class="st1" d="M2888.7,1708.7c80.3-59.1,133-133.8,135.6-237.3c0.2-7.9-4.2-21.5,8.8-21.9c13.9-0.5,12.1,13.7,13.8,23.2
		c12.8,73.3-13.8,132.8-65.1,183.1c-25.1,24.6-53,45.4-85.2,60C2893.9,1713.4,2891.3,1711,2888.7,1708.7z"/>
	<path class="st3" d="M2427.9,2522.4c169.5-5.9,337.6-25.6,504.9-53.6c-165.8,42.2-333.1,70.7-504.9,64.5
		C2427.9,2529.6,2427.9,2526,2427.9,2522.4z"/>
	<path class="st4" d="M2736.2,1046.4c-23.1-38.6-20.8-76.5-0.8-114.4c26.2-49.8,110.1-108.2,160.6-109.3
		C2818.9,882.1,2740.6,937.8,2736.2,1046.4z"/>
	<path class="st3" d="M3660.4,976.3c-94.9-78.6-199.5-140-317.5-177.4c3.2-2.7,6.3-5.4,9.5-8.2c121.6,30.7,230.1,86.1,321.9,172.3
		C3674.1,972.3,3668.9,976,3660.4,976.3z"/>
	<path class="st3" d="M2021,1518.1c69.3,68.8,145.9,127.5,233.4,171.7c8.8,4.5,16.1,12.1,24,18.3c-3.9,6.4-10.4,6.9-16.8,7.8
		c-98.2-40.8-179-104.7-246.8-186C2014.8,1524.9,2015.7,1520.3,2021,1518.1z"/>
	<path class="st5" d="M1540.6,1246.8c-33.7-138.5-36.2-277.1-0.8-415.7c-14.9,135.9-15.8,271.4,8.7,406.5
		C1545.8,1240.7,1543.2,1243.8,1540.6,1246.8z"/>
	<path class="st4" d="M1538.8,810.3c14.9-103.4,52.2-199.7,93.7-294.7c22.8-52.2,48.3-103.2,79.2-154.8c7.9,17.4-2.9,25.4-7.8,34.4
		c-70.2,130.6-123.8,267.2-152.3,413.1c-1.4,7.1,0.3,16.4-9.2,19.9c-0.5,0.2-1.7-0.6-2.2-1.2c-0.7-0.8-1.1-2-1.6-3
		C1538.6,819.5,1538.7,814.9,1538.8,810.3z"/>
	<path class="st5" d="M1350.9,1639.1c66.6,73.4,134.4,145.7,209.6,210.7c5.5,4.7,19.2,9.7,8.6,20.5c-7.7,7.9-14.7-1.2-20-6
		c-74.1-67.5-149.8-133.6-203.2-220.1C1347.5,1642.5,1349.2,1640.8,1350.9,1639.1z"/>
	<path class="st5" d="M2649.9,1391.9c-94.3,7.2-174.6-21.2-236.3-95.4C2498,1313.4,2556.5,1395.9,2649.9,1391.9z"/>
	<path class="st6" d="M2261.6,1715.9c6.4-0.9,13-1.4,16.8-7.8c8-1.6,15.3-0.1,22.8,3.2c79.5,35.4,163.2,55.6,249.1,67.4
		c-0.2,3.2-0.4,6.3-0.6,9.5C2449.1,1782.7,2352.1,1762.2,2261.6,1715.9z"/>
	<path class="st4" d="M2388.3,861.7c52-96.7,127.9-170.1,221.6-225.9c3.6,3.5,7.2,6.9,10.9,10.4c-85.3,59.4-165.2,124.4-220.8,214.4
		C2396.1,860.9,2392.2,861.3,2388.3,861.7z"/>
	<path class="st6" d="M3660.4,976.3c8.5-0.3,13.8-4,13.9-13.2c74.1,64.1,126.8,142.8,161.5,234
		C3789.4,1113.8,3728.2,1042.5,3660.4,976.3z"/>
	<path class="st2" d="M2888.2,535.2c-91.6,24.2-178.2,60.6-260.8,106.8c-3.1-3.4-6.1-6.7-9.2-10c81.3-57.3,172.5-89.7,269.6-107.4
		C2888,528.2,2888.1,531.7,2888.2,535.2z"/>
	<path class="st0" d="M1228.8,2811.1c-2.6-3.6-5.1-7.1-7.7-10.7c4.5-6.7,18.8-10.4,6.8-22.1l-0.2,0.4c15.5,6.5,16.5-9.1,22.5-15.7
		c15.1-16.7,29.4-34.2,50.2-43.9c9.5-4.4,21.7-5.7,26.7,5.5c7.6,16.9,1.9,33.2-10.2,46.3c-8.8,9.4-19.5,7.5-24.9-3.5
		c-9.7-19.8-19.1-9.8-27.5-0.4C1252,2781.1,1240.7,2796.3,1228.8,2811.1z"/>
	<path class="st1" d="M3383,1342.5c-11.9-4-15.8-15.2-21.7-24.6c-34.6-55.3-82.2-96.9-136-131.7c71.7,32.1,128,80.1,157.4,155.9
		L3383,1342.5z"/>
	<path class="st6" d="M4122,1978.8c10.7,1.4,13.1-9.7,20.5-13.3c-19.6,56.2-42.5,110.7-85.9,154.1
		C4078.4,2072.7,4100.2,2025.8,4122,1978.8z"/>
	<path class="st5" d="M4064.2,606.3c-54.7-33.8-109.3-67.7-164-101.5c2-3.2,3.9-6.5,5.9-9.7c57.2,30.7,112.2,65.1,162.6,107.2
		C4067.2,603.7,4065.7,605,4064.2,606.3z"/>
	<path class="st4" d="M1713.7,357.4c32.9-61.7,71.9-119.5,111.5-177.1c2.7,1.7,5.4,3.3,8.2,5c-37.1,58.8-74.2,117.5-111.2,176.3
		C1719.3,360.2,1716.5,358.8,1713.7,357.4z"/>
	<path class="st7" d="M3884.1,1623.4c13.4-77.2,5.5-155.3,9.2-232.9C3911.9,1468.9,3906.6,1546.6,3884.1,1623.4z"/>
	<path class="st4" d="M2888.2,535.2c-0.1-3.5-0.3-7.1-0.4-10.6c75.7-20.3,152.8-27.2,231-23.1c-0.3,2-0.6,4-0.8,6
		C3040.3,507.3,2964.2,520.2,2888.2,535.2z"/>
	<path class="st7" d="M1851.9,1206.2c-15-73.8-20.7-147.7-3.6-222c-10.1,74.9,5.1,148.5,11.6,222.5
		C1857.3,1206.6,1854.6,1206.4,1851.9,1206.2z"/>
	<path class="st8" d="M2107.2,1164.4c24.1,48.9,34.4,102.8,55.9,152.6C2134.1,1270,2110.1,1221.1,2107.2,1164.4z"/>
	<path class="st6" d="M3142,2408.3c-58.7,24.9-118.6,45-183.3,48.5c59.6-18.1,119.1-36.2,178.7-54.3
		C3138.9,2404.4,3140.5,2406.4,3142,2408.3z"/>
	<path class="st9" d="M1540.6,1246.8c2.6-3.1,5.3-6.2,7.9-9.2c17.5,56,35,112,52.5,168C1570.7,1356.2,1551.8,1302.9,1540.6,1246.8z"
		/>
	<path class="st0" d="M4091.2,2644.6c-1.7,14.9-8.9,25.2-25.2,25.2c-14.6,0-23.2-9.8-24-22.9c-1-15.6,8.8-24.6,24.7-25
		C4081.9,2621.5,4088.4,2631,4091.2,2644.6z"/>
	<path class="st0" d="M3794.3,2621.8c15.2,0.7,23.5,8.8,23.7,23.4c0.2,14.5-8.1,24-22.5,24.4c-15.9,0.4-25.8-9.1-25.3-25.2
		C3770.6,2629.9,3780.1,2622.5,3794.3,2621.8z"/>
	<path class="st4" d="M3352.4,790.8c-3.2,2.7-6.3,5.4-9.5,8.2c-49.3-10.5-97.6-25.8-148.5-27.7c0.2-2.9,0.5-5.8,0.7-8.8
		C3248.7,765.4,3301.5,772.6,3352.4,790.8z"/>
	<path class="st8" d="M3787.3,1891.6c-26.9,49.6-58.1,96.3-95.2,139c-1.8-1.8-3.6-3.7-5.4-5.5c31.5-45.9,63-91.8,94.5-137.7
		C3783.2,1888.8,3785.2,1890.2,3787.3,1891.6z"/>
	<path class="st10" d="M2827.6,1748.8c-51.9,23.9-106.7,36.1-163.6,39.2c-0.2-2.2,0-4.4,0.6-6.6c52.3-12.4,106.5-17.1,156.7-38.3
		C2823.4,1745,2825.5,1746.9,2827.6,1748.8z"/>
	<path class="st4" d="M2021,1518.1c-5.3,2.2-6.2,6.7-6.1,11.8c-27.3-30.1-52.7-61.6-69.3-99.1c1.2-1,2.4-1.9,3.6-2.9
		C1973.1,1458,1997.1,1488.1,2021,1518.1z"/>
	<path class="st8" d="M4215.1,1349.4c-3.3,2.1-6.6,4.2-9.9,6.3c-11.2-45.3-22.4-90.7-33.5-136.1c3.3,0.3,6.5,0.6,9.8,0.9
		C4196,1262.7,4209,1305.1,4215.1,1349.4z"/>
	<path class="st4" d="M4418.2,957.4c-27.9-33.6-55.8-67.2-83.7-100.8c2.1-1.9,4.1-3.8,6.2-5.6c30.6,31.2,58.5,64.8,82.4,101.5
		C4421.4,954.1,4419.8,955.7,4418.2,957.4z"/>
	<path class="st10" d="M3254,2354.5c34-20,69.1-38,105.6-53c1.4,1.3,2.9,2.6,4.2,3.9c-33.7,25.1-72.3,41-110.1,58.4
		C3253.9,2360.7,3254,2357.6,3254,2354.5z"/>
	<path class="st8" d="M3254,2354.5c-0.1,3.1-0.1,6.2-0.2,9.3c-36.9,15.7-72.5,34.8-111.8,44.5c-1.5-1.9-3.1-3.9-4.6-5.8
		C3176.3,2386.5,3215.2,2370.5,3254,2354.5z"/>
	<path class="st7" d="M3118.1,507.5c0.2-2,0.4-4,0.8-6c45.5-5.9,90,1.3,134.2,12.4C3208.1,511.7,3163.1,509.6,3118.1,507.5z"/>
	<path class="st7" d="M2339.9,2533.8c-29.2-0.5-58.3-0.9-87.5-1.4c-0.3-3.6-0.6-7.3-0.8-10.9c29.5,0.3,59.1,0.6,88.6,0.9
		C2340.1,2526.2,2340,2530,2339.9,2533.8z"/>
	<path class="st5" d="M2339.9,2533.8c0.1-3.8,0.2-7.6,0.2-11.3c29.2,0,58.4,0,87.7,0c0,3.6,0,7.2,0,10.9
		C2398.5,2533.4,2369.2,2533.6,2339.9,2533.8z"/>
	<path class="st9" d="M1990.7,600.3c-14.8,26.8-29.7,53.5-44.5,80.3c2.4-34.3,20.2-60.2,39.3-85.3
		C1987.2,596.9,1988.9,598.6,1990.7,600.3z"/>
	<path class="st11" d="M2251.6,2521.5c0.3,3.6,0.6,7.3,0.8,10.9c-40.8-2.3-81.6-4.5-122.4-6.7c0-1.4,0-2.8,0-4.2
		C2170.5,2521.5,2211,2521.5,2251.6,2521.5z"/>
	<path class="st8" d="M2827.6,1748.8c-2.1-1.9-4.2-3.7-6.3-5.6c22.5-11.5,44.9-23,67.4-34.5c2.6,2.4,5.2,4.8,7.9,7.2
		C2876.3,1732.6,2852.1,1741.1,2827.6,1748.8z"/>
	<path class="st7" d="M1913,742.6c-5.2,28.8-18.1,54.5-32.2,79.8c1.7-30.5,12.4-58,27.9-84C1911,738.9,1912.4,740.3,1913,742.6z"/>
	<path class="st7" d="M2388.3,861.7c3.9-0.4,7.8-0.8,11.7-1.2c-11.5,23-22.9,46-34.4,69C2363.9,903.4,2375.1,882.2,2388.3,861.7z"/>
	<path class="st11" d="M4115.8,1077c19.7,16.5,24.3,40.7,30.8,63.9c-15.8-18.2-29.5-37.4-32.5-62.5L4115.8,1077z"/>
	<path class="st7" d="M3195.1,762.5c-0.2,2.9-0.5,5.8-0.7,8.8c-18.8,0-37.6,0-56.4,0C3155.9,755.5,3175.5,759.1,3195.1,762.5z"/>
	<path class="st1" d="M2664.6,1781.4c-0.6,2.2-0.8,4.3-0.6,6.6c-38,2.1-76.1,3.8-114.1,0.2c0.2-3.2,0.4-6.3,0.6-9.5
		C2588.5,1779.6,2626.5,1780.5,2664.6,1781.4z"/>
	<path class="st8" d="M2449.2,1537.7c-6.8,0.9-13.7,1.7-20.5,2.6c-16.7-1.7-30.2-11.3-44.4-20
		C2407.9,1517.9,2428.3,1528.7,2449.2,1537.7z"/>
	<path class="st9" d="M1996.5,579.5c7.6-17.4,18.8-32.3,33.9-44.8c-3.3,19.9-14.2,35.7-28.1,50
		C2000.4,583,1998.4,581.3,1996.5,579.5z"/>
	<path class="st9" d="M1908.7,738.4c6-19,14-37,28.6-51.9c-3.3,20.7-11.1,39.4-24.3,56C1912.4,740.3,1911,738.9,1908.7,738.4z"/>
	<path class="st11" d="M2020.9,1863.7c-16.5,0.6-29.3-5.7-42.1-22.8C2001.4,1839.8,2012.2,1849.8,2020.9,1863.7L2020.9,1863.7z"/>
	<path class="st8" d="M3652.5,2065.4c9-15.4,20.7-28.6,34.1-40.3c1.8,1.8,3.6,3.6,5.4,5.5c-11.5,13.3-23,26.7-34.6,40
		C3655.9,2068.9,3654.2,2067.2,3652.5,2065.4z"/>
	<path class="st10" d="M3506.4,2210.7c-13.2,14.9-29.4,25.7-47.4,34.1c-1.4-1.6-2.8-3.2-4.2-4.9c15.7-11.4,31.3-22.8,47-34.3
		C3503.4,2207.3,3504.9,2209,3506.4,2210.7z"/>
	<path class="st11" d="M1851.9,1206.2c2.7,0.2,5.3,0.3,8,0.5c10.5,16.5,13.1,34.8,12,53.8l-0.4,0.3
		C1855.3,1246.2,1857.9,1224.7,1851.9,1206.2z"/>
	<path class="st9" d="M4211.5,724.1c21.5,7,33,25.3,46.8,41c-0.9,0.9-1.9,1.8-2.8,2.7c-19-10-31.9-26.7-45.9-42.2L4211.5,724.1z"/>
	<path class="st10" d="M3438.9,2258.4c-11.3,11.8-24.9,19.4-40.7,23.5c8.4-14.6,21-23.1,36.6-27.5
		C3436.2,2255.8,3437.6,2257.1,3438.9,2258.4z"/>
	<path class="st7" d="M1647.5,1505.4c-11.8-10.3-19.7-22.4-18.8-41.4c14.4,11.4,19.6,24.2,21.3,38.8
		C1649.1,1503.7,1648.3,1504.6,1647.5,1505.4z"/>
	<path class="st0" d="M1717,2835.4c-7.9-12.4-9.3-25-0.6-37.6c4.3-0.1,8.7-0.1,13-0.2c0.1,5.1,0.2,10.2,0.3,15.3l0.2-0.3
		c-2.2,2.8-4.4,5.7-6.6,8.5C1723.5,2826.9,1722.9,2832.3,1717,2835.4z"/>
	<path class="st7" d="M1688.7,1565.8c-13.9-10.2-22.3-24.1-27.8-40.1c0,0,2.3-1.9,2.3-1.9c16.4,9.1,22.7,24.4,25.9,41.7
		L1688.7,1565.8z"/>
	<path class="st10" d="M3509.1,2199.8c11-9.2,22-18.5,33-27.7c1.8,1.8,3.5,3.5,5.3,5.3c-9.4,11.4-20,21.2-33.8,27
		C3512.1,2202.9,3510.6,2201.3,3509.1,2199.8z"/>
	<path class="st7" d="M2333.9,1489.9c12.6,0,22.6,5.1,34.8,17.6c-19.2,1.7-28.9-4.9-36.7-15.8L2333.9,1489.9z"/>
	<path class="st11" d="M3810,738.9c16.3-1.6,26.4,7.2,33.8,20.4l0.2-0.2C3827.8,760.7,3817.2,752.7,3810,738.9L3810,738.9z"/>
	<path class="st11" d="M3776.1,711.9c-16.2,1.4-26.6-6.8-33.9-20.3l0.2-0.2c16-1,26.5,7,33.8,20.4L3776.1,711.9z"/>
	<path class="st8" d="M3615.9,2104.1c10-10.6,20-21.1,30-31.7c1.8,1.7,3.5,3.4,5.3,5c-8.5,11.9-17.7,23.1-30.2,31.1
		C3619.3,2107,3617.6,2105.6,3615.9,2104.1z"/>
	<path class="st10" d="M3359.7,2301.5c7.8-9.5,16.6-16.6,31.1-15.7c-6,13-16.4,16.3-26.9,19.6
		C3362.5,2304.1,3361.1,2302.8,3359.7,2301.5z"/>
	<path class="st10" d="M4181.5,1220.6c-3.2-0.3-6.5-0.6-9.8-0.9c-4.1-10-11.6-19.1-7.5-32.8
		C4177.9,1195,4176.8,1209.3,4181.5,1220.6z"/>
	<path class="st11" d="M3864.5,780.2c-12.3-1.7-20.1-7.8-20.5-21l-0.2,0.2c12.8,0.8,19.4,8.1,21,20.5L3864.5,780.2z"/>
	<path class="st11" d="M1749.4,1640.7c-8.4-0.8-15.2-3.9-17.4-12.8c-0.9-3.9,1.3-6.7,5.5-5.6c8.9,2.3,11.8,9.3,12.7,17.6
		C1750.2,1639.8,1749.4,1640.7,1749.4,1640.7z"/>
	<path class="st4" d="M1831.3,180.6c0.6-15.7,7.7-23,17.9-30.7C1851.1,164.5,1843.5,171.5,1831.3,180.6z"/>
	<path class="st9" d="M4321.4,830c8.4,5.2,15.4,11.6,19.3,20.9c-2.1,1.9-4.1,3.8-6.2,5.6c-8-5.3-14.3-12.1-17.8-21.2
		C4318.2,833.6,4319.8,831.8,4321.4,830z"/>
	<path class="st5" d="M4068.6,602.3c11.4,3.7,19.7,11.4,26.6,20.8c-1.4,1.2-2.7,2.3-4.1,3.5c-10.7-4.6-20.1-10.8-27-20.3
		C4065.7,605,4067.2,603.7,4068.6,602.3z"/>
	<path class="st10" d="M3816.8,1822.4c1.3,10.7,0.9,20.3-10.4,28.4C3803.3,1838,3809,1830.2,3816.8,1822.4z"/>
	<path class="st10" d="M4150.8,1152.5c8.4,8.1,14.4,14.5,9.5,25.4C4151.7,1172.8,4148.5,1165.8,4150.8,1152.5z"/>
	<path class="st8" d="M3579.1,2141.2c5.7-10.2,14.2-17.6,23.8-23.9c1.3,1.6,2.7,3.1,4.3,4.5c-5.7,10.2-13.8,17.7-24.3,22.8
		C3581.7,2143.4,3580.4,2142.3,3579.1,2141.2z"/>
	<path class="st7" d="M3528.6,1149.4c6.9,3.6,13.6,7.4,14.5,17.7c-10.1,0.4-16.9-2.9-19.9-12.8
		C3525.1,1152.7,3526.9,1151,3528.6,1149.4z"/>
	<path class="st11" d="M3776.2,711.8c9.6,0.2,16.4,4.7,20.2,13.6l0.1-0.1c-10.2,0.7-19.7,0.2-20.4-13.5
		C3776.1,711.9,3776.2,711.8,3776.2,711.8z"/>
	<path class="st9" d="M4265.1,771.7c6.8,6.8,13.7,13.5,20.5,20.3c-1.3,1.2-2.6,2.5-3.9,3.7c-9.3-4.4-15.8-11.3-19.7-20.8
		C4263.1,773.9,4264.1,772.8,4265.1,771.7z"/>
	<path class="st9" d="M4292.3,798.7c6.8,5.8,15.9,9.9,16.3,21.7c-12.5-0.2-15.8-9.7-20.5-17.4C4289.6,801.6,4291,800.2,4292.3,798.7
		z"/>
	<path class="st7" d="M1936.1,1416.7c-5.1-4.2-9.8-8.8-8.6-16.2c0.2-1.2,3.3-3.2,4.4-2.8c7.7,2.5,8.5,8.8,7.9,15.7
		C1939.9,1416,1938.6,1417.1,1936.1,1416.7z"/>
	<path class="st7" d="M2312.2,1477.6c10.3-1.3,18.5,1,21.7,12.3c0,0-1.9,1.8-1.9,1.8c-8.9-1.6-16-5.5-19.6-14.3L2312.2,1477.6z"/>
	<path class="st10" d="M3542.2,2172.1c5.9-5.2,11.7-10.4,17.6-15.6c-0.1,3.1-0.1,6.2-0.2,9.4c-1.3,6.7-6.3,9.5-12.1,11.6
		C3545.7,2175.6,3543.9,2173.8,3542.2,2172.1z"/>
	<path class="st10" d="M3781.2,1887.4c0.8-8,4.1-14.4,12-18.2c7.4,10-1.9,15.6-5.9,22.4C3785.2,1890.2,3783.2,1888.8,3781.2,1887.4z
		"/>
	<path class="st0" d="M3022.6,2892.5c2.2-6,5.8-14.8,12.4-9.8c6.9,5.3-2.4,10.4-6,15C3026.8,2896,3024.7,2894.2,3022.6,2892.5z"/>
	<path class="st7" d="M1689,1565.4c4.6-0.3,8.5,1,9.4,6c0.2,1.1-2.3,3.8-3.3,3.6c-5.3-0.7-5.9-5.1-6.3-9.3
		C1688.7,1565.8,1689,1565.4,1689,1565.4z"/>
	<path class="st9" d="M4181.9,699.2c-4.7-0.4-8.1-2.2-8-7.5c0-0.8,1.2-2.1,2-2.2c5.1-0.3,7.6,2.6,8.2,7.4L4181.9,699.2z"/>
	<path class="st11" d="M3810,739c-8.7-0.3-13.6-4.5-13.5-13.6l-0.1,0.1C3805,725.9,3809.9,730,3810,739
		C3810,738.9,3810,739,3810,739z"/>
	<path class="st4" d="M4423,952.4c4,3.4,10.7,7.3,3.6,12.3c-3.9,2.8-7.4-2.7-8.4-7.3C4419.8,955.7,4421.4,954.1,4423,952.4z"/>
	<path class="st5" d="M4095.3,623.1c4.7,0.6,10.7,3.8,8,7.5c-5.1,7-8.7-0.2-12-4.1C4092.6,625.5,4093.9,624.3,4095.3,623.1z"/>
	<path class="st9" d="M1985.5,595.2c3.7-5.2,7.4-10.4,11-15.7c1.9,1.7,3.9,3.5,5.8,5.2c-3.9,5.2-7.8,10.3-11.7,15.5
		C1988.9,598.6,1987.2,596.9,1985.5,595.2z"/>
	<path class="st0" d="M1737.4,2785.6c2,2.4,4,4.8,6,7.2c-1.8,2.6-3.6,5.1-5.3,7.7c-2.5-1.5-5-3-7.5-4.5
		C1732.8,2792.6,1735.1,2789.1,1737.4,2785.6z"/>
	<path class="st11" d="M1726.3,1609c-1.6,0.8-3.4,2.5-4.7,2.1c-1.6-0.5-3.6-2.5-3.7-4c-0.4-3.8,1.8-5.4,5.2-3.1
		C1724.7,1605,1725.3,1607.3,1726.3,1609z"/>
	<path class="st7" d="M3487.3,1106.8c-1.3,0.9-2.4,2-3.7,2.4c-0.5,0.2-2.2-1.1-2.2-1.6c0.1-1.6,0.7-3.1,1.1-4.7
		C3484.1,1104.2,3485.6,1105.4,3487.3,1106.8z"/>
	<path class="st11" d="M1872,1260.6c5.1,3.2,7.1,7.7,5.2,13.6c-0.3,0.8-1.7,1.2-2.6,1.8c-1-5-2-10-3.1-15
		C1871.6,1260.9,1872,1260.6,1872,1260.6z"/>
	<path class="st8" d="M3559.5,2165.8c0.1-3.1,0.1-6.2,0.2-9.4c4.1-3,8.1-6,12.2-9c1.4,1.5,2.9,3,4.4,4.4
		C3570.8,2156.5,3565.1,2161.1,3559.5,2165.8z"/>
	<path class="st7" d="M3514.4,1136.1c7.4,1.6,11.4,6.8,14.2,13.3c-1.8,1.6-3.6,3.3-5.4,4.9c-4.3-4.8-8.5-9.6-12.8-14.3
		C3511.8,1138.7,3513.1,1137.4,3514.4,1136.1z"/>
	<path class="st7" d="M1656.1,1510.2c5.5,2.9,6.4,8.2,7,13.6c0,0-2.2,1.9-2.2,1.9c-5.2-2.7-7-7.4-7.5-12.8
		C1654.3,1512,1655.2,1511.1,1656.1,1510.2z"/>
	<path class="st10" d="M3459,2244.8c-4,2.7-8.1,5.4-12.1,8.1c-1.4-1.4-2.9-2.9-4.3-4.3c4.1-2.9,8.2-5.8,12.2-8.7
		C3456.2,2241.5,3457.6,2243.2,3459,2244.8z"/>
	<path class="st4" d="M1945.6,1430.8c-3.2-4.7-6.3-9.3-9.5-14c2.5,0.4,3.7-0.7,3.8-3.3c3.1,4.8,6.2,9.6,9.3,14.4
		C1948,1428.8,1946.8,1429.8,1945.6,1430.8z"/>
	<path class="st2" d="M2620.8,646.2c-3.6-3.5-7.2-6.9-10.9-10.4c2.8-1.2,5.6-2.5,8.4-3.8c3,3.3,6.1,6.7,9.2,10
		C2625.2,643.4,2623,644.8,2620.8,646.2z"/>
	<path class="st7" d="M1919.1,1382.9c-1.7-2.3-3.4-4.6-5.1-6.9c1.2-0.8,2.4-1.5,3.5-2.3c0.7,2.9,1.3,5.8,2,8.6L1919.1,1382.9z"/>
	<path class="st5" d="M1345.8,1644.2c-2.3-3-4.7-5.9-7.1-8.9c5.9-4.5,9.4-1.5,12.1,3.8C1349.2,1640.8,1347.5,1642.5,1345.8,1644.2z"
		/>
	<path class="st0" d="M1729.8,2812.9c-0.1-5.1-0.2-10.2-0.3-15.3l1-1.5c2.5,1.5,5,3,7.5,4.5
		C1735.3,2804.6,1732.5,2808.8,1729.8,2812.9z"/>
	<path class="st10" d="M3816.8,1823.1c-0.1-5.7,0.9-10.8,7-13.3l-0.5-0.4C3823.6,1815.1,3825.4,1821.6,3816.8,1823.1z"/>
	<path class="st11" d="M1790.3,1681.1c-2.8-0.7-5.6-1.4-8.3-2.1c0.7-1.2,1.5-2.4,2.2-3.6c2.2,1.8,4.3,3.5,6.5,5.3
		C1790.7,1680.7,1790.3,1681.1,1790.3,1681.1z"/>
	<path class="st11" d="M1797.4,1687.4c5.5,2.8,7.1,7.7,7,13.4c0,0-0.6,0.6-0.6,0.6c-5.6-2.9-7-7.9-6.8-13.7L1797.4,1687.4z"/>
	<path class="st7" d="M1875.5,836.6c0.6,1.8,1.4,3.6,1.7,5.4c0.1,0.5-1.4,1.3-2.2,2c-0.6-1.8-1.4-3.6-1.7-5.4
		C1873.2,838.1,1874.7,837.3,1875.5,836.6z"/>
	<path class="st11" d="M1883.6,1295.7c-0.8,0.2-1.6,0.5-2.4,0.7c-0.3-1-0.8-2-0.7-2.9c0-0.3,1.5-0.5,2.3-0.8
		C1883,1293.8,1883.3,1294.8,1883.6,1295.7z"/>
	<path class="st10" d="M3823.8,1809.8c0.6-3,1.3-6,1.9-9c1.1,1,2.3,2,3.4,3c-1.9,1.9-3.9,3.7-5.8,5.6
		C3823.3,1809.4,3823.8,1809.8,3823.8,1809.8z"/>
	<path class="st11" d="M1844.6,1735.1c-3.1-0.9-6.2-1.8-9.2-2.8c0.6-0.9,1.2-1.8,1.8-2.8c2.5,1.8,5.1,3.6,7.6,5.4L1844.6,1735.1z"/>
	<path class="st11" d="M4114,1078.5c-5.2-3.2-6.3-8.3-6.2-14c0,0,0.6-0.6,0.6-0.6c5.4,2.7,6.6,7.8,7.3,13.1
		C4115.8,1077,4114,1078.5,4114,1078.5z"/>
	<path class="st11" d="M4094.6,1042.5c5.2,3.5,7.2,8.6,7.1,14.6l-0.6,0.6c-2.6-4.6-5.2-9.2-7.8-13.9
		C4093.3,1043.8,4094.6,1042.5,4094.6,1042.5z"/>
	<path class="st11" d="M4101.8,1057.2c2.2,2.3,4.5,4.5,6.7,6.8c0,0-0.6,0.6-0.6,0.6c-2.2-2.3-4.4-4.5-6.6-6.8
		C4101.2,1057.7,4101.8,1057.2,4101.8,1057.2z"/>
	<path class="st11" d="M1844.8,1735c2.3,2.2,4.7,4.4,7,6.6l-0.6,0.6c-2.2-2.3-4.4-4.7-6.6-7C1844.6,1735.1,1844.8,1735,1844.8,1735z
		"/>
	<path class="st3" d="M2929.1,1070.9c-0.6,0.8-1.1,1.8-1.8,2.4c-0.3,0.3-1.2-0.1-1.8-0.1c1.3-0.6,2.7-1.2,4-1.8
		C2929.5,1071.5,2929.1,1070.9,2929.1,1070.9z"/>
	<path class="st11" d="M1851.8,1741.6c0.9,1.2,1.9,2.3,2.8,3.5c-1.1-1-2.3-2-3.4-2.9L1851.8,1741.6z"/>
	<path class="st7" d="M3497.9,1125.6c-1.3-1.2-2.6-2.4-3.9-3.7c3.7-3.9,4.2-0.2,5.3,2.2C3499.2,1124.2,3497.9,1125.6,3497.9,1125.6z
		"/>
	<path class="st10" d="M3434.9,2254.4c2.6-1.9,5.2-3.9,7.8-5.8c1.4,1.4,2.9,2.8,4.3,4.3c-2.7,1.9-5.3,3.7-8,5.6
		C3437.6,2257.1,3436.2,2255.8,3434.9,2254.4z"/>
	<path class="st9" d="M4316.6,835.4c-1-2.7-2-5.3-3-8c2.6,0.9,5.2,1.8,7.8,2.7C4319.8,831.8,4318.2,833.6,4316.6,835.4z"/>
	<path class="st5" d="M1538.8,810.3c-0.1,4.6-0.1,9.2-0.2,13.8C1532.8,819.5,1535.5,814.9,1538.8,810.3z"/>
	<path class="st1" d="M3382.8,1342.2l1.2,0.8c0,0-1-0.4-1-0.4C3383,1342.5,3382.8,1342.2,3382.8,1342.2z"/>
	<path class="st11" d="M1811.1,1707.6c1,1.1,2.1,2.2,3.1,3.2c-1.2-0.9-2.4-1.8-3.6-2.8L1811.1,1707.6z"/>
	<path class="st9" d="M4285.6,792c2.2,2.2,4.5,4.5,6.7,6.7c-1.3,1.4-2.7,2.8-4.2,4.2c-2.2-2.4-4.3-4.8-6.4-7.2
		C4283,794.5,4284.3,793.3,4285.6,792z"/>
	<path class="st8" d="M3645.9,2072.4c2.2-2.3,4.4-4.6,6.6-6.9c1.7,1.7,3.3,3.4,5,5.2c-2.1,2.3-4.2,4.5-6.4,6.8
		C3649.4,2075.7,3647.7,2074,3645.9,2072.4z"/>
	<path class="st11" d="M1810.6,1708.1c-2.3-2.2-4.5-4.4-6.8-6.7c0,0,0.6-0.6,0.6-0.6c2.2,2.3,4.4,4.5,6.7,6.8
		C1811.1,1707.6,1810.6,1708.1,1810.6,1708.1z"/>
	<path class="st9" d="M4258.3,765.1c2.3,2.2,4.5,4.4,6.8,6.7c-1,1.1-2,2.1-3.1,3.2c-2.2-2.4-4.3-4.8-6.5-7.2
		C4256.5,766.9,4257.4,766,4258.3,765.1z"/>
	<path class="st7" d="M3504.3,1132.8c-2.1-2.4-4.3-4.8-6.4-7.2c0,0,1.3-1.4,1.4-1.4c2.6,1.9,5.1,3.9,7.7,5.8
		C3506.1,1130.9,3505.2,1131.8,3504.3,1132.8z"/>
	<path class="st11" d="M1797,1687.8c-2.2-2.2-4.5-4.5-6.8-6.7c0,0,0.4-0.4,0.4-0.4c2.2,2.2,4.5,4.5,6.7,6.8L1797,1687.8z"/>
	<path class="st12" d="M3322.1,732.2c-1.3,1.3-2.6,2.6-3.9,3.9c-0.2-1-0.9-2.3-0.6-3.1c1.2-3,2.9-3,4.8-0.3
		C3322.4,732.7,3322.1,732.2,3322.1,732.2z"/>
	<path class="st10" d="M3501.8,2205.6c2.4-1.9,4.9-3.9,7.3-5.9c1.5,1.6,3,3.1,4.5,4.6c-2.4,2.1-4.8,4.2-7.2,6.3
		C3504.9,2209,3503.4,2207.3,3501.8,2205.6z"/>
	<path class="st9" d="M4209.6,725.6c-2.3-2.2-4.6-4.4-7-6.6c0.9-0.8,1.8-1.6,2.8-2.4c2,2.5,4,5.1,6,7.6
		C4211.5,724.1,4209.6,725.6,4209.6,725.6z"/>
	<path class="st11" d="M1770.7,1659.9c0.9,1.4,1.8,2.8,2.6,4.2c-1.3-0.9-2.7-1.9-4-2.9L1770.7,1659.9z"/>
	<path class="st11" d="M1769.3,1661.3c-2.3-2.2-4.5-4.5-6.8-6.8l1.5-1.5c2.2,2.3,4.5,4.6,6.7,6.9
		C1770.7,1659.9,1769.3,1661.3,1769.3,1661.3z"/>
	<path class="st11" d="M1762.5,1654.5c-2.2-2.3-4.3-4.7-6.5-7l1.1-1.1c2.3,2.2,4.6,4.4,6.9,6.6
		C1764,1653,1762.5,1654.5,1762.5,1654.5z"/>
	<path class="st10" d="M3800.1,1862.5c-0.5-0.3-1.1-0.7-1.8-1.1c0.7-1.1,1.4-2.2,2.1-3.2c0.6,0.8,1.8,1.6,1.8,2.3
		C3802.2,1861.2,3800.9,1861.8,3800.1,1862.5z"/>
	<path class="st0" d="M1723.3,2821.1c2.2-2.8,4.4-5.7,6.6-8.5C1729.3,2816.7,1728.8,2820.8,1723.3,2821.1z"/>
	<path class="st11" d="M2020.8,1863.8c0.8,0.3,1.8,0.5,2.5,1.1c0.4,0.3,0.4,1.2,0.5,1.8C2022.9,1865.7,2021.9,1864.7,2020.8,1863.8
		C2020.9,1863.7,2020.8,1863.8,2020.8,1863.8z"/>
	<path class="st9" d="M4197.4,710.8c2.6,1.9,5.3,3.9,8,5.8c-0.9,0.7-1.8,1.5-2.7,2.3c-2.2-2.3-4.4-4.6-6.6-6.9
		C4196.1,712.1,4197.4,710.8,4197.4,710.8z"/>
	<path class="st11" d="M1756,1647.5c-2.2-2.3-4.4-4.6-6.6-6.9c0,0,0.8-0.8,0.8-0.8c2.3,2.2,4.5,4.4,6.8,6.6
		C1757,1646.4,1756,1647.5,1756,1647.5z"/>
	<path class="st9" d="M4190.4,704.2c4.1,0.3,6.6,2.4,7,6.7c0,0-1.3,1.2-1.3,1.2c-2.3-2.2-4.6-4.5-6.9-6.7L4190.4,704.2z"/>
	<path class="st9" d="M4184.2,696.9c2.1,2.5,4.2,4.9,6.3,7.3c0,0-1.2,1.2-1.2,1.2c-2.4-2.1-4.8-4.1-7.3-6.2
		C4181.9,699.2,4184.2,696.9,4184.2,696.9z"/>
	<path class="st8" d="M3572,2147.5c2.4-2.1,4.8-4.2,7.2-6.3c1.3,1.1,2.6,2.2,3.9,3.4c-2.2,2.4-4.4,4.9-6.6,7.3
		C3574.8,2150.5,3573.4,2149,3572,2147.5z"/>
	<path class="st11" d="M3742.1,691.6c-1-1-2-2.1-3-3.1c1.1,1,2.1,1.9,3.2,2.9C3742.4,691.4,3742.1,691.6,3742.1,691.6z"/>
	<path class="st11" d="M3721.9,676.4c1,1.4,1.9,2.9,2.9,4.3c-1.5-0.9-2.9-1.8-4.4-2.8C3720.3,678,3721.9,676.4,3721.9,676.4z"/>
	<path class="st7" d="M1919.6,1382.4c1.5,1.1,3,2.2,4.4,3.2c-4.8,4.7-3.7-1.1-4.9-2.8C1919.1,1382.9,1919.6,1382.4,1919.6,1382.4z"
		/>
	<path class="st8" d="M3602.9,2117.3c2.3-2.3,4.6-4.7,6.9-7c1.3,1.8,2.8,3.5,4.4,5c-2.3,2.2-4.7,4.4-7,6.5
		C3605.6,2120.4,3604.2,2118.9,3602.9,2117.3z"/>
	<path class="st7" d="M1649.9,1502.8c2.1,2.4,4.1,4.9,6.2,7.3c-0.9,0.9-1.8,1.8-2.7,2.7c-2-2.5-4-5-5.9-7.5
		C1648.3,1504.6,1649.1,1503.7,1649.9,1502.8z"/>
	<path class="st8" d="M3609.8,2110.2c2-2.1,4.1-4.1,6.1-6.2c1.7,1.5,3.4,3,5.1,4.5c-2.2,2.2-4.5,4.5-6.8,6.7
		C3612.6,2113.7,3611.1,2112.1,3609.8,2110.2z"/>
	<path class="st7" d="M3506.9,1130c2.5,2,5,4.1,7.4,6.1c-1.2,1.3-2.5,2.6-3.9,3.9c-2.1-2.4-4.1-4.8-6.2-7.2
		C3505.2,1131.8,3506.1,1130.9,3506.9,1130z"/>
	<path class="st7" d="M2312.4,1477.5c-0.9-0.4-2-0.6-2.7-1.3c-0.4-0.3-0.3-1.3-0.4-2c1,1.2,1.9,2.3,2.9,3.4
		C2312.2,1477.6,2312.4,1477.5,2312.4,1477.5z"/>
	<path class="st0" d="M788.8,2855.3c2,1.1,5.2,2.4,5.1,2.9c-0.7,3-2,5.9-3.6,8.5c-0.2,0.3-3.5-1.4-5.4-2.2
		C786.2,2861.5,787.4,2858.5,788.8,2855.3z"/>
	<path class="st0" d="M1227.9,2778.3c12,11.7-2.2,15.4-6.8,22.1C1212.4,2789.7,1220.6,2784.1,1227.9,2778.3z"/>
</g>
<g>
	<g>
		<g>
			<linearGradient id="SVGID_1_" gradientUnits="userSpaceOnUse" x1="705.5077" y1="3149.1064" x2="687.9673" y2="3499.9146">
				<stop  offset="0" style="stop-color:#2AD846"/>
				<stop  offset="1" style="stop-color:#00AB24"/>
			</linearGradient>
			<path class="st13" d="M697,3153.7c-91.1,0-164.9,73.8-164.9,164.9c0,31.2,8.7,60.3,23.7,85.2l-20.5,79.2l82.1-20
				c23.6,13.1,50.8,20.5,79.7,20.5c91.1,0,165-73.9,165-164.9C862,3227.5,788.1,3153.7,697,3153.7z M697,3455.9
				c-27.9,0-53.8-8.4-75.5-22.7l-48.1,12.3l12.5-46.4c-16.4-22.6-26.1-50.4-26.1-80.5c0-75.7,61.6-137.3,137.3-137.3
				c75.7,0,137.3,61.6,137.3,137.3C834.3,3394.3,772.7,3455.9,697,3455.9z"/>
			
				<linearGradient id="SVGID_00000058574037872411268990000007813114711830593954_" gradientUnits="userSpaceOnUse" x1="707.6407" y1="3149.2131" x2="690.1002" y2="3500.0234">
				<stop  offset="0" style="stop-color:#2AD846"/>
				<stop  offset="1" style="stop-color:#00AB24"/>
			</linearGradient>
			<path style="fill:url(#SVGID_00000058574037872411268990000007813114711830593954_);" d="M766.9,3352c-2.3-1.1-4.8-2.1-6.7-3.1
				c-5.6-2.9-11.1-5.9-16.7-8.8c-1.7-0.9-3.5-1.8-5.4-1.8c-7.4,0.2-10.8,10.7-15.6,14.7c-2,1.7-4.3,3.2-6.8,3.3
				c-2.1,0.1-4.1-0.8-6.1-1.7c-9.6-4.6-18.5-10.7-26.3-18c-6.1-5.8-11.4-12.3-16.4-19c-2.3-3.1-4.6-6.4-5-10.2
				c-1-9.4,12.3-12.7,12.7-22.1c0.1-3.4-1.5-6.7-2.9-9.8c-2.5-5.4-4.6-10.9-6.3-16.6c-3.2-10.4-9.2-14.9-20.5-12.3
				c-13.9,3.1-21.2,22.6-21.7,35c-0.7,18.6,12.2,37.1,14,39.7c8.6,12.3,16.7,24.4,27.5,35c17.6,17.3,41.9,31.3,66.4,35.4
				c4.7,0.8,9.6,1.2,14.3,0.5c8.2-1.1,15.8-5.4,21.1-11.6c4.9-5.7,11.3-16.4,6.6-23.8C771.8,3354.7,769.4,3353.2,766.9,3352z"/>
		</g>
	</g>
</g>
<text transform="matrix(1 0 0 1 901.0294 3394.9089)" class="st0 st15 st16">61 99605-6060 | 61 3084-4210</text>
</svg>
