<?xml version="1.0" encoding="utf-8"?>
<!-- Generator: Adobe Illustrator 27.8.1, SVG Export Plug-In . SVG Version: 6.00 Build 0)  -->
<svg version="1.1" id="Layer_1" xmlns="http://www.w3.org/2000/svg" xmlns:xlink="http://www.w3.org/1999/xlink" x="0px" y="0px"
	 viewBox="0 0 5442.52 3061.42" style="enable-background:new 0 0 5442.52 3061.42;" xml:space="preserve">
<style type="text/css">
	.st0{fill:#FFFFFF;}
	.st1{fill:#AD853A;}
	.st2{fill:#D1AE4A;}
	.st3{fill:#CC9C40;}
	.st4{fill:#D6B15A;}
	.st5{fill:#D7B962;}
	.st6{fill:#C19748;}
	.st7{fill:#E4D39F;}
	.st8{fill:#BA9B61;}
	.st9{fill:#DBC376;}
	.st10{fill:#CCB285;}
	.st11{fill:#EEE2C1;}
	.st12{fill:#111111;}
</style>
<g>
	<path class="st0" d="M3322.38,732.69c-5.37-18.81,11.03-26.94,20.08-37.35c46.44-53.43,102.73-94.43,165.11-127.59
		c38.78-20.61,78.98-38.84,114.53-65.12c11.97-8.85,23.54-18.6,20.74-35.8c-3.04-18.63-17.73-25.72-33.57-28.97
		c-19.83-4.06-40.11-8.09-60.22-8.26c-329.25-2.77-653.45,30.42-966.42,139.78c-93.03,32.51-181.35,74.87-258.94,136.91
		c-31.08,24.85-58.74,53.02-77.15,88.84c-41.41,80.59-14.41,151.17,70.76,181.24c108.5,38.3,220.56,64.41,331.48,94.45
		c217.19,58.82,428,134.04,624.2,246.02c60.91,34.76,118.24,74.76,169.35,123.15c120.83,114.39,149.04,250.52,92.22,404.74
		c-58.53,158.87-175.55,265.11-320.02,344.09c-138.21,75.56-290.24,110.84-442.81,141.24c-278.06,55.42-558.87,76.97-842.19,55.68
		c-118.41-8.9-235.52-25.45-347.65-67.28c-36.22-13.51-70.2-31.02-98.6-57.72c-38.06-35.78-51.83-79.3-34.72-129.15
		c26.6-77.49,65.19-148.76,121.3-209.1c73.33-78.86,170.03-92.83,269.5-97.8c1.08,2.73,2.17,5.46,3.25,8.18
		c-21.13,8.12-42.24,16.32-63.41,24.33c-16.85,6.38-34.38,11.56-48.56,23.21c-25.74,21.15-21.94,51.2,8.86,63.96
		c34.91,14.46,72.58,17.42,109.6,19.18c311.78,14.77,623.32,14.74,932.76-32.41c200.26-30.52,385.53-100.68,547.42-225.87
		c37.13-28.72,38.08-30.69,10.88-70.04c-79.64-115.2-194.4-182.24-321.12-232.61c-119.43-47.48-246.05-64.22-371.16-88.05
		c-205.38-39.12-399.59-110.23-581.33-213.68c-57.63-32.81-91.69-85.17-90.59-152.52c2.58-158.1,40.84-307.72,115.94-447.41
		c61.96-115.25,160.57-190.51,274.46-247.75c223.12-112.16,461.08-174.44,707.87-205.03c197.8-24.51,396.26-29.29,595.05-14.23
		c78.89,5.98,157.22,16.57,232.16,43.43c80.93,29.01,97.41,55.35,93.34,141.01c-2.05,43.08-7.29,85.66-22.41,126.11
		c-24.52,65.59-61.72,119.78-132.01,144.71c-43.48,15.42-85.27,35.65-128.78,50.97c-120.76,42.5-234.56,98.74-342.21,167.82
		c-14.86,9.53-28.39,22.35-47.33,24.17L3322.38,732.69z"/>
	<path class="st0" d="M434.82,2821.47c0,8.68-0.17,17.36,0.03,26.03c0.84,37.14,18.32,63.31,50.55,71.03
		c28.88,6.92,56.54,4.5,75.23-23.36c17.66-26.33,14.3-54.47-12.03-86.15c-16.55-19.9-35.29-37.97-52.87-57.03
		c-36.94-40.06-43.23-77-19.36-112.5c23.32-34.68,69.33-48.53,114.68-32.61c23.36,8.2,45.66,20.65,70.16-11.33
		c-5.23,44.48-14.17,79.21-25.27,115.27c-12.3-10.27-5.97-21.29-7.38-30.67c-6.51-43.31-44.27-68.54-86.48-56.74
		c-34.47,9.64-47.79,48-24.38,78.27c19.21,24.84,42.97,46.13,64.35,69.33c40.15,43.58,46.72,80.57,22.12,121.83
		c-23.75,39.84-73.65,57.47-124.48,43.88c-6.5-1.74-13.17-3.33-19.25-6.1c-21.08-9.59-40.67-12.15-57.46,10.95
		C406.18,2899.36,415.91,2860.12,434.82,2821.47z"/>
	<path class="st0" d="M954.16,3036.08c-45.69,0-82.16,0-118.63,0c38.97-8.49,41.43-41.76,49.81-71.03
		c17.92-62.62,35.23-125.43,54.58-187.6c8.57-27.55,6.63-44.22-29.54-43.44c24.05-12.51,49.74-17.25,73.61-15.19
		c20.51,1.77-1.57,21.52,6.19,32.78c15.2-9.66,30-21.77,46.86-29.25c41.36-18.35,78.15,4.49,82.05,49.23
		c5.88,67.4-61.02,155.19-127.53,167.19c-5.51,0.99-11.25,0.7-16.79,1.58c-14.46,2.29-33.93-15.73-40.19-4.46
		c-12.2,21.96-18.53,48.47-21.61,73.79C910.51,3029.87,933.97,3024.6,954.16,3036.08z M1075.08,2783.11
		c-0.32-15.37,0.4-31.98-16.11-41.15c-18.18-10.1-32.58,0.82-45.97,10.96c-15.45,11.7-26.42,27.53-35.68,44.48
		c-14.7,26.89-21.5,56.53-29.79,85.64c-8.22,28.88,1.74,41.61,31.88,40.5c19.22-0.71,34.04-10.39,46.67-24.11
		C1056.23,2866.67,1071.34,2827.56,1075.08,2783.11z"/>
	<path class="st0" d="M4275.84,2611.5c26.58-12.28,52.39-15.55,82.6-17.61c-30.41,105.62-60.16,208.96-89.76,311.77
		c17.98,6.31,21.2-12.84,38.85-9.67c-14.13,23.14-30.61,43.25-55.46,42.94c-31.89-0.4-15.54-33.18-24.91-51.69
		c-15.82,14.14-29.39,29.09-45.61,40.18c-37.29,25.51-74.79,6.97-79.75-38.1c-6.91-62.79,54.49-153.55,116.2-170.27
		c21.22-5.75,42.37-4.62,60.98,16.87c9.11-30.83,15.74-57.62,25.02-83.47C4313.52,2625.95,4309.56,2610.94,4275.84,2611.5z
		 M4267.79,2770.48c-0.03-33.53-21.44-47.55-47.75-35.85c-39.83,17.7-85.28,108.55-74.97,149.83c5.83,23.31,23.97,32.33,42.87,17.51
		C4232,2867.42,4259.25,2821.83,4267.79,2770.48z"/>
	<path class="st0" d="M4769.46,2734.36c7.59-25.92,13.58-49.77,21.63-72.9c8.12-23.32,14.09-44.72-27.19-56.41
		c34.06-4.95,57.57-8.37,84.96-12.36c-31.09,107.61-60.81,210.45-90.84,314.39c25.44,2.59,28.09-22.52,48.88-26.83
		c-10.62,27.2-28.62,43.87-51.43,55.09c-20.52,10.09-35.5-0.61-34.89-23.37c0.26-9.92,6.79-19.29-0.07-38.36
		c-16.31,18.78-28.14,36.82-44.07,49.86c-38.15,31.24-78.42,14.06-85.28-34.74c-8.59-61.02,60.01-157.95,120.94-170.8
		C4733.22,2713.48,4752.26,2718.09,4769.46,2734.36z M4634.23,2867.43c0.64,13.72-0.9,30.18,14.48,38.03
		c16.81,8.59,30.47-1.43,41.89-13.16c30.25-31.07,53.83-66.3,64.76-108.86c4.65-18.11,6.92-37.01-12-48.41
		c-18.28-11-35.49-3.18-49.02,10.09C4660.36,2778.41,4638.58,2818.16,4634.23,2867.43z"/>
	<path class="st0" d="M2507.31,2895.69c-19.86,35.8-76.32,54.41-130.09,42.95c-81.9-17.46-121.52-93.2-94.91-181.47
		c34.86-115.64,138.58-174.23,257.46-143.21c18.95,4.94,28.63-8.44,43.19-12.06c-0.21,30.45-10.81,77.48-23.22,104.18
		c-6.67-1.91-6.89-7.62-7.58-13.02c-8.73-68.09-48.32-91.99-113.62-65.99c-62.66,24.94-89,79.16-105.85,139.65
		c-2.11,7.56-3.48,15.42-4.33,23.23c-4.57,42.07-1.12,82.51,36.88,109.19c38.94,27.34,80.17,24.31,121.14,2.48
		C2492.66,2898.28,2498.08,2889.62,2507.31,2895.69z"/>
	<path class="st0" d="M3501.43,2603.9c20.02-2.88,40.12-5.27,60.03-8.78c15.12-2.67,20.99,0.24,15.83,17.06
		c-12.52,40.75-23.91,81.85-35.93,123.42c11.41,7.45,19.05-3.87,28.43-8.67c24.39-12.49,49.6-16.84,73.83-1.29
		c24.98,16.03,29.15,41.39,25.52,68.66c-8.36,62.94-41.13,108.34-98.84,135.12c-17.52,8.13-35.92,13-55.67,9.69
		c-57.04-9.56-65.24-21.98-49.51-76.01c18.84-64.72,38.41-129.24,56.46-194.19C3528.32,2644.64,3554.49,2611.9,3501.43,2603.9z
		 M3628.28,2795.5c0.28-20.6,1.23-42-22.23-51.59c-23.03-9.42-41.51,2.42-58.14,16.57c-15.05,12.81-22.42,30.8-28.13,49.11
		c-7.68,24.63-14.48,49.53-21.42,74.38c-8.86,31.75,4.61,47.04,38.4,42.1c23.1-3.38,42.26-15.07,56.31-34.02
		C3614.32,2863.38,3626.75,2831.38,3628.28,2795.5z"/>
	<path class="st0" d="M782.12,2866.53c-19.42,21.28-34.2,47.4-60.11,61.92c-14.74,8.26-29.6,17.87-46.97,5.92
		c-16.45-11.33-13.14-28.19-9.65-43.13c9.19-39.36,20.06-78.33,30.56-117.38c2.34-8.7,5.93-17.07,1.9-27.62
		c-19.59-3.19-21.31,20.41-35.55,24.62c3.24-25.52,31.54-53.54,55.29-54.28c21.86-0.68,28.28,12.31,23.61,30.84
		c-10.43,41.38-22.86,82.25-33.01,123.69c-2.7,11.02-12.83,26.32-0.29,34.2c13.23,8.31,26.11-4.15,35.06-13.61
		c36.75-38.83,66.21-82.36,80.75-134.67c2.11-7.58,4.98-14.94,6.96-22.55c4.54-17.49,18.79-14.55,30.23-12.77
		c17.72,2.74,7.56,16.19,5.48,23.7c-14.88,53.86-30.89,107.41-47.01,162.68c26.1,4.81,26.97-23.86,49.06-27.81
		c-11.17,26.81-27.38,43.16-49,54.87c-9.41,5.1-19.05,7.61-28.33-0.21c-8.8-7.41-10.02-16.82-7.35-27.6
		c3.11-12.57,5.45-25.32,8.12-38C788.61,2868.4,785.37,2867.47,782.12,2866.53z M788.77,2855.28c-1.34,3.21-2.61,6.25-3.88,9.3
		c1.86,0.77,5.21,2.42,5.36,2.16c1.58-2.64,2.91-5.53,3.61-8.52C793.98,2857.71,790.82,2856.43,788.77,2855.28z"/>
	<path class="st0" d="M4568.36,2718.08c-16.48,58.21-32.13,112.14-46.69,166.36c-2.08,7.77-11.16,18.82-1.33,24.64
		c11.21,6.64,15.97-7.53,23.14-13.28c5.11-4.1,6.95-12.12,14.99-12.02c-5.13,26.65-36.74,57.59-59.7,56.29
		c-29.04-1.64-21.36-26.46-25.98-46.06c-15.85,12.2-29.71,25.01-45.52,34.6c-41.16,24.96-77.57,4.53-78.83-43.23
		c-1.58-59.97,48.96-138.8,104.61-162.55c7.1-3.03,14.97-4.37,22.56-6.11c20.01-4.59,32.05,9.37,45.54,19.89
		C4530.39,2715.94,4547.77,2716.79,4568.36,2718.08z M4510.42,2774.57c-0.78-16.12,1.99-32.58-14.13-40.55
		c-17.58-8.7-33.31-1.19-46.16,10.99c-34.85,33-54.46,73.97-60.41,121.43c-1.9,15.17-0.22,30.66,14.17,38.86
		c14.38,8.2,29.25,2.33,40.75-7.53C4482.87,2864.97,4507.3,2824.49,4510.42,2774.57z"/>
	<path class="st0" d="M3028.95,2897.7c-8.64,13.56-19.86,24.9-33.42,33.09c-10.14,6.12-21.25,14.55-34.15,4.96
		c-12.15-9.03-10.8-20.77-7.2-33.52c10.39-36.8,20.29-73.74,30.4-110.62c1.78-6.5,4.79-12.9,5.21-19.47
		c0.52-8.29,6.36-19.1-4.29-24.3c-9.27-4.53-17.27,2.66-24,8.31c-45.54,38.22-71.58,88.99-91.42,143.61
		c-3.07,8.45-4.93,17.34-8.13,25.73c-5.86,15.35-19.51,8.83-29.22,7.98c-16.88-1.48-6.24-14.36-4.59-20.41
		c12.16-44.46,24.87-88.79,38.92-132.68c8.32-25.99,10.73-46.26-36.77-42.48c35.03-16.9,62.29-14.6,92.44-23.55
		c-8.19,30.53-14.95,55.73-21.71,80.92c1.56,0.92,3.11,1.85,4.67,2.77c12.22-14.85,23.91-30.19,36.84-44.4
		c9.03-9.93,18.99-19.42,29.93-27.1c14.36-10.08,31.06-15.32,47.54-5.47c17.03,10.18,13.9,28.1,10.27,42.92
		c-9.35,38.19-21.4,75.7-31.35,113.75c-2.4,9.17-11.38,21.78-3.12,28c12.61,9.49,16.75-10.39,26.83-13.23
		C3024.72,2894.24,3026.84,2895.97,3028.95,2897.7z"/>
	<path class="st0" d="M3374.55,2912.03c22.02-2.39,25.01-23.2,39.85-28.77c-2.72,25.31-35.41,58.54-58.46,56.52
		c-38.08-3.32-14.69-34.82-22.23-53.38c-17.57,14.92-31.39,33.2-51.49,43.98c-40.64,21.79-76.77,1.94-75.69-44.06
		c1.69-72.39,38.34-124.96,99.19-161.87c9.86-5.98,23.1-12.05,31.96-7.25c28.11,15.22,55,13,87.06-6.18
		C3411.66,2783.97,3382.6,2844.84,3374.55,2912.03z M3246.39,2866.64c-0.63,15.26-0.46,30.84,14.62,38.76
		c16.02,8.42,30.49,1.02,42.99-9.81c36.17-31.35,58.63-70.45,63.91-118.27c1.84-16.68,2.39-35.55-16.16-44.15
		c-17.51-8.12-32.9,0.91-45.67,12.87C3271.16,2778.77,3253.08,2819.99,3246.39,2866.64z"/>
	<path class="st0" d="M2053.82,2911.96c22.2-0.76,26.05-22.6,42.65-30.44c-8.75,32.46-44.14,63.39-65.58,58.06
		c-28.76-7.14-12.59-31.62-17.75-50.24c-17.35,13.79-32.96,29.33-51.35,40.15c-40.02,23.53-74.73,3.04-76.23-43.26
		c-1.95-60.05,48.77-139.51,103.63-163.41c9.63-4.2,19.47-4.68,29.36-6.56c18.86-3.58,37.37,22.11,40.25,17.4
		c11.06-18.05,25.71-15.03,44.06-16.26C2092.07,2783.96,2062.42,2845.02,2053.82,2911.96z M2047.75,2781.01
		c0.74-25.22-0.67-40.4-16.08-47.7c-14.66-6.94-28.64-1.81-40.39,8.37c-39.16,33.96-59.27,77.77-65.36,128.55
		c-1.71,14.27,1.65,27.79,14.59,35.16c13.02,7.42,26.76,3.2,37.75-5.59C2019.57,2866.78,2043.67,2824.11,2047.75,2781.01z"/>
	<path class="st0" d="M1717.02,2835.41c-10.31,27.21-22.03,53.99-30.47,81.77c-6.11,20.11-20.48,19.84-34.19,16.18
		c-18.87-5.03-4.14-19.06-2.27-26.56c11.17-44.62,24.81-88.61,37.19-132.94c2.36-8.44,6.01-19.83-1.9-25.21
		c-9.78-6.66-19.35,1.68-26.6,8.56c-32.33,30.72-55.67,67.52-71.07,109.26c-6.6,17.89-12.87,36-17.72,54.43
		c-4.75,18.02-18.6,14.07-29.83,12.9c-19.49-2.03-7.16-16.48-5.44-22.98c11.78-44.45,24.84-88.58,38.4-132.54
		c7.56-24.5,15.04-47.36-30.29-40.08c28.24-17.97,55.94-15.02,85.71-23.36c-7.7,26.58-13.85,47.84-20.01,69.1
		c1.76,0.91,3.52,1.82,5.28,2.73c13.63-15.54,26.48-31.84,41.08-46.41c17.17-17.13,38.19-34.06,62.43-19.02
		c24.62,15.28,11.15,40.15,5.66,61.41c-1.36,5.25-4.31,10.08-6.53,15.1C1707.67,2810.45,1709.15,2822.98,1717.02,2835.41z"/>
	<path class="st0" d="M2723.79,2716.45c40.6,0.47,67.57,25.21,71.53,65.62c7.34,74.93-55.76,150.98-131.01,157.9
		c-39,3.59-74.79-23.61-80.63-61.26C2571.72,2801.51,2645.95,2715.56,2723.79,2716.45z M2753.74,2784.59
		c1.55-21.31,0.45-42.61-22.71-51.4c-22.69-8.61-42.02,1.41-57.24,18.65c-30,33.99-46.4,73.93-49.69,119.09
		c-1.54,21.15,0.8,41.16,23.7,50.93c23.83,10.16,42.43-1.33,56.94-17.9C2734.47,2870.02,2751.63,2830.15,2753.74,2784.59z"/>
	<path class="st0" d="M5017.37,2876.51c-25.29,37.77-59.06,61.72-103.91,63.48c-39.19,1.53-69.9-30.05-71.99-70.23
		c-3.88-74.84,74.58-154.99,150.21-153.59c18.94,0.35,37.29,3.43,44.77,23.22c6.98,18.47,0.02,35.35-12.91,49.67
		c-28.82,31.94-67.09,43.97-107.75,50.49c-30.49,4.89-39.15,25.16-21.18,50.93c16.51,23.68,46.17,28.87,78.75,12.47
		C4988.61,2895.26,5002.74,2885.39,5017.37,2876.51z M4978.63,2730.58c-32.43-1.06-83.99,51.72-85.04,86.01
		c-0.31,10.17,3.9,10.04,11.74,10.24c32.03,0.81,81.3-29.67,93.37-58.57C5008.39,2745.05,5001.07,2731.31,4978.63,2730.58z"/>
	<path class="st0" d="M1492.22,2876.45c-21.65,35.54-53.17,57.44-93.58,63.24c-42.85,6.15-79.44-26.6-81.21-70.8
		c-3.03-75.45,75.53-154.73,151.09-152.72c17.78,0.47,34.9,3.67,42.91,21.13c8.34,18.17,2.1,35.22-10.48,49.97
		c-28.08,32.92-66.67,44.14-106.95,52.37c-10.98,2.24-27.39-4.2-30.67,13.3c-3.23,17.23,0.07,33.51,14.57,46.01
		c23.42,20.2,48.04,15.56,72.36,3.24C1464.86,2894.82,1478.28,2885.11,1492.22,2876.45z M1453.58,2730.61
		c-32.35-0.22-82.14,51.17-84,85.68c-0.52,9.6,2.79,10.34,11.02,10.68c32.13,1.33,83.36-30.65,94.81-60.12
		C1484.18,2744.26,1476.05,2730.76,1453.58,2730.61z"/>
	<path class="st0" d="M3882.16,2611.4c28.67-11.55,54.76-16.99,85.2-16.53c-27.78,96.01-54.99,189.66-81.92,283.4
		c-4.82,16.79-11.8,35.74,19.67,30.73c-3.88,15.79-14.57,20.58-24.4,25.07c-9.94,4.53-20.75,10.23-31.68,1.18
		c-11.11-9.2-11.67-19.88-7.75-33.31c22.67-77.59,44.57-155.41,66.75-233.15c0.92-3.24,2.07-6.42,3.19-9.6
		C3920.17,2633.92,3927.19,2609.66,3882.16,2611.4z"/>
	<path class="st0" d="M3089.18,2727.14c42.84-8.73,67.69-39.72,89.78-76.79c10.12,18.13,1.35,26.72-0.31,36.08
		c-3.08,17.34-18.81,39.18,18.43,35.15c3.65-0.4,9.38,3.18,6.36,8.69c-1.83,3.33-7.07,7.7-9.88,7.14
		c-33.7-6.76-34.68,18.75-40.63,39.92c-9.7,34.54-20.53,68.79-29.35,103.55c-3.05,12.01-19.87,29.86,10.69,34.4
		c9.98,1.48,2.23,10.94-3.01,13.87c-12.49,6.99-24.97,16.07-40.53,6.71c-16.03-9.65-14.52-24.73-10.79-38.86
		c10.86-41.2,22.99-82.07,34.63-123.06c3.06-10.77,6.17-21.52,9.78-34.08c-11.36-1.28-21.76-2.46-32.17-3.63
		C3091.19,2733.2,3090.18,2730.17,3089.18,2727.14z"/>
	<path class="st1" d="M4215.14,1349.4c39.72,212.89,9.47,417.54-72.6,616.09c-7.38,3.62-9.87,14.78-20.54,13.34
		c45.12-122,80.25-246.29,91.01-376.73c6.81-82.58,4.41-164.56-7.79-246.38C4208.53,1353.61,4211.83,1351.51,4215.14,1349.4z"/>
	<path class="st0" d="M1737.36,2785.65c12.4-23.12,29.09-42.66,50.03-58.36c13.27-9.95,29.05-15.5,44.35-7.9
		c17.33,8.61,15.9,26.96,12.47,42.08c-8.42,37.19-18.84,73.93-28.92,110.73c-2.93,10.69-7.59,20.92-5.43,33.07
		c20.16,2.93,22.51-22.84,44.4-25.06c-12.39,23.96-28.05,40.36-47.5,52.65c-8.85,5.59-19.68,12.07-31.18,2.73
		c-10.37-8.43-10.85-18.45-7.6-30.35c10.64-38.99,20.74-78.13,31.18-117.18c3.62-13.55,14.04-31.58-1.09-39.06
		c-13.93-6.88-24.49,11.41-34.58,21.42c-7.12,7.06-13.46,14.9-20.15,22.4C1741.35,2790.43,1739.35,2788.04,1737.36,2785.65z"/>
	<path class="st2" d="M3556,1193.82c110.93,58.04,139.45,375.72,45.64,541.47c-4.43-16.56-0.79-27.91,3.34-40.04
		c58.87-172.83,46.7-338.66-49.61-496.06C3554.62,1197.97,3555.73,1195.63,3556,1193.82z"/>
	<path class="st0" d="M3712.63,2735.61c25.24-14.44,50.88-16.3,75.6-17.16c15.63-0.55,5.72,12.78,3.83,19.77
		c-12.28,45.47-25.12,90.78-37.52,136.21c-3.03,11.1-14.38,26.26-1.35,32.78c11.88,5.95,19.3-11.5,27.78-19.89
		c2.96-2.93,6.37-5.4,11.15-9.4c-4.55,27.15-39.56,62.6-61.26,61.89c-21.87-0.72-29.24-13.99-23.54-34.62
		c11.63-42.12,22.19-84.59,35.57-126.15C3751.78,2751.41,3753.19,2732.22,3712.63,2735.61z"/>
	<path class="st0" d="M4017.26,2909.08c23.64,0.2,27.12-17.84,49.97-24.37c-18.65,30.33-36.19,51.52-64.73,54.38
		c-25.72,2.58-27.56-18.7-22.54-37.88c10.51-40.16,22.48-79.93,33.72-119.9c11.12-39.54,11.05-39.56-30.18-47.99
		c29.41-12.14,56.6-12.5,86.78-17.25C4051.99,2782.64,4034.92,2844.78,4017.26,2909.08z"/>
	<path class="st1" d="M2449.16,1537.66c132.83,41.54,255.93,16.61,372.34-54.38c5.5-3.35,11.04-8.68,18.21-3.12
		c-60.04,102.54-256.28,131.21-411.08,60.09C2435.48,1539.39,2442.32,1538.52,2449.16,1537.66z"/>
	<path class="st0" d="M1228.85,2811.05c-17.29,30.21-35.75,60.23-42.08,94.91c-5.14,28.14-19.7,34.36-46.02,24.73
		c15.18-50.54,30.79-100.79,45.29-151.36c10.64-37.12,9.99-37.32-30.96-46.84c29.53-10.04,55.09-13.48,80.97-14.9
		c4.85,22.53-16.08,39.7-8.33,61.08c0,0,0.23-0.37,0.23-0.37c-7.36,5.8-15.5,11.35-6.75,22.07
		C1223.75,2803.93,1226.3,2807.49,1228.85,2811.05z"/>
	<path class="st3" d="M2929.47,1071.5c4.12-32.38,28.81-50.22,52.12-65.98c87.67-59.31,181.3-49.32,276.22-18.99
		c-118.58-5.79-233.03,2.93-328.74,84.42L2929.47,1071.5z"/>
	<path class="st1" d="M2888.7,1708.66c80.28-59.07,132.96-133.8,135.63-237.34c0.2-7.86-4.2-21.46,8.81-21.89
		c13.93-0.46,12.12,13.73,13.78,23.21c12.79,73.27-13.79,132.79-65.14,183.14c-25.06,24.57-53,45.42-85.21,60.03
		C2893.95,1713.43,2891.32,1711.04,2888.7,1708.66z"/>
	<path class="st3" d="M2427.85,2522.39c169.54-5.85,337.64-25.63,504.92-53.62c-165.76,42.18-333.15,70.74-504.92,64.48
		C2427.85,2529.64,2427.85,2526.01,2427.85,2522.39z"/>
	<path class="st4" d="M2736.18,1046.38c-23.11-38.64-20.78-76.45-0.79-114.37c26.22-49.75,110.09-108.18,160.62-109.29
		C2818.91,882.14,2740.59,937.85,2736.18,1046.38z"/>
	<path class="st3" d="M3660.35,976.32c-94.92-78.62-199.46-140.04-317.46-177.37c3.16-2.72,6.31-5.44,9.47-8.17
		c121.65,30.67,230.05,86.07,321.91,172.35C3674.12,972.27,3668.88,976.03,3660.35,976.32z"/>
	<path class="st3" d="M2021.01,1518.14c69.28,68.8,145.95,127.49,233.41,171.66c8.84,4.46,16.06,12.11,24.03,18.28
		c-3.86,6.37-10.43,6.89-16.82,7.8c-98.24-40.79-179.03-104.72-246.75-185.99C2014.79,1524.86,2015.67,1520.34,2021.01,1518.14z"/>
	<path class="st5" d="M1540.56,1246.85c-33.72-138.54-36.22-277.09-0.79-415.71c-14.93,135.89-15.78,271.43,8.7,406.48
		C1545.83,1240.7,1543.2,1243.77,1540.56,1246.85z"/>
	<path class="st4" d="M1538.75,810.33c14.95-103.39,52.23-199.73,93.7-294.66c22.82-52.24,48.26-103.2,79.22-154.82
		c7.86,17.39-2.93,25.35-7.8,34.41c-70.21,130.57-123.76,267.2-152.29,413.12c-1.38,7.08,0.35,16.36-9.17,19.94
		c-0.53,0.2-1.69-0.6-2.21-1.23c-0.71-0.84-1.08-1.96-1.61-2.96C1538.64,819.53,1538.69,814.93,1538.75,810.33z"/>
	<path class="st5" d="M1350.87,1639.14c66.62,73.44,134.45,145.66,209.6,210.65c5.48,4.74,19.2,9.68,8.57,20.53
		c-7.73,7.89-14.73-1.17-20.02-5.99c-74.07-67.53-149.8-133.56-203.24-220.14C1347.48,1642.5,1349.18,1640.82,1350.87,1639.14z"/>
	<path class="st5" d="M2649.86,1391.86c-94.3,7.22-174.64-21.16-236.33-95.36C2498.04,1313.43,2556.47,1395.95,2649.86,1391.86z"/>
	<path class="st6" d="M2261.64,1715.88c6.39-0.91,12.96-1.44,16.82-7.8c8-1.64,15.34-0.12,22.84,3.22
		c79.53,35.4,163.19,55.64,249.12,67.42c-0.19,3.15-0.39,6.31-0.58,9.46C2449.09,1782.72,2352.13,1762.19,2261.64,1715.88z"/>
	<path class="st4" d="M2388.29,861.71c52.03-96.72,127.92-170.06,221.61-225.92c3.63,3.46,7.25,6.91,10.88,10.37
		c-85.27,59.44-165.16,124.43-220.79,214.39C2396.09,860.94,2392.19,861.33,2388.29,861.71z"/>
	<path class="st6" d="M3660.35,976.32c8.53-0.29,13.77-4.05,13.92-13.18c74.09,64.11,126.8,142.83,161.51,234
		C3789.45,1113.81,3728.19,1042.47,3660.35,976.32z"/>
	<path class="st2" d="M2888.24,535.22c-91.6,24.21-178.2,60.6-260.77,106.83c-3.07-3.36-6.14-6.7-9.2-10.05
		c81.27-57.34,172.48-89.74,269.57-107.38C2887.98,528.17,2888.11,531.7,2888.24,535.22z"/>
	<path class="st0" d="M1228.85,2811.05c-2.55-3.56-5.1-7.12-7.66-10.68c4.49-6.67,18.76-10.36,6.75-22.07c0,0-0.23,0.37-0.23,0.37
		c15.52,6.51,16.54-9.13,22.47-15.72c15.06-16.73,29.38-34.19,50.2-43.92c9.5-4.44,21.66-5.68,26.72,5.51
		c7.63,16.9,1.95,33.25-10.19,46.32c-8.78,9.45-19.51,7.46-24.9-3.5c-9.74-19.8-19.11-9.8-27.46-0.4
		C1252.01,2781.07,1240.69,2796.3,1228.85,2811.05z"/>
	<path class="st1" d="M3383.01,1342.54c-11.95-4.01-15.84-15.19-21.7-24.56c-34.61-55.35-82.18-96.89-136.01-131.74
		c71.67,32.09,128.02,80.07,157.45,155.91L3383.01,1342.54z"/>
	<path class="st6" d="M4122,1978.83c10.67,1.43,13.15-9.72,20.54-13.34c-19.63,56.22-42.5,110.68-85.89,154.09
		C4078.43,2072.67,4100.22,2025.75,4122,1978.83z"/>
	<path class="st5" d="M4064.16,606.34c-54.67-33.84-109.33-67.68-164-101.51c1.97-3.24,3.93-6.48,5.9-9.72
		c57.19,30.7,112.18,65.09,162.58,107.2C4067.16,603.67,4065.67,605.01,4064.16,606.34z"/>
	<path class="st4" d="M1713.71,357.42c32.89-61.68,71.94-119.53,111.46-177.08c2.72,1.67,5.43,3.34,8.15,5.02
		c-37.08,58.75-74.16,117.51-111.25,176.26C1719.28,360.22,1716.5,358.82,1713.71,357.42z"/>
	<path class="st7" d="M3884.1,1623.43c13.41-77.23,5.48-155.33,9.21-232.9C3911.93,1468.95,3906.65,1546.57,3884.1,1623.43z"/>
	<path class="st4" d="M2888.24,535.22c-0.13-3.53-0.26-7.06-0.39-10.59c75.73-20.32,152.81-27.25,230.98-23.13
		c-0.32,1.98-0.57,3.96-0.75,5.96C3040.34,507.35,2964.16,520.22,2888.24,535.22z"/>
	<path class="st7" d="M1851.94,1206.2c-15.02-73.75-20.65-147.65-3.62-221.96c-10.07,74.93,5.06,148.5,11.63,222.5
		C1857.27,1206.55,1854.61,1206.37,1851.94,1206.2z"/>
	<path class="st8" d="M2107.22,1164.44c24.06,48.87,34.42,102.79,55.95,152.6C2134.12,1270.01,2110.05,1221.14,2107.22,1164.44z"/>
	<path class="st6" d="M3142.04,2408.32c-58.66,24.89-118.65,44.98-183.28,48.51c59.55-18.12,119.1-36.23,178.66-54.33
		C3138.95,2404.45,3140.49,2406.38,3142.04,2408.32z"/>
	<path class="st9" d="M1540.56,1246.85c2.63-3.08,5.27-6.15,7.91-9.23c17.51,56.01,35.01,112.03,52.52,168.04
		C1570.73,1356.24,1551.77,1302.95,1540.56,1246.85z"/>
	<path class="st0" d="M4091.25,2644.55c-1.71,14.93-8.88,25.19-25.16,25.2c-14.59,0-23.22-9.77-24.03-22.88
		c-0.96-15.55,8.77-24.55,24.74-24.97C4081.89,2621.49,4088.42,2630.98,4091.25,2644.55z"/>
	<path class="st0" d="M3794.33,2621.79c15.23,0.71,23.51,8.75,23.67,23.41c0.16,14.51-8.08,24.02-22.54,24.36
		c-15.87,0.37-25.81-9.08-25.33-25.18C3770.57,2629.92,3780.13,2622.5,3794.33,2621.79z"/>
	<path class="st4" d="M3352.35,790.79c-3.16,2.72-6.31,5.44-9.47,8.17c-49.26-10.53-97.64-25.78-148.51-27.66
		c0.24-2.92,0.47-5.84,0.71-8.76C3248.68,765.44,3301.5,772.65,3352.35,790.79z"/>
	<path class="st8" d="M3787.28,1891.64c-26.89,49.64-58.14,96.3-95.19,138.98c-1.81-1.84-3.62-3.66-5.43-5.48
		c31.51-45.91,63.01-91.82,94.52-137.73C3783.22,1888.82,3785.25,1890.23,3787.28,1891.64z"/>
	<path class="st10" d="M2827.59,1748.76c-51.95,23.86-106.71,36.05-163.62,39.23c-0.21-2.23,0.01-4.42,0.63-6.57
		c52.32-12.36,106.51-17.07,156.68-38.26C2823.38,1745.02,2825.49,1746.89,2827.59,1748.76z"/>
	<path class="st4" d="M2021.01,1518.14c-5.34,2.2-6.22,6.73-6.12,11.76c-27.31-30.11-52.67-61.57-69.3-99.14
		c1.18-0.99,2.38-1.95,3.61-2.89C1973.13,1457.96,1997.07,1488.05,2021.01,1518.14z"/>
	<path class="st8" d="M4215.14,1349.4c-3.3,2.11-6.61,4.21-9.91,6.32c-11.18-45.35-22.37-90.7-33.53-136.05
		c3.27,0.31,6.51,0.61,9.76,0.91C4195.97,1262.66,4208.96,1305.14,4215.14,1349.4z"/>
	<path class="st4" d="M4418.22,957.38c-27.92-33.61-55.83-67.22-83.74-100.83c2.07-1.88,4.14-3.75,6.2-5.63
		c30.65,31.24,58.47,64.77,82.35,101.5C4421.42,954.07,4419.82,955.72,4418.22,957.38z"/>
	<path class="st10" d="M3254.03,2354.52c34.04-20,69.06-38.04,105.64-52.97c1.44,1.27,2.85,2.57,4.23,3.91
		c-33.73,25.05-72.26,41.04-110.09,58.35C3253.89,2360.71,3253.96,2357.61,3254.03,2354.52z"/>
	<path class="st8" d="M3254.03,2354.52c-0.07,3.09-0.14,6.19-0.22,9.28c-36.9,15.74-72.49,34.79-111.79,44.52
		c-1.53-1.93-3.07-3.87-4.62-5.82C3176.28,2386.49,3215.16,2370.5,3254.03,2354.52z"/>
	<path class="st7" d="M3118.08,507.46c0.18-1.99,0.43-3.98,0.75-5.96c45.49-5.87,89.96,1.31,134.22,12.37
		C3208.06,511.74,3163.07,509.6,3118.08,507.46z"/>
	<path class="st7" d="M2339.94,2533.75c-29.17-0.46-58.34-0.93-87.51-1.37c-0.28-3.62-0.56-7.27-0.83-10.91
		c29.53,0.31,59.07,0.63,88.6,0.94C2340.1,2526.19,2340.02,2529.97,2339.94,2533.75z"/>
	<path class="st5" d="M2339.94,2533.75c0.08-3.78,0.17-7.56,0.25-11.34c29.22,0,58.44-0.01,87.66-0.01c0,3.62,0,7.24,0,10.86
		C2398.54,2533.42,2369.24,2533.59,2339.94,2533.75z"/>
	<path class="st9" d="M1990.68,600.26c-14.84,26.76-29.68,53.53-44.52,80.29c2.37-34.27,20.18-60.15,39.32-85.34
		C1987.21,596.89,1988.94,598.57,1990.68,600.26z"/>
	<path class="st11" d="M2251.59,2521.47c0.27,3.64,0.55,7.29,0.83,10.91c-40.8-2.26-81.61-4.49-122.42-6.73
		c-0.01-1.4-0.03-2.79-0.04-4.19C2170.5,2521.47,2211.04,2521.47,2251.59,2521.47z"/>
	<path class="st8" d="M2827.59,1748.76c-2.1-1.87-4.21-3.74-6.31-5.6c22.47-11.5,44.95-23,67.42-34.49
		c2.62,2.39,5.25,4.77,7.87,7.16C2876.34,1732.58,2852.15,1741.07,2827.59,1748.76z"/>
	<path class="st7" d="M1912.96,742.6c-5.23,28.75-18.09,54.47-32.15,79.81c1.65-30.54,12.38-58.04,27.9-83.97
		C1911.01,738.94,1912.42,740.33,1912.96,742.6z"/>
	<path class="st7" d="M2388.29,861.71c3.9-0.39,7.8-0.78,11.7-1.16c-11.47,23-22.93,46-34.4,69
		C2363.9,903.45,2375.12,882.23,2388.29,861.71z"/>
	<path class="st11" d="M4115.77,1077.02c19.73,16.52,24.27,40.68,30.81,63.95c-15.76-18.2-29.51-37.42-32.52-62.46L4115.77,1077.02z
		"/>
	<path class="st7" d="M3195.09,762.54c-0.24,2.92-0.48,5.84-0.71,8.76c-18.8,0-37.6,0-56.4,0
		C3155.89,755.46,3175.5,759.07,3195.09,762.54z"/>
	<path class="st1" d="M2664.6,1781.41c-0.63,2.15-0.84,4.34-0.63,6.57c-38.04,2.14-76.08,3.83-114.13,0.19
		c0.19-3.15,0.39-6.3,0.58-9.46C2588.48,1779.61,2626.54,1780.51,2664.6,1781.41z"/>
	<path class="st8" d="M2449.16,1537.66c-6.84,0.86-13.68,1.73-20.53,2.6c-16.74-1.7-30.23-11.27-44.44-19.96
		C2407.87,1517.94,2428.31,1528.65,2449.16,1537.66z"/>
	<path class="st9" d="M1996.46,579.55c7.58-17.43,18.76-32.32,33.93-44.75c-3.27,19.87-14.21,35.68-28.07,49.96
		C2000.36,583.02,1998.41,581.28,1996.46,579.55z"/>
	<path class="st9" d="M1908.72,738.44c6.04-18.98,13.96-37,28.58-51.9c-3.31,20.65-11.07,39.44-24.34,56.05
		C1912.42,740.33,1911.01,738.94,1908.72,738.44z"/>
	<path class="st11" d="M2020.94,1863.72c-16.47,0.55-29.32-5.65-42.12-22.82c22.62-1.12,33.42,8.86,42.04,22.91L2020.94,1863.72z"/>
	<path class="st8" d="M3652.54,2065.45c8.99-15.45,20.7-28.6,34.13-40.3c1.81,1.82,3.62,3.64,5.43,5.48
		c-11.52,13.35-23.04,26.68-34.57,40C3655.86,2068.89,3654.2,2067.17,3652.54,2065.45z"/>
	<path class="st10" d="M3506.45,2210.7c-13.25,14.91-29.44,25.73-47.41,34.08c-1.41-1.62-2.81-3.25-4.2-4.9
		c15.66-11.42,31.33-22.84,46.99-34.26C3503.37,2207.32,3504.91,2209.01,3506.45,2210.7z"/>
	<path class="st11" d="M1851.94,1206.2c2.66,0.18,5.33,0.35,8.01,0.53c10.53,16.5,13.11,34.77,12.04,53.85l-0.42,0.35
		C1855.31,1246.17,1857.88,1224.66,1851.94,1206.2z"/>
	<path class="st9" d="M4211.47,724.15c21.47,6.95,33,25.28,46.84,40.95c-0.92,0.9-1.86,1.79-2.8,2.68
		c-18.97-10.05-31.91-26.67-45.86-42.18L4211.47,724.15z"/>
	<path class="st10" d="M3438.94,2258.45c-11.26,11.83-24.94,19.35-40.7,23.47c8.38-14.6,21.04-23.05,36.63-27.49
		C3436.24,2255.76,3437.6,2257.1,3438.94,2258.45z"/>
	<path class="st7" d="M1647.47,1505.41c-11.82-10.33-19.65-22.39-18.82-41.42c14.4,11.37,19.55,24.21,21.31,38.85
		C1649.12,1503.69,1648.29,1504.55,1647.47,1505.41z"/>
	<path class="st0" d="M1717.02,2835.41c-7.87-12.43-9.35-24.96-0.58-37.65c4.34-0.07,8.69-0.14,13.03-0.22
		c0.1,5.11,0.2,10.22,0.3,15.34c0,0,0.16-0.27,0.16-0.27c-2.2,2.83-4.39,5.66-6.59,8.49
		C1723.47,2826.85,1722.87,2832.29,1717.02,2835.41z"/>
	<path class="st7" d="M1688.71,1565.75c-13.86-10.17-22.31-24.1-27.84-40.06c0.01-0.01,2.26-1.93,2.26-1.93
		c16.44,9.05,22.66,24.43,25.87,41.69L1688.71,1565.75z"/>
	<path class="st10" d="M3509.14,2199.75c11.01-9.23,22.02-18.46,33.02-27.69c1.77,1.77,3.54,3.54,5.31,5.31
		c-9.4,11.36-19.97,21.23-33.82,27.03C3512.13,2202.86,3510.63,2201.31,3509.14,2199.75z"/>
	<path class="st7" d="M2333.92,1489.89c12.62,0,22.59,5.05,34.77,17.63c-19.25,1.66-28.91-4.91-36.69-15.78
		C2332,1491.74,2333.92,1489.89,2333.92,1489.89z"/>
	<path class="st11" d="M3810.03,738.95c16.33-1.58,26.4,7.2,33.76,20.44c0,0,0.21-0.21,0.21-0.21c-16.22,1.49-26.81-6.5-34.01-20.2
		L3810.03,738.95z"/>
	<path class="st11" d="M3776.07,711.92c-16.19,1.39-26.65-6.8-33.94-20.29l0.23-0.24c16-1.03,26.54,6.99,33.83,20.41L3776.07,711.92
		z"/>
	<path class="st8" d="M3615.89,2104.06c10-10.57,20-21.14,30.01-31.71c1.77,1.68,3.53,3.35,5.3,5.03
		c-8.51,11.88-17.69,23.11-30.17,31.15C3619.31,2107.04,3617.6,2105.55,3615.89,2104.06z"/>
	<path class="st10" d="M3359.67,2301.54c7.75-9.49,16.6-16.64,31.12-15.69c-5.96,12.97-16.41,16.3-26.9,19.59
		C3362.52,2304.12,3361.11,2302.81,3359.67,2301.54z"/>
	<path class="st10" d="M4181.45,1220.58c-3.25-0.3-6.49-0.6-9.76-0.91c-4.11-9.97-11.64-19.09-7.53-32.77
		C4177.89,1194.96,4176.8,1209.32,4181.45,1220.58z"/>
	<path class="st11" d="M3864.48,780.2c-12.33-1.65-20.07-7.77-20.47-21.02c0,0-0.21,0.21-0.21,0.21
		c12.83,0.84,19.4,8.11,21.02,20.47L3864.48,780.2z"/>
	<path class="st11" d="M1749.4,1640.65c-8.38-0.76-15.22-3.88-17.38-12.78c-0.94-3.9,1.32-6.69,5.5-5.61
		c8.86,2.29,11.84,9.26,12.71,17.56C1750.22,1639.82,1749.4,1640.65,1749.4,1640.65z"/>
	<path class="st4" d="M1831.33,180.59c0.56-15.71,7.72-23.04,17.95-30.7C1851.05,164.47,1843.46,171.55,1831.33,180.59z"/>
	<path class="st9" d="M4321.39,830.03c8.39,5.16,15.37,11.61,19.28,20.89c-2.06,1.87-4.13,3.75-6.2,5.62
		c-8-5.33-14.3-12.07-17.82-21.16C4318.23,833.6,4319.81,831.81,4321.39,830.03z"/>
	<path class="st5" d="M4068.64,602.3c11.39,3.74,19.71,11.4,26.64,20.84c-1.35,1.17-2.71,2.34-4.07,3.5
		c-10.67-4.57-20.09-10.81-27.04-20.33C4065.67,605.01,4067.16,603.67,4068.64,602.3z"/>
	<path class="st10" d="M3816.84,1822.42c1.27,10.74,0.95,20.26-10.42,28.38C3803.27,1838.01,3808.98,1830.23,3816.84,1822.42z"/>
	<path class="st10" d="M4150.82,1152.51c8.41,8.05,14.35,14.52,9.55,25.36C4151.71,1172.79,4148.47,1165.81,4150.82,1152.51z"/>
	<path class="st8" d="M3579.13,2141.16c5.73-10.16,14.16-17.62,23.8-23.89c1.28,1.65,2.72,3.15,4.32,4.48
		c-5.68,10.16-13.78,17.73-24.27,22.77C3581.69,2143.38,3580.41,2142.26,3579.13,2141.16z"/>
	<path class="st7" d="M3528.65,1149.37c6.92,3.59,13.55,7.43,14.51,17.73c-10.05,0.36-16.88-2.95-19.9-12.79
		C3525.06,1152.67,3526.85,1151.02,3528.65,1149.37z"/>
	<path class="st11" d="M3776.19,711.8c9.65,0.24,16.44,4.72,20.24,13.64c0,0,0.06-0.06,0.06-0.06c-10.2,0.66-19.66,0.2-20.43-13.45
		C3776.07,711.92,3776.19,711.8,3776.19,711.8z"/>
	<path class="st9" d="M4265.11,771.75c6.83,6.76,13.66,13.53,20.49,20.29c-1.3,1.24-2.61,2.48-3.91,3.73
		c-9.26-4.38-15.82-11.3-19.67-20.8C4263.06,773.88,4264.08,772.81,4265.11,771.75z"/>
	<path class="st9" d="M4292.34,798.71c6.8,5.81,15.88,9.93,16.29,21.65c-12.45-0.24-15.75-9.69-20.48-17.44
		C4289.61,801.56,4291,800.16,4292.34,798.71z"/>
	<path class="st7" d="M1936.09,1416.74c-5.14-4.19-9.8-8.78-8.62-16.15c0.2-1.22,3.31-3.19,4.44-2.83c7.67,2.48,8.48,8.82,7.95,15.7
		C1939.86,1416.02,1938.6,1417.11,1936.09,1416.74z"/>
	<path class="st7" d="M2312.22,1477.64c10.31-1.35,18.49,1.04,21.68,12.26c0.02-0.02-1.9,1.83-1.9,1.84
		c-8.86-1.56-15.99-5.51-19.62-14.26L2312.22,1477.64z"/>
	<path class="st10" d="M3542.16,2172.07c5.86-5.21,11.72-10.41,17.58-15.62c-0.07,3.12-0.13,6.23-0.2,9.35
		c-1.33,6.67-6.34,9.5-12.08,11.58C3545.7,2175.61,3543.93,2173.84,3542.16,2172.07z"/>
	<path class="st10" d="M3781.18,1887.41c0.84-8.02,4.13-14.44,12.04-18.19c7.36,10.04-1.95,15.55-5.94,22.42
		C3785.25,1890.23,3783.22,1888.82,3781.18,1887.41z"/>
	<path class="st0" d="M3022.61,2892.51c2.21-6.04,5.84-14.81,12.36-9.83c6.93,5.29-2.35,10.43-6.03,15.02
		C3026.84,2895.97,3024.72,2894.24,3022.61,2892.51z"/>
	<path class="st7" d="M1689.01,1565.45c4.63-0.31,8.48,0.97,9.36,6.02c0.18,1.05-2.34,3.75-3.35,3.62c-5.29-0.68-5.88-5.05-6.3-9.33
		C1688.71,1565.75,1689.01,1565.45,1689.01,1565.45z"/>
	<path class="st9" d="M4181.92,699.2c-4.68-0.36-8.1-2.17-7.96-7.5c0.02-0.77,1.25-2.12,1.98-2.16c5.08-0.29,7.56,2.58,8.22,7.36
		L4181.92,699.2z"/>
	<path class="st11" d="M3810,738.97c-8.73-0.33-13.55-4.55-13.51-13.6c0,0-0.06,0.06-0.06,0.06c8.57,0.44,13.46,4.58,13.6,13.51
		C3810.03,738.95,3810,738.97,3810,738.97z"/>
	<path class="st4" d="M4423.02,952.42c4,3.41,10.74,7.28,3.64,12.31c-3.94,2.79-7.41-2.65-8.44-7.35
		C4419.82,955.72,4421.42,954.07,4423.02,952.42z"/>
	<path class="st5" d="M4095.28,623.15c4.72,0.59,10.66,3.85,7.96,7.54c-5.08,6.95-8.69-0.22-12.01-4.07
		C4092.57,625.48,4093.92,624.31,4095.28,623.15z"/>
	<path class="st9" d="M1985.47,595.21c3.69-5.22,7.37-10.43,11.03-15.66c1.92,1.73,3.87,3.47,5.82,5.21
		c-3.9,5.16-7.8,10.32-11.67,15.49C1988.94,598.57,1987.21,596.89,1985.47,595.21z"/>
	<path class="st0" d="M1737.36,2785.65c2,2.39,3.99,4.78,5.99,7.18c-1.78,2.56-3.55,5.13-5.33,7.69c-2.5-1.49-5.01-2.98-7.51-4.48
		C1732.79,2792.58,1735.07,2789.11,1737.36,2785.65z"/>
	<path class="st11" d="M1726.33,1609.01c-1.61,0.79-3.45,2.46-4.68,2.1c-1.55-0.46-3.55-2.5-3.7-4.02
		c-0.37-3.75,1.82-5.43,5.19-3.12C1724.65,1605,1725.31,1607.27,1726.33,1609.01z"/>
	<path class="st7" d="M3487.31,1106.79c-1.31,0.92-2.39,2.01-3.7,2.45c-0.54,0.18-2.24-1.05-2.23-1.6c0.06-1.57,0.72-3.13,1.15-4.69
		C3484.05,1104.17,3485.57,1105.39,3487.31,1106.79z"/>
	<path class="st11" d="M1871.99,1260.58c5.1,3.23,7.08,7.73,5.22,13.56c-0.26,0.8-1.7,1.23-2.59,1.83
		c-1.02-5.02-2.03-10.03-3.05-15.04C1871.57,1260.93,1871.99,1260.58,1871.99,1260.58z"/>
	<path class="st8" d="M3559.54,2165.8c0.07-3.12,0.13-6.23,0.2-9.35c4.08-3,8.15-5.99,12.23-8.99c1.38,1.54,2.85,3.01,4.39,4.39
		C3570.75,2156.5,3565.15,2161.15,3559.54,2165.8z"/>
	<path class="st7" d="M3514.39,1136.09c7.36,1.64,11.43,6.81,14.25,13.3c-1.78,1.63-3.58,3.28-5.38,4.93
		c-4.26-4.77-8.51-9.55-12.76-14.33C3511.84,1138.73,3513.14,1137.43,3514.39,1136.09z"/>
	<path class="st7" d="M1656.12,1510.17c5.49,2.92,6.37,8.2,7,13.6c0.02-0.02-2.23,1.91-2.24,1.91c-5.25-2.65-6.98-7.36-7.46-12.8
		C1654.34,1511.99,1655.24,1511.09,1656.12,1510.17z"/>
	<path class="st10" d="M3459.04,2244.79c-4.03,2.7-8.05,5.41-12.09,8.09c-1.43-1.45-2.86-2.87-4.31-4.27
		c4.08-2.9,8.16-5.8,12.22-8.71C3456.23,2241.54,3457.63,2243.17,3459.04,2244.79z"/>
	<path class="st4" d="M1945.59,1430.75c-3.15-4.67-6.31-9.34-9.48-14.01c2.49,0.36,3.74-0.72,3.76-3.27
		c3.09,4.8,6.19,9.62,9.3,14.41C1947.97,1428.8,1946.77,1429.76,1945.59,1430.75z"/>
	<path class="st2" d="M2620.78,646.16c-3.63-3.46-7.25-6.91-10.88-10.37c2.81-1.25,5.62-2.5,8.4-3.76c3.03,3.32,6.1,6.67,9.17,10.03
		C2625.25,643.44,2623.01,644.8,2620.78,646.16z"/>
	<path class="st7" d="M1919.06,1382.89c-1.68-2.29-3.37-4.58-5.05-6.86c1.18-0.75,2.36-1.51,3.54-2.26
		c0.67,2.88,1.34,5.76,2.01,8.63L1919.06,1382.89z"/>
	<path class="st5" d="M1345.79,1644.18c-2.35-2.96-4.71-5.91-7.06-8.87c5.87-4.51,9.36-1.48,12.14,3.82
		C1349.18,1640.82,1347.48,1642.5,1345.79,1644.18z"/>
	<path class="st0" d="M1729.77,2812.88c-0.1-5.11-0.2-10.22-0.3-15.34c0,0,1.03-1.5,1.03-1.5c2.5,1.49,5.01,2.98,7.51,4.48
		C1735.27,2804.64,1732.52,2808.76,1729.77,2812.88z"/>
	<path class="st10" d="M3816.79,1823.12c-0.14-5.74,0.93-10.85,7.01-13.32l-0.49-0.44
		C3823.6,1815.11,3825.4,1821.58,3816.79,1823.12z"/>
	<path class="st11" d="M1790.28,1681.07c-2.78-0.71-5.57-1.43-8.35-2.14c0.74-1.19,1.48-2.37,2.22-3.56
		c2.18,1.76,4.35,3.53,6.52,5.3C1790.67,1680.67,1790.28,1681.07,1790.28,1681.07z"/>
	<path class="st11" d="M1797.4,1687.42c5.54,2.8,7.12,7.66,7,13.41c-0.01,0.01-0.61,0.61-0.61,0.61c-5.61-2.89-6.99-7.88-6.76-13.66
		L1797.4,1687.42z"/>
	<path class="st7" d="M1875.48,836.61c0.62,1.8,1.45,3.57,1.71,5.43c0.08,0.55-1.43,1.33-2.21,2.01c-0.61-1.8-1.44-3.58-1.71-5.43
		C1873.2,838.07,1874.7,837.29,1875.48,836.61z"/>
	<path class="st11" d="M1883.59,1295.73c-0.82,0.25-1.63,0.49-2.45,0.74c-0.28-0.98-0.75-1.98-0.7-2.94
		c0.02-0.29,1.51-0.5,2.32-0.75C1883.04,1293.76,1883.31,1294.75,1883.59,1295.73z"/>
	<path class="st10" d="M3823.8,1809.8c0.64-3,1.27-6,1.91-9.01c1.14,1,2.27,2,3.41,3c-1.93,1.86-3.86,3.71-5.8,5.57
		C3823.32,1809.36,3823.8,1809.8,3823.8,1809.8z"/>
	<path class="st11" d="M1844.63,1735.11c-3.08-0.93-6.16-1.85-9.25-2.78c0.6-0.92,1.2-1.84,1.79-2.76c2.53,1.8,5.05,3.6,7.58,5.4
		L1844.63,1735.11z"/>
	<path class="st11" d="M4114.05,1078.5c-5.24-3.25-6.34-8.34-6.2-13.99c0.01-0.01,0.6-0.6,0.6-0.6c5.43,2.71,6.64,7.76,7.31,13.11
		C4115.77,1077.02,4114.05,1078.5,4114.05,1078.5z"/>
	<path class="st11" d="M4094.63,1042.54c5.21,3.49,7.19,8.55,7.14,14.61l-0.57,0.57c-2.61-4.62-5.22-9.24-7.84-13.87
		C4093.33,1043.85,4094.63,1042.54,4094.63,1042.54z"/>
	<path class="st11" d="M4101.76,1057.15c2.23,2.26,4.46,4.52,6.69,6.78c0,0-0.59,0.59-0.6,0.6c-2.22-2.27-4.44-4.54-6.65-6.81
		C4101.19,1057.72,4101.76,1057.15,4101.76,1057.15z"/>
	<path class="st11" d="M1844.76,1734.98c2.33,2.2,4.67,4.39,7,6.59l-0.57,0.58c-2.18-2.35-4.37-4.69-6.55-7.04
		C1844.63,1735.11,1844.76,1734.98,1844.76,1734.98z"/>
	<path class="st3" d="M2929.07,1070.95c-0.59,0.82-1.08,1.76-1.82,2.41c-0.32,0.28-1.17-0.05-1.78-0.1c1.33-0.59,2.66-1.19,4-1.77
		C2929.47,1071.5,2929.07,1070.95,2929.07,1070.95z"/>
	<path class="st11" d="M1851.76,1741.57c0.95,1.17,1.89,2.34,2.84,3.52c-1.14-0.98-2.27-1.97-3.41-2.94
		C1851.19,1742.15,1851.76,1741.57,1851.76,1741.57z"/>
	<path class="st7" d="M3497.91,1125.62c-1.32-1.22-2.63-2.44-3.95-3.66c3.7-3.92,4.25-0.22,5.32,2.22
		C3499.25,1124.2,3497.91,1125.62,3497.91,1125.62z"/>
	<path class="st10" d="M3434.87,2254.43c2.59-1.94,5.18-3.88,7.76-5.82c1.45,1.39,2.88,2.81,4.31,4.27
		c-2.66,1.86-5.34,3.71-8.02,5.56C3437.6,2257.1,3436.24,2255.76,3434.87,2254.43z"/>
	<path class="st9" d="M4316.65,835.38c-1.02-2.66-2.04-5.32-3.05-7.99c2.59,0.9,5.19,1.79,7.79,2.66
		C4319.81,831.81,4318.23,833.6,4316.65,835.38z"/>
	<path class="st5" d="M1538.75,810.33c-0.06,4.6-0.11,9.2-0.17,13.8C1532.82,819.47,1535.53,814.9,1538.75,810.33z"/>
	<path class="st1" d="M3382.76,1342.16l1.2,0.79c0,0-0.97-0.45-0.96-0.43C3383.01,1342.54,3382.76,1342.16,3382.76,1342.16z"/>
	<path class="st11" d="M1811.05,1707.64c1.04,1.08,2.07,2.16,3.11,3.23c-1.19-0.92-2.38-1.84-3.57-2.77L1811.05,1707.64z"/>
	<path class="st9" d="M4285.6,792.04c2.24,2.23,4.49,4.46,6.73,6.68c-1.34,1.44-2.73,2.84-4.18,4.22c-2.16-2.39-4.29-4.8-6.44-7.19
		C4282.99,794.52,4284.3,793.28,4285.6,792.04z"/>
	<path class="st8" d="M3645.89,2072.35c2.21-2.3,4.43-4.6,6.64-6.91c1.66,1.72,3.32,3.44,4.99,5.17c-2.12,2.26-4.24,4.5-6.35,6.75
		C3649.43,2075.71,3647.66,2074.03,3645.89,2072.35z"/>
	<path class="st11" d="M1810.59,1708.11c-2.26-2.22-4.53-4.45-6.79-6.67c0,0,0.6-0.6,0.61-0.6c2.22,2.27,4.43,4.54,6.65,6.8
		C1811.05,1707.64,1810.59,1708.11,1810.59,1708.11z"/>
	<path class="st9" d="M4258.31,765.1c2.27,2.22,4.53,4.44,6.8,6.65c-1.02,1.06-2.05,2.13-3.08,3.22c-2.17-2.4-4.33-4.81-6.5-7.21
		C4256.45,766.89,4257.38,766,4258.31,765.1z"/>
	<path class="st7" d="M3504.33,1132.77c-2.14-2.39-4.28-4.77-6.42-7.16c0,0,1.34-1.41,1.36-1.43c2.57,1.93,5.11,3.88,7.66,5.83
		C3506.07,1130.93,3505.2,1131.85,3504.33,1132.77z"/>
	<path class="st11" d="M1797.03,1687.79c-2.25-2.24-4.5-4.49-6.75-6.73c0,0,0.39-0.39,0.39-0.4c2.24,2.25,4.49,4.51,6.73,6.76
		C1797.4,1687.42,1797.03,1687.79,1797.03,1687.79z"/>
	<path class="st12" d="M3322.07,732.17c-1.3,1.31-2.61,2.61-3.91,3.92c-0.23-1.05-0.94-2.28-0.61-3.1c1.18-2.99,2.95-3.04,4.84-0.32
		C3322.38,732.69,3322.07,732.17,3322.07,732.17z"/>
	<path class="st10" d="M3501.83,2205.63c2.44-1.95,4.88-3.9,7.32-5.86c1.48,1.55,2.99,3.1,4.5,4.64c-2.4,2.1-4.8,4.2-7.2,6.3
		C3504.91,2209.01,3503.37,2207.32,3501.83,2205.63z"/>
	<path class="st9" d="M4209.64,725.6c-2.32-2.2-4.64-4.41-6.96-6.61c0.9-0.82,1.82-1.61,2.76-2.37c1.98,2.53,3.95,5.07,5.97,7.57
		C4211.47,724.15,4209.64,725.6,4209.64,725.6z"/>
	<path class="st11" d="M1770.66,1659.9c0.88,1.41,1.76,2.83,2.64,4.24c-1.34-0.95-2.68-1.91-4.02-2.86L1770.66,1659.9z"/>
	<path class="st11" d="M1769.28,1661.28c-2.27-2.25-4.53-4.5-6.8-6.75l1.48-1.49c2.23,2.29,4.46,4.58,6.69,6.86
		C1770.66,1659.9,1769.28,1661.28,1769.28,1661.28z"/>
	<path class="st11" d="M1762.48,1654.53c-2.17-2.34-4.34-4.69-6.51-7.03l1.06-1.07c2.3,2.21,4.6,4.42,6.91,6.62
		C1763.96,1653.04,1762.48,1654.53,1762.48,1654.53z"/>
	<path class="st10" d="M3800.13,1862.52c-0.49-0.3-1.14-0.69-1.79-1.09c0.71-1.08,1.41-2.17,2.12-3.25
		c0.64,0.76,1.81,1.57,1.76,2.28C3802.16,1861.18,3800.89,1861.82,3800.13,1862.52z"/>
	<path class="st0" d="M1723.34,2821.1c2.2-2.83,4.39-5.66,6.59-8.49C1729.31,2816.66,1728.81,2820.8,1723.34,2821.1z"/>
	<path class="st11" d="M2020.85,1863.81c0.84,0.34,1.8,0.54,2.49,1.09c0.4,0.32,0.38,1.19,0.54,1.81c-0.98-0.99-1.96-1.99-2.94-2.99
		C2020.94,1863.72,2020.85,1863.81,2020.85,1863.81z"/>
	<path class="st9" d="M4197.43,710.84c2.65,1.94,5.3,3.89,7.98,5.8c-0.91,0.74-1.83,1.53-2.73,2.35c-2.21-2.3-4.42-4.61-6.63-6.91
		C4196.06,712.07,4197.43,710.84,4197.43,710.84z"/>
	<path class="st11" d="M1755.98,1647.5c-2.19-2.29-4.37-4.58-6.57-6.86c-0.01,0.01,0.81-0.82,0.82-0.82
		c2.27,2.21,4.53,4.43,6.81,6.63C1757.04,1646.43,1755.98,1647.5,1755.98,1647.5z"/>
	<path class="st9" d="M4190.44,704.2c4.14,0.33,6.64,2.36,6.96,6.66c0.03-0.03-1.34,1.21-1.34,1.21c-2.29-2.23-4.58-4.46-6.86-6.69
		C4189.2,705.38,4190.44,704.2,4190.44,704.2z"/>
	<path class="st9" d="M4184.16,696.9c2.08,2.45,4.16,4.9,6.26,7.32c0.02-0.02-1.22,1.16-1.22,1.16c-2.42-2.06-4.84-4.13-7.27-6.19
		C4181.92,699.2,4184.16,696.9,4184.16,696.9z"/>
	<path class="st8" d="M3571.97,2147.46c2.39-2.1,4.77-4.2,7.16-6.3c1.28,1.1,2.56,2.22,3.86,3.37c-2.21,2.45-4.44,4.88-6.65,7.31
		C3574.82,2150.46,3573.35,2149,3571.97,2147.46z"/>
	<path class="st11" d="M3742.13,691.63c-0.99-1.04-1.98-2.08-2.98-3.12c1.07,0.96,2.14,1.92,3.21,2.89
		C3742.36,691.39,3742.13,691.63,3742.13,691.63z"/>
	<path class="st11" d="M3721.89,676.4c0.97,1.44,1.94,2.88,2.9,4.31c-1.47-0.92-2.95-1.84-4.44-2.76
		C3720.34,677.96,3721.89,676.4,3721.89,676.4z"/>
	<path class="st7" d="M1919.55,1382.4c1.48,1.08,2.96,2.17,4.44,3.25c-4.81,4.72-3.7-1.1-4.93-2.76
		C1919.06,1382.89,1919.55,1382.4,1919.55,1382.4z"/>
	<path class="st8" d="M3602.93,2117.27c2.3-2.34,4.6-4.68,6.9-7.02c1.28,1.83,2.76,3.49,4.44,4.97c-2.34,2.18-4.68,4.36-7.02,6.54
		C3605.65,2120.42,3604.2,2118.93,3602.93,2117.27z"/>
	<path class="st7" d="M1649.95,1502.84c2.05,2.45,4.1,4.9,6.16,7.34c-0.87,0.91-1.77,1.81-2.7,2.7c-1.99-2.48-3.96-4.98-5.94-7.48
		C1648.29,1504.55,1649.12,1503.69,1649.95,1502.84z"/>
	<path class="st8" d="M3609.83,2110.25c2.04-2.06,4.07-4.12,6.08-6.18c1.69,1.48,3.4,2.97,5.11,4.46c-2.25,2.23-4.5,4.46-6.76,6.69
		C3612.59,2113.74,3611.11,2112.09,3609.83,2110.25z"/>
	<path class="st7" d="M3506.93,1130.01c2.48,2.04,4.96,4.08,7.44,6.1c-1.24,1.32-2.54,2.62-3.88,3.87c-2.06-2.4-4.11-4.81-6.17-7.22
		C3505.2,1131.85,3506.07,1130.93,3506.93,1130.01z"/>
	<path class="st7" d="M2312.38,1477.49c-0.91-0.4-1.97-0.64-2.69-1.26c-0.41-0.35-0.28-1.33-0.39-2.03c0.97,1.15,1.94,2.3,2.91,3.45
		C2312.22,1477.64,2312.38,1477.49,2312.38,1477.49z"/>
	<path class="st0" d="M788.77,2855.28c2.05,1.15,5.21,2.43,5.09,2.94c-0.7,2.99-2.03,5.88-3.61,8.52c-0.15,0.26-3.5-1.39-5.36-2.16
		C786.16,2861.53,787.43,2858.49,788.77,2855.28z"/>
	<path class="st0" d="M1227.95,2778.3c12.01,11.72-2.25,15.4-6.75,22.07C1212.44,2789.66,1220.59,2784.1,1227.95,2778.3z"/>
</g>
</svg>
